<svg width="400" height="400" viewBox="0 0 400 400" fill="none" xmlns="http://www.w3.org/2000/svg">
<path fill-rule="evenodd" clip-rule="evenodd" d="M371 200.575C370.988 200.587 370.976 200.6 370.965 200.613C349.386 224.126 318.092 238.914 283.271 238.914C218.171 238.914 165.397 187.227 165.397 123.467C165.397 86.8195 182.832 54.1599 210.022 33.0115C210.027 33.0076 210.032 33.0038 210.037 33C144.645 44.5971 95 101.486 95 169.919C95 246.73 157.547 308.998 234.702 308.998C301.278 308.998 356.976 262.637 371 200.575Z" fill="#F8991D"/>
<mask id="mask0_680_5782" style="mask-type:alpha" maskUnits="userSpaceOnUse" x="95" y="33" width="276" height="276">
<path fill-rule="evenodd" clip-rule="evenodd" d="M371 200.577C370.988 200.589 370.976 200.602 370.965 200.615C349.386 224.128 318.092 238.916 283.271 238.916C218.171 238.916 165.397 187.229 165.397 123.469C165.397 86.8215 182.832 54.1619 210.022 33.0134C210.027 33.0096 210.032 33.0058 210.037 33.002C144.645 44.5991 95 101.488 95 169.921C95 246.732 157.547 309 234.702 309C301.278 309 356.976 262.639 371 200.577Z" fill="#F9AF4D"/>
</mask>
<g mask="url(#mask0_680_5782)">
<path fill-rule="evenodd" clip-rule="evenodd" d="M401.158 182.198C401.147 182.21 401.136 182.222 401.124 182.235C380.443 204.771 350.448 218.945 317.073 218.945C254.677 218.945 204.095 169.405 204.095 108.293C204.095 73.1677 220.807 41.8647 246.867 21.5947C246.872 21.5908 246.877 21.5869 246.882 21.583C184.206 32.6981 136.623 87.2242 136.623 152.815C136.623 226.436 196.571 286.117 270.522 286.117C334.332 286.117 387.716 241.682 401.158 182.198Z" fill="#F9AF4D"/>
</g>
<path d="M282.35 40.6357L305.076 83.0311L353.062 91.2035L319.12 125.578L326.053 173.024L282.35 151.873L238.648 173.024L245.58 125.578L211.639 91.2035L259.625 83.0311L282.35 40.6357Z" fill="#F8991D"/>
<mask id="mask1_680_5782" style="mask-type:alpha" maskUnits="userSpaceOnUse" x="251" y="39" width="103" height="96">
<path d="M353.961 90.8438C337.026 114.284 342.006 105.805 325.069 134.491C287.092 137.269 254.044 108.768 251.254 70.8327C266.259 63.3879 272.735 56.9048 282.198 39.9479C303.632 73.3732 306.125 82.8513 353.961 90.8438Z" fill="#D9D9D9"/>
</mask>
<g mask="url(#mask1_680_5782)">
<path d="M282.35 40.6357L305.076 83.0311L353.062 91.2035L319.12 125.578L326.053 173.024L282.35 151.873L238.648 173.024L245.58 125.578L211.639 91.2035L259.625 83.0311L282.35 40.6357Z" fill="#F9AF4D"/>
</g>
<path d="M163.603 356.878C143.289 350.535 92.3181 327.05 69.3716 316.1C71.8167 282.874 79.8668 216.081 92.5062 214.721C108.305 213.022 126.926 214.721 148.368 218.686C169.81 222.651 190.687 240.208 193.508 240.208C196.33 240.208 205.358 241.907 222.286 244.739C239.213 247.57 258.962 257.199 258.962 270.791C258.962 284.384 248.806 288.915 233.007 291.18C220.367 292.993 181.471 287.782 163.603 284.95C165.484 286.083 175.114 290.84 198.587 300.808C227.928 313.268 246.549 304.773 260.655 300.808C274.762 296.844 304.103 283.251 327.802 274.19C351.501 265.128 372.378 271.924 378.585 283.251C383.551 292.313 374.259 301.375 368.993 304.773C350.56 316.1 304.216 342.379 266.298 356.878C218.9 375.002 188.994 364.807 163.603 356.878Z" fill="#F0B290"/>
<mask id="mask2_680_5782" style="mask-type:alpha" maskUnits="userSpaceOnUse" x="69" y="214" width="311" height="153">
<path d="M163.603 356.878C143.289 350.535 92.3181 327.05 69.3716 316.1C71.8167 282.874 79.8668 216.081 92.5062 214.721C108.305 213.022 126.926 214.721 148.368 218.686C169.81 222.651 190.687 240.208 193.508 240.208C196.33 240.208 205.358 241.907 222.286 244.739C239.213 247.57 258.962 257.199 258.962 270.791C258.962 284.384 248.806 288.915 233.007 291.18C220.367 292.993 181.471 287.782 163.603 284.95C165.484 286.083 175.114 290.84 198.587 300.808C227.928 313.268 246.549 304.773 260.655 300.808C274.762 296.844 304.103 283.251 327.802 274.19C351.501 265.128 372.378 271.924 378.585 283.251C383.551 292.313 374.259 301.375 368.993 304.773C350.56 316.1 304.216 342.379 266.298 356.878C218.9 375.002 188.994 364.807 163.603 356.878Z" fill="#FFD2B8"/>
</mask>
<g mask="url(#mask2_680_5782)">
<path d="M163.603 345.551C145.764 339.981 111.103 319.86 87.3819 307.624C81.8882 304.791 78.5189 298.99 78.8373 292.817C80.6303 258.053 81.0654 204.625 92.5062 203.394C108.305 201.695 126.926 203.394 148.368 207.359C169.81 211.323 190.687 228.881 193.508 228.881C196.33 228.881 205.358 230.58 222.286 233.411C239.213 236.243 258.962 245.871 258.962 259.464C258.962 263.253 260.614 265.017 262.654 265.641C263.961 265.149 265.539 264.759 267.1 264.438C262.569 264.153 259.502 263.568 264.42 262.862C269.485 262.136 270.742 262.923 270.111 263.88C272.654 263.444 274.517 263.166 274.013 262.862C283.797 264.413 276.2 264.809 269.398 264.552C267.973 265.535 265.046 266.372 262.654 265.641C258.406 267.24 257.017 269.908 268.37 274.729C276.442 278.157 278.421 281.115 277.343 283.52C292.239 277.601 311.376 269.143 327.802 262.862C351.501 253.801 367.68 266.8 373.886 278.127C378.852 287.189 370.689 293.419 365.422 296.817C346.99 308.144 304.216 331.052 266.298 345.551C218.9 363.675 188.994 353.48 163.603 345.551Z" fill="#FFD2B8"/>
</g>
<path d="M20 188.233V317.399C20 331.864 25.1429 331.864 27.4334 331.864H58.6673C64.9141 331.864 67.5913 325.085 68.149 321.696C77.8167 287.8 97.5982 218.425 99.3829 212.098C101.614 204.189 99.3829 193.455 93.2477 191.196C87.1125 188.936 57.5519 181.591 37.473 181.026C21.4098 180.574 20 185.65 20 188.233Z" fill="#00417D"/>
<mask id="mask3_680_5782" style="mask-type:alpha" maskUnits="userSpaceOnUse" x="20" y="181" width="81" height="151">
<path d="M20.1828 188.936V249.949V317.742C20.1828 328.137 25.0166 331.489 27.4335 331.865H58.6674C64.9142 331.865 67.5913 325.086 68.1491 321.696C77.8167 287.8 97.5982 218.426 99.383 212.099C101.614 204.19 99.383 193.456 93.2478 191.196C87.1125 188.937 57.5519 181.592 37.473 181.027C21.4099 180.575 19.2532 186.111 20.1828 188.936Z" fill="#04549F"/>
</mask>
<g mask="url(#mask3_680_5782)">
<path d="M33.3934 187.346V249.706C33.3934 268.376 33.3716 307.808 33.3716 318.432C33.3716 329.057 38.3339 333.045 40.8041 333.43H72.7274C79.1121 333.43 81.8483 326.501 82.4184 323.037C92.2994 288.393 112.518 217.487 114.342 211.02C116.622 202.937 114.342 191.966 108.071 189.656C101.8 187.347 71.5874 179.84 51.0653 179.263C34.6476 178.801 33.3716 184.1 33.3934 187.346Z" fill="#04549F"/>
</g>
</svg>
