<svg xmlns="http://www.w3.org/2000/svg" xmlns:xlink="http://www.w3.org/1999/xlink" id="Layer_1" data-name="Layer 1" viewBox="0 0 344.07 344.07"><defs><style>      .cls-1 {        fill: #d5d6db;      }      .cls-2 {        fill: #e29817;      }      .cls-3 {        fill: #64798a;      }      .cls-4 {        fill: #102c52;      }      .cls-5 {        fill: #e6e6e6;      }      .cls-6 {        fill: #100d0d;      }      .cls-7 {        fill: #e3a135;      }      .cls-8 {        fill: #f5b42f;      }      .cls-9 {        clip-path: url(#clippath);      }      .cls-10 {        fill: #3a556a;      }      .cls-11 {        fill: none;      }      .cls-12 {        fill: #999;      }      .cls-13 {        fill: #ebf0f3;      }      .cls-14 {        fill: #2f4859;      }    </style><clipPath id="clippath"><circle class="cls-11" cx="172.5" cy="172" r="172"></circle></clipPath></defs><circle class="cls-4" cx="172.5" cy="172" r="172"></circle><g class="cls-9"><g><path class="cls-8" d="m270.14,108.58h-26.73c-11.99-45.45-60-75.69-114.18-75.69-58.27,0-103.15,37.28-109.13,88.55-15.22,2.66-37.53,19.44-37.53,43.42v28.56h303.17v-29.71h20.07v-25.21c0-17.85-16.07-30.25-35.65-29.92Z"></path><rect class="cls-2" x="-17.44" y="162.97" width="322.81" height="30.45"></rect><path class="cls-1" d="m45.2,117.05c0-29.8,37.6-66.46,83.97-66.46s83.97,36.66,83.97,66.46H45.2Z"></path><path class="cls-13" d="m213.15,117.05c0-29.8-37.6-66.46-83.97-66.46v66.46h83.97Z"></path><ellipse class="cls-14" cx="62.34" cy="193.4" rx="36.88" ry="33.6"></ellipse><ellipse class="cls-1" cx="62.34" cy="193.4" rx="23.96" ry="21.83"></ellipse><ellipse class="cls-10" cx="62.34" cy="193.4" rx="10.34" ry="9.42"></ellipse><rect class="cls-3" x="129.19" y="122.2" width="34.28" height="10.66"></rect><rect class="cls-10" x="129.19" y="122.18" width="34.28" height="4.17"></rect><rect class="cls-3" x="45.21" y="122.2" width="34.28" height="10.66"></rect><rect class="cls-10" x="45.21" y="122.18" width="34.28" height="4.17"></rect><path class="cls-1" d="m287.37,111.57v26.56l18.42.37s1.74-17.59-18.42-26.93Z"></path><ellipse class="cls-14" cx="257.01" cy="193.4" rx="36.88" ry="33.6"></ellipse><ellipse class="cls-1" cx="257.01" cy="193.4" rx="23.96" ry="21.83"></ellipse><ellipse class="cls-10" cx="257.01" cy="193.4" rx="10.34" ry="9.42"></ellipse></g><g><rect class="cls-12" x="138.82" y="135.2" width="215.82" height="131.29" transform="translate(-.98 1.21) rotate(-.28)"></rect><rect class="cls-6" x="138.82" y="162.06" width="215.82" height="77.56" transform="translate(-.98 1.21) rotate(-.28)"></rect><rect class="cls-5" x="281.43" y="140.77" width="65.64" height="15.29" rx="5.45" ry="5.45" transform="translate(-.72 1.54) rotate(-.28)"></rect><g><path class="cls-7" d="m265.77,195.86c.05,9.75-7.31,17.82-16.8,18.85-.65.07-1.32.11-1.99.12-10.42.05-18.92-8.36-18.97-18.79-.03-5.58,2.37-10.61,6.2-14.08,3.32-3.02,7.73-4.86,12.58-4.89,10.42-.05,18.92,8.36,18.97,18.79Z"></path><path class="cls-7" d="m243.66,214.74c-3.32,3.02-7.73,4.86-12.58,4.89-10.42.05-18.92-8.36-18.97-18.79-.05-9.75,7.31-17.82,16.8-18.85-3.83,3.48-6.23,8.5-6.2,14.08.05,10.42,8.55,18.84,18.97,18.79.67,0,1.33-.04,1.99-.12Z"></path><path class="cls-7" d="m249.93,214.71c3.35,2.99,7.78,4.79,12.63,4.76,10.42-.05,18.84-8.55,18.79-18.97-.05-9.75-7.48-17.74-16.98-18.69,3.86,3.44,6.31,8.44,6.34,14.02.05,10.42-8.36,18.92-18.79,18.97-.67,0-1.33-.03-1.99-.1Z"></path><path class="cls-7" d="m225.16,214.93s11.76-7.14,22.42-.11c0,0,9.4-7.13,19.48,2.26l1.8,7.07s-14.2-7.6-21.83.11c0,0-13.61-8.19-24.19.12l2.31-9.45Z"></path></g><rect class="cls-7" x="162.45" y="248.11" width="169.06" height="8.99" transform="translate(-1.23 1.21) rotate(-.28)"></rect></g></g></svg>