<svg xmlns="http://www.w3.org/2000/svg" xmlns:xlink="http://www.w3.org/1999/xlink" id="Layer_1" data-name="Layer 1" viewBox="0 0 344.07 344.07"><defs><style>      .cls-1 {        fill: #e29817;      }      .cls-2 {        fill: #331244;      }      .cls-3 {        fill: #d2e2e0;      }      .cls-4 {        fill: #fff;        opacity: .5;      }      .cls-4, .cls-5 {        isolation: isolate;      }      .cls-6 {        fill: #102c52;      }      .cls-7 {        fill: #e6e6e6;      }      .cls-8 {        fill: #100d0d;      }      .cls-9 {        fill: #e3a135;      }      .cls-10 {        fill: #f5b42f;      }      .cls-11 {        clip-path: url(#clippath);      }      .cls-12 {        fill: none;      }      .cls-13 {        fill: #0c0211;      }      .cls-14 {        fill: #999;      }      .cls-5 {        opacity: .1;      }      .cls-15 {        fill: #8d9c9b;      }    </style><clipPath id="clippath"><circle class="cls-12" cx="172" cy="172" r="172"></circle></clipPath></defs><circle class="cls-6" cx="172.5" cy="172" r="172"></circle><g class="cls-11"><g><path class="cls-15" d="m209.97,216.94c-20.14,0-36.53-16.39-36.53-36.53,0-1.77,1.09-3.36,2.73-4l55.93-21.84c1.65-.64,3.52-.21,4.72,1.09,6.23,6.76,9.67,15.55,9.67,24.75,0,20.14-16.39,36.53-36.53,36.53h0Z"></path><path class="cls-3" d="m209.97,200.82c-11.26,0-20.41-9.16-20.41-20.41s9.16-20.41,20.41-20.41,20.41,9.16,20.41,20.41-9.16,20.41-20.41,20.41Z"></path><path class="cls-5" d="m236.84,155.66c-1.13-1.23-2.86-1.67-4.44-1.18-.08.02-.17.04-.28.09l-9.17,3.58-46.77,18.26c-1.65.64-2.73,2.23-2.73,4,0,4.2.72,8.38,2.15,12.33.31,0,.62,0,.93.01,6.11,0,17.38-1.26,24.25-9.72,5.69-7.01,13.61-10.62,24.15-11.02-1.2,17.27-15.62,30.96-33.19,30.96-4.15,0-8.27-.78-12.14-2.3,6.56,9.8,17.72,16.27,30.38,16.27,20.14,0,36.53-16.39,36.53-36.53,0-9.2-3.43-17.99-9.66-24.75h0Z"></path><path class="cls-1" d="m177.22,159.06c-2.02,0-3.77-1.41-4.2-3.38l-16.65-76.28c-.51-2.31.96-4.6,3.27-5.11l9.12-2.02c2.02-.45,4.07.61,4.88,2.51l27.41,64.33c.8,1.87.18,4.03-1.48,5.2l-19.87,13.97c-.72.51-1.59.78-2.47.78h0Z"></path><path class="cls-15" d="m147.66,60.09c-2.37,0-4.3-1.92-4.3-4.3h0V21.41c0-2.37,1.93-4.3,4.3-4.29,2.37,0,4.29,1.92,4.29,4.29v34.38c0,2.37-1.92,4.3-4.3,4.3h0Z"></path><path class="cls-3" d="m131.55,39.95c-5.33,0-9.67-4.34-9.67-9.67v-10.74c0-5.33,4.34-9.67,9.67-9.67.14,0,10.98,1.08,10.98,1.08,5.22.13,9.42,4.42,9.42,9.67v8.59c0,5.25-4.21,9.54-9.42,9.67,0,0-10.84,1.08-10.98,1.08Z"></path><path class="cls-10" d="m135.84,186.84H47.74c-.42,0-.84-.06-1.25-.18l-58.47-17.73h-22.97c-2.37,0-4.3-1.92-4.3-4.3,0-.08,0-.16,0-.24,1.05-18.89,5.8-31.94,15.89-43.62,12.62-14.62,30.18-22.51,52.2-22.51h70.63c2.14,0,3.96,2.06,4.25,4.18.56,3.99-.37,12.33-7.91,15.34-9.37,3.73-9.23,17.75-9.11,20.52.55,12.36,9.79,21.68,21.49,21.68h27.64c10.46,0,18.15-10.04,21.14-19.98,5.08-16.92,5.07-37.35-.03-54.66-3.52-11.96-12.45-19.9-16.81-19.9-2.37,0-4.3-1.92-4.3-4.3h0v-7.52c0-2.37,1.92-4.3,4.3-4.3h0c15.41,0,31.5,15.18,37.43,35.31,6.32,21.46,6.32,45.85,0,66.91-6.34,21.11-23.1,35.29-41.72,35.29h0Z"></path><path class="cls-2" d="m114.99,74.4c-4.85,0-9.12-3.27-10.37-7.96-1.53-5.72,1.87-11.63,7.6-13.16l18.67-5c.91-.24,1.84-.37,2.78-.37,4.85,0,9.12,3.28,10.37,7.96.75,2.75.36,5.69-1.07,8.15-1.42,2.47-3.77,4.28-6.52,5.01l-18.67,5c-.91.24-1.84.37-2.78.37h0Zm-13.59,32.45H15.46c-5.33,0-9.67-4.34-9.67-9.67v-6.45c0-5.33,4.34-9.67,9.67-9.67h85.94c5.33,0,9.67,4.34,9.67,9.67v6.45c0,5.33-4.34,9.67-9.67,9.67Z"></path><path class="cls-13" d="m101.4,81.06h-1.14c.04.35.06,7.52.06,7.52,0,5.33-4.34,9.67-9.67,9.67H5.86c.54,4.83,4.64,8.59,9.61,8.59h85.94c5.33,0,9.67-4.34,9.67-9.67v-6.45c0-5.33-4.34-9.67-9.67-9.67h0Zm42.65-25.19c-.69-2.58-2.33-4.82-4.58-6.26.11.29.2.59.28.89.75,2.75.36,5.69-1.07,8.15-1.42,2.47-3.77,4.28-6.52,5.01l-18.67,5c-2.92.79-6.04.3-8.58-1.34,1.53,4.21,5.55,7.08,10.09,7.08.94,0,1.87-.12,2.78-.37l18.67-5c2.76-.73,5.11-2.53,6.52-5.01,1.43-2.47,1.82-5.4,1.07-8.15h0Z"></path><path class="cls-5" d="m147.63,12.57c-2.91,11.51-12.96,20.17-25.16,21,1.35,3.72,4.91,6.39,9.08,6.39.14,0,10.98-1.08,10.98-1.08,5.22-.13,9.42-4.42,9.42-9.67v-8.59c0-3.36-1.72-6.31-4.33-8.05Z"></path><path class="cls-1" d="m-16.16,104.9c.33,1.14.52,2.34.52,3.59,0,7.11-5.78,12.89-12.89,12.89h-8.59v2.15c0,2.37,1.92,4.3,4.3,4.3h8.59c7.11,0,12.89-5.78,12.89-12.89,0-4.05-1.88-7.67-4.82-10.03h0Zm193.72-20.26c-3.38-11.48-10.06-21.34-18.04-27.7,4.57,5.65,8.27,12.56,10.52,20.18,6.32,21.46,6.32,45.85,0,66.91-6.34,21.11-23.1,35.29-41.72,35.29H48.3v7.52h87.54c18.62,0,35.38-14.18,41.72-35.29,6.32-21.06,6.33-45.45,0-66.91Z"></path><path class="cls-15" d="m15.53,216.94c-20.14,0-36.53-16.39-36.53-36.53,0-6.49,1.72-12.86,4.98-18.43l1.24-2.13h60.77l1.24,2.16c3.1,5.42,4.81,11.95,4.81,18.4,0,20.14-16.39,36.53-36.53,36.53h0Z"></path><path class="cls-3" d="m15.53,200.82c-11.26,0-20.41-9.16-20.41-20.41s9.16-20.41,20.41-20.41,20.41,9.16,20.41,20.41-9.16,20.41-20.41,20.41Z"></path><path class="cls-10" d="m169,187.38c-2.38,0-3.94-.19-4.11-.21-2.07-.26-3.65-1.97-3.75-4.05-.93-18.63,8.51-35.99,24.66-45.31,7.51-4.34,16.04-6.63,24.67-6.63,12.37,0,24.2,4.57,33.32,12.87,1.01.92,1.53,2.27,1.38,3.64-.71,6.55-6.39,18.95-22.83,18.95-.35,0-2.32-.05-2.95-.05-11.54,0-20.09,3.62-26.13,11.06-6.87,8.46-18.14,9.72-24.25,9.72h0Z"></path><path class="cls-4" d="m178.8,168.86c-2.37,0-4.3-1.93-4.3-4.3,0-.53.1-1.05.29-1.54,5.38-14.01,19.09-23.43,34.11-23.43,5.51,0,10.8,1.2,15.73,3.55,2.14,1.02,3.05,3.59,2.02,5.73,0,0,0,0,0,0-1.02,2.14-3.58,3.05-5.72,2.03,0,0,0,0,0,0-3.77-1.8-7.81-2.71-12.03-2.71-11.49,0-21.97,7.2-26.08,17.92-.64,1.66-2.23,2.76-4.01,2.76h0Z"></path><path class="cls-10" d="m190.37,84.83h-8.58c-11.26,0-20.41-9.16-20.41-20.41s9.16-20.41,20.41-20.41h8.58c2.37,0,4.3,1.92,4.3,4.3h0v32.23c0,2.37-1.92,4.3-4.3,4.3h0Z"></path><path class="cls-1" d="m190.37,44v26.18c0,2.15-1.92,3.9-4.3,3.9h-8.58c-6.43,0-12.17-2.72-15.91-6.95,1.33,9.97,9.88,17.7,20.21,17.7h8.58c2.37,0,4.3-1.92,4.3-4.3h0v-32.23c0-2.37-1.92-4.3-4.3-4.3h0Z"></path><path class="cls-5" d="m47.24,162.01l-1.24-2.16H-14.77l-1.24,2.13c-2.16,3.7-3.64,7.75-4.39,11.95H31.69c-2.67,15.25-16,26.89-32,26.89-6.11,0-12.09-1.72-17.25-4.98,5.83,12.45,18.47,21.09,33.09,21.09,20.14,0,36.53-16.39,36.53-36.53,0-6.44-1.71-12.98-4.81-18.4Z"></path><path class="cls-10" d="m71,168.56H-22.08c-2.37,0-4.3-1.92-4.3-4.3,0-.08,0-.16,0-.24,1.34-24.17,16.97-52.4,55.48-52.4h0c27.82.29,47.65,18.1,47.65,43.31,0,4.61-.64,7.16-1.62,10.53-.53,1.83-2.22,3.09-4.13,3.09Z"></path><path class="cls-1" d="m29.21,111.63c15.93,6.76,26.06,20.99,26.06,39.01,0,4.61-.64,7.16-1.62,10.53-.53,1.83-2.22,3.1-4.13,3.1H-26.36c0,1.09.4,2.15,1.16,2.95.81.86,1.94,1.34,3.12,1.34h93.08c1.91,0,3.59-1.26,4.13-3.1.98-3.37,1.62-5.92,1.62-10.53,0-25.18-19.78-42.97-47.54-43.3h0Z"></path><path class="cls-1" d="m243.78,144.06c-2.54-2.31-5.32-4.35-8.29-6.09,0,.02,0,.04,0,.05-.71,6.55-6.39,18.95-22.83,18.95-.35,0-2.32-.05-2.95-.05-11.54,0-20.09,3.62-26.13,11.06-6.23,7.67-16.06,9.42-22.39,9.68-.11,1.8-.14,3.62-.05,5.45.1,2.08,1.69,3.79,3.75,4.05.17.02,1.73.21,4.11.21,6.11,0,17.38-1.26,24.25-9.72,6.04-7.44,14.59-11.06,26.13-11.06.62,0,2.59.05,2.95.05,16.44,0,22.12-12.4,22.83-18.95.15-1.36-.36-2.72-1.38-3.64h0Z"></path></g><g><rect class="cls-14" x="139.82" y="128.2" width="215.82" height="131.29" transform="translate(-.94 1.21) rotate(-.28)"></rect><rect class="cls-8" x="139.82" y="155.06" width="215.82" height="77.56" transform="translate(-.94 1.21) rotate(-.28)"></rect><rect class="cls-7" x="282.43" y="133.77" width="65.64" height="15.29" rx="5.45" ry="5.45" transform="translate(-.69 1.54) rotate(-.28)"></rect><g><path class="cls-9" d="m266.77,188.86c.05,9.75-7.31,17.82-16.8,18.85-.65.07-1.32.11-1.99.12-10.42.05-18.92-8.36-18.97-18.79-.03-5.58,2.37-10.61,6.2-14.08,3.32-3.02,7.73-4.86,12.58-4.89,10.42-.05,18.92,8.36,18.97,18.79Z"></path><path class="cls-9" d="m244.66,207.74c-3.32,3.02-7.73,4.86-12.58,4.89-10.42.05-18.92-8.36-18.97-18.79-.05-9.75,7.31-17.82,16.8-18.85-3.83,3.48-6.23,8.5-6.2,14.08.05,10.42,8.55,18.84,18.97,18.79.67,0,1.33-.04,1.99-.12Z"></path><path class="cls-9" d="m250.93,207.71c3.35,2.99,7.78,4.79,12.63,4.76,10.42-.05,18.84-8.55,18.79-18.97-.05-9.75-7.48-17.74-16.98-18.69,3.86,3.44,6.31,8.44,6.34,14.02.05,10.42-8.36,18.92-18.79,18.97-.67,0-1.33-.03-1.99-.1Z"></path><path class="cls-9" d="m226.16,207.93s11.76-7.14,22.42-.11c0,0,9.4-7.13,19.48,2.26l1.8,7.07s-14.2-7.6-21.83.11c0,0-13.61-8.19-24.19.12l2.31-9.45Z"></path></g><rect class="cls-9" x="163.45" y="241.11" width="169.06" height="8.99" transform="translate(-1.2 1.21) rotate(-.28)"></rect></g></g></svg>