<svg width="48" height="48" viewBox="0 0 48 48" fill="none" xmlns="http://www.w3.org/2000/svg">
<path d="M23.8548 6.87146C29.0042 6.87146 33.1936 11.0607 33.1936 16.2102C33.1936 21.3596 29.0042 25.5489 23.8548 25.5489C18.7055 25.5489 14.5161 21.3596 14.5161 16.2102C14.5161 11.0607 18.7055 6.87146 23.8548 6.87146ZM23.8548 24.1679C28.2428 24.1679 31.8126 20.598 31.8126 16.2102C31.8126 11.8223 28.2428 8.25244 23.8548 8.25244C19.4669 8.25244 15.8971 11.8223 15.8971 16.2102C15.8971 20.598 19.4669 24.1679 23.8548 24.1679Z" fill="#F9991C"/>
<path d="M25.5786 14.5044C25.1847 14.1202 24.9677 13.6089 24.9677 13.065C24.9677 12.5211 25.1847 12.01 25.5786 11.6258C26.3891 10.8351 27.7078 10.8351 28.5182 11.6258C28.9121 12.01 29.129 12.5211 29.129 13.065C29.129 13.6089 28.912 14.1201 28.5182 14.5043C28.1129 14.8997 27.5806 15.0973 27.0483 15.0973C26.5162 15.0973 25.9839 14.8997 25.5786 14.5044ZM27.7492 13.0651C27.7492 12.8843 27.6768 12.7141 27.5453 12.5859C27.4084 12.4522 27.2284 12.3854 27.0485 12.3854C26.8685 12.3854 26.6885 12.4522 26.5515 12.5859C26.4201 12.7141 26.3477 12.8843 26.3477 13.065C26.3477 13.2457 26.4201 13.4159 26.5516 13.5442C26.8255 13.8115 27.2714 13.8116 27.5453 13.5442C27.6768 13.416 27.7492 13.2458 27.7492 13.0651Z" fill="#F9991C"/>
<path d="M22.1311 17.9301C22.525 18.3235 22.7419 18.8468 22.7419 19.4037C22.7419 19.9606 22.525 20.4839 22.1311 20.8773C21.7258 21.282 21.1936 21.4844 20.6613 21.4844C20.129 21.4844 19.5967 21.2821 19.1914 20.8773C18.7976 20.4839 18.5806 19.9606 18.5806 19.4038C18.5806 18.8469 18.7976 18.3236 19.1914 17.9302C20.0021 17.1207 21.3207 17.1207 22.1311 17.9301ZM20.1644 19.8943C20.4384 20.168 20.8843 20.1679 21.1583 19.8943C21.2897 19.763 21.3621 19.5888 21.3621 19.4037C21.3621 19.2187 21.2897 19.0444 21.1582 18.9132C21.0213 18.7763 20.8413 18.7079 20.6613 18.7079C20.4814 18.7079 20.3014 18.7763 20.1644 18.9132C20.033 19.0444 19.9606 19.2187 19.9606 19.4038C19.9606 19.5888 20.033 19.763 20.1644 19.8943Z" fill="#F9991C"/>
<path d="M19.6535 12.1073C19.9239 11.837 20.3635 11.8357 20.6355 12.1044L28.0533 19.4339C28.3252 19.7026 28.3265 20.1396 28.0561 20.4098C27.9205 20.5455 27.7422 20.6134 27.5637 20.6134C27.3867 20.6134 27.2096 20.5465 27.0741 20.4127L19.6564 13.0833C19.3845 12.8145 19.3832 12.3775 19.6535 12.1073Z" fill="#F9991C"/>
<path d="M34.3742 0.000488281C35.0583 0.000488281 35.6129 0.555078 35.6129 1.2392V10.0782C36.5985 11.9223 37.1613 14.025 37.1613 16.2586C37.1613 18.8134 36.4181 21.1925 35.153 23.2131L37.1621 25.2276C37.5892 24.8004 38.2818 24.8004 38.7089 25.2276L46.8108 33.3295C47.5781 34.096 48 35.1148 48 36.2002C48 38.4376 46.1791 40.2586 43.9409 40.2586C42.8578 40.2586 41.8382 39.8366 41.071 39.0702L35.6129 33.6113V46.7618C35.6129 47.4459 35.0583 48.0005 34.3742 48.0005H1.23871C0.554588 48.0005 0 47.4459 0 46.7618V1.2392C0 0.555076 0.554589 0.000488281 1.23871 0.000488281H34.3742ZM24 4.64565C17.5966 4.64565 12.3871 9.8552 12.3871 16.2586C12.3871 22.6619 17.5966 27.8715 24 27.8715C30.4034 27.8715 35.6129 22.6619 35.6129 16.2586C35.6129 9.8552 30.4034 4.64565 24 4.64565ZM34.248 24.4983C33.6534 25.2369 32.9814 25.9089 32.2436 26.5042L34.0645 28.3251L36.0674 26.3223L34.248 24.4983ZM42.1657 37.9747C42.6403 38.4493 43.2712 38.7102 43.9409 38.7102C45.3252 38.7102 46.4516 37.5845 46.4516 36.2002C46.4516 35.529 46.1907 34.8988 45.7161 34.425L38.3734 27.0816C38.1316 26.8397 37.7394 26.8397 37.4975 27.0816L34.823 29.7561C34.5811 29.998 34.5811 30.3901 34.823 30.632L42.1657 37.9747ZM1.54839 45.8327C1.54839 46.1748 1.82568 46.4521 2.16774 46.4521H33.4452C33.7872 46.4521 34.0645 46.1748 34.0645 45.8327V32.0629L32.9698 30.9682C32.5422 30.5407 32.5422 29.8474 32.9698 29.4198L30.9592 27.4093C28.937 28.6758 26.5564 29.4198 24 29.4198C16.7427 29.4198 10.8387 23.5158 10.8387 16.2586C10.8387 9.00126 16.7427 3.09726 24 3.09726C28.0351 3.09726 31.6483 4.92668 34.0645 7.79507V2.16823C34.0645 1.82617 33.7872 1.54888 33.4452 1.54888H2.16774C1.82568 1.54888 1.54839 1.82617 1.54839 2.16823V45.8327Z" fill="#04549F"/>
<path d="M35.7677 10.3747C35.0245 8.82629 34.1419 7.89726 33.7548 7.43275L33.9097 5.11017C33.9097 5.11017 33.7548 7.43275 34.8387 7.43275C35.9226 7.43275 35.7677 5.11017 35.7677 5.11017C35.9226 6.96823 36.511 11.9231 35.7677 10.3747Z" fill="white"/>
<path d="M35.7678 33.7553C35.7678 33.7553 34.3742 32.2844 34.0645 32.0521L33.9486 35.7519C33.8107 36.3288 33.9097 36.9926 33.9097 36.9926L33.9486 35.7519C34.0545 35.3086 34.3004 34.9166 34.8387 34.9166C35.7417 34.9166 35.8219 36.0197 35.799 36.6177C35.789 36.7378 35.7786 36.8627 35.7678 36.9926C35.7678 36.9926 35.7905 36.8401 35.799 36.6177C35.9319 35.0189 35.9838 34.2594 35.7678 33.7553Z" fill="white"/>
<path d="M7.74194 42.5811C7.74194 43.0087 8.08855 43.3553 8.51613 43.3553C8.9437 43.3553 9.29032 43.0087 9.29032 42.5811V28.6456C9.29032 27.3629 10.3302 26.3231 11.6129 26.3231C12.8956 26.3231 13.9355 27.3629 13.9355 28.6456V42.5811C13.9355 43.0087 14.2821 43.3553 14.7097 43.3553C15.1373 43.3553 15.4839 43.0087 15.4839 42.5811V31.7424C15.4839 30.4597 16.5237 29.4198 17.8065 29.4198C19.0892 29.4198 20.129 30.4597 20.129 31.7424V42.5811C20.129 43.0087 20.4757 43.3553 20.9032 43.3553C21.3308 43.3553 21.6774 43.0087 21.6774 42.5811V34.8392C21.6774 33.5565 22.7173 32.5166 24 32.5166C25.2827 32.5166 26.3226 33.5565 26.3226 34.8392V42.5811C26.3226 43.0087 26.6692 43.3553 27.0968 43.3553C27.5243 43.3553 27.871 43.0087 27.871 42.5811V37.936C27.871 36.6532 28.9108 35.6134 30.1935 35.6134C31.4763 35.6134 32.5161 36.6532 32.5161 37.936V42.4263C32.5161 43.7945 31.4069 44.9037 30.0387 44.9037H5.57419C4.20595 44.9037 3.09677 43.7945 3.09677 42.4263V25.5489C3.09677 24.2661 4.13663 23.2263 5.41935 23.2263C6.70208 23.2263 7.74194 24.2661 7.74194 25.5489V42.5811ZM29.4194 42.5811C29.4194 43.0087 29.766 43.3553 30.1935 43.3553C30.6211 43.3553 30.9677 43.0087 30.9677 42.5811V37.936C30.9677 37.5084 30.6211 37.1618 30.1935 37.1618C29.766 37.1618 29.4194 37.5084 29.4194 37.936V42.5811ZM12.3871 28.6456C12.3871 28.2181 12.0405 27.8715 11.6129 27.8715C11.1853 27.8715 10.8387 28.2181 10.8387 28.6456V42.5811C10.8387 43.0087 11.1853 43.3553 11.6129 43.3553C12.0405 43.3553 12.3871 43.0087 12.3871 42.5811V28.6456ZM18.5806 31.7424C18.5806 31.3148 18.234 30.9682 17.8065 30.9682C17.3789 30.9682 17.0323 31.3148 17.0323 31.7424V42.5811C17.0323 43.0087 17.3789 43.3553 17.8065 43.3553C18.234 43.3553 18.5806 43.0087 18.5806 42.5811V31.7424ZM24.7742 34.8392C24.7742 34.4116 24.4276 34.065 24 34.065C23.5724 34.065 23.2258 34.4116 23.2258 34.8392V42.5811C23.2258 43.0087 23.5724 43.3553 24 43.3553C24.4276 43.3553 24.7742 43.0087 24.7742 42.5811V34.8392ZM6.19355 25.5489C6.19355 25.1213 5.84693 24.7747 5.41935 24.7747C4.99178 24.7747 4.64516 25.1213 4.64516 25.5489V42.5811C4.64516 43.0087 4.99178 43.3553 5.41935 43.3553C5.84693 43.3553 6.19355 43.0087 6.19355 42.5811V25.5489Z" fill="#F9991C"/>
<path d="M15.4839 3.87146C15.4839 3.44388 15.1373 3.09726 14.7097 3.09726C14.2821 3.09726 13.9355 3.44388 13.9355 3.87146C13.9355 4.29903 14.2821 4.64565 14.7097 4.64565C15.1373 4.64565 15.4839 4.29903 15.4839 3.87146Z" fill="#04549F"/>
<path d="M12.3871 3.87146C12.3871 3.44388 12.0405 3.09726 11.6129 3.09726H3.87097C3.44339 3.09726 3.09677 3.44388 3.09677 3.87146C3.09677 4.29903 3.44339 4.64565 3.87097 4.64565H11.6129C12.0405 4.64565 12.3871 4.29903 12.3871 3.87146Z" fill="#04549F"/>
<path d="M9.29032 6.96823C9.29032 6.54066 8.9437 6.19404 8.51613 6.19404H3.87097C3.44339 6.19404 3.09677 6.54066 3.09677 6.96823C3.09677 7.39581 3.44339 7.74242 3.87097 7.74242H8.51613C8.9437 7.74242 9.29032 7.39581 9.29032 6.96823Z" fill="#04549F"/>
<path d="M9.29032 10.065C9.29032 9.63743 8.9437 9.29081 8.51613 9.29081H3.87097C3.44339 9.29081 3.09677 9.63743 3.09677 10.065C3.09677 10.4926 3.44339 10.8392 3.87097 10.8392H8.51613C8.9437 10.8392 9.29032 10.4926 9.29032 10.065Z" fill="#04549F"/>
<path d="M9.29032 13.1618C9.29032 12.7342 8.9437 12.3876 8.51613 12.3876H3.87097C3.44339 12.3876 3.09677 12.7342 3.09677 13.1618C3.09677 13.5894 3.44339 13.936 3.87097 13.936H8.51613C8.9437 13.936 9.29032 13.5894 9.29032 13.1618Z" fill="#04549F"/>
<path d="M9.29032 16.2586C9.29032 15.831 8.9437 15.4844 8.51613 15.4844H3.87097C3.44339 15.4844 3.09677 15.831 3.09677 16.2586C3.09677 16.6861 3.44339 17.0327 3.87097 17.0327H8.51613C8.9437 17.0327 9.29032 16.6861 9.29032 16.2586Z" fill="#04549F"/>
<path d="M9.29032 19.3553C9.29032 18.9278 8.9437 18.5811 8.51613 18.5811H3.87097C3.44339 18.5811 3.09677 18.9278 3.09677 19.3553C3.09677 19.7829 3.44339 20.1295 3.87097 20.1295H8.51613C8.9437 20.1295 9.29032 19.7829 9.29032 19.3553Z" fill="#04549F"/>
</svg>
