<svg width="56" height="56" viewBox="0 0 56 56" fill="none" xmlns="http://www.w3.org/2000/svg">
<g clip-path="url(#clip0_25_236)">
<path fill-rule="evenodd" clip-rule="evenodd" d="M18.8748 8.83542C11.5778 8.83542 5.66243 14.7416 5.66243 22.0273C5.66243 29.3129 11.5778 35.2191 18.8748 35.2191C26.1718 35.2191 32.0872 29.3129 32.0872 22.0273C32.0872 14.7416 26.1718 8.83542 18.8748 8.83542ZM3.94653 22.0273C3.94653 13.7954 10.6301 7.12219 18.8748 7.12219C27.1194 7.12219 33.8031 13.7954 33.8031 22.0273C33.8031 30.2591 27.1194 36.9324 18.8748 36.9324C10.6301 36.9324 3.94653 30.2591 3.94653 22.0273Z" fill="#F9991C"/>
<path fill-rule="evenodd" clip-rule="evenodd" d="M13.727 15.3459C12.8741 15.3459 12.1827 16.0362 12.1827 16.8878C12.1827 17.7393 12.8741 18.4297 13.727 18.4297C14.5799 18.4297 15.2713 17.7393 15.2713 16.8878C15.2713 16.0362 14.5799 15.3459 13.727 15.3459ZM10.4668 16.8878C10.4668 15.09 11.9264 13.6326 13.727 13.6326C15.5275 13.6326 16.9872 15.09 16.9872 16.8878C16.9872 18.6855 15.5275 20.1429 13.727 20.1429C11.9264 20.1429 10.4668 18.6855 10.4668 16.8878Z" fill="#F9991C"/>
<path fill-rule="evenodd" clip-rule="evenodd" d="M24.1943 25.6251C23.3414 25.6251 22.65 26.3154 22.65 27.167C22.65 28.0186 23.3414 28.7089 24.1943 28.7089C25.0472 28.7089 25.7386 28.0186 25.7386 27.167C25.7386 26.3154 25.0472 25.6251 24.1943 25.6251ZM20.9341 27.167C20.9341 25.3693 22.3938 23.9119 24.1943 23.9119C25.9949 23.9119 27.4545 25.3693 27.4545 27.167C27.4545 28.9648 25.9949 30.4221 24.1943 30.4221C22.3938 30.4221 20.9341 28.9648 20.9341 27.167Z" fill="#F9991C"/>
<path fill-rule="evenodd" clip-rule="evenodd" d="M25.8302 15.0826C26.1653 15.4171 26.1653 15.9595 25.8302 16.294L13.1326 28.9719C12.7976 29.3065 12.2544 29.3065 11.9193 28.9719C11.5843 28.6374 11.5843 28.095 11.9193 27.7605L24.6169 15.0826C24.952 14.7481 25.4952 14.7481 25.8302 15.0826Z" fill="#F9991C"/>
<path fill-rule="evenodd" clip-rule="evenodd" d="M18.8748 4.89505C9.3982 4.89505 1.71589 12.5654 1.71589 22.0273C1.71589 31.4892 9.3982 39.1596 18.8748 39.1596C28.3514 39.1596 36.0337 31.4892 36.0337 22.0273C36.0337 12.5654 28.3514 4.89505 18.8748 4.89505ZM0 22.0273C0 11.6192 8.45054 3.18182 18.8748 3.18182C29.2991 3.18182 37.7496 11.6192 37.7496 22.0273C37.7496 32.4354 29.2991 40.8729 18.8748 40.8729C8.45054 40.8729 0 32.4354 0 22.0273Z" fill="#04549F"/>
<path fill-rule="evenodd" clip-rule="evenodd" d="M26.2534 5.83738C26.2534 5.36428 26.6375 4.98076 27.1113 4.98076H42.2969C44.287 4.98076 45.9003 6.59154 45.9003 8.57854V10.7201C45.9003 11.1932 45.5162 11.5767 45.0424 11.5767C44.5685 11.5767 44.1844 11.1932 44.1844 10.7201V8.57854C44.1844 7.53773 43.3394 6.69399 42.2969 6.69399H27.1113C26.6375 6.69399 26.2534 6.31047 26.2534 5.83738ZM45.0424 15.5171C45.5162 15.5171 45.9003 15.9006 45.9003 16.3737V30.4222C45.9003 30.7061 46.1308 30.9362 46.4151 30.9362H54.3221C55.7846 30.9362 56.5445 32.6765 55.5492 33.7464C55.5473 33.7484 55.5454 33.7504 55.5435 33.7524L37.9669 52.2831C37.2895 52.9972 36.1503 52.9965 35.4738 52.2816L24.3428 40.5189C24.0174 40.175 24.0328 39.6329 24.3772 39.308C24.7216 38.9831 25.2646 38.9985 25.5901 39.3423L36.721 51.105L54.2265 32.6494H46.4151C45.1831 32.6494 44.1844 31.6523 44.1844 30.4222V16.3737C44.1844 15.9006 44.5685 15.5171 45.0424 15.5171Z" fill="#04549F"/>
</g>
<defs>
<clipPath id="clip0_25_236">
<rect width="56" height="56" fill="white"/>
</clipPath>
</defs>
</svg>
