<svg width="32" height="32" viewBox="0 0 32 32" fill="none" xmlns="http://www.w3.org/2000/svg">
<g clip-path="url(#clip0_4183_9101)">
<circle cx="16" cy="16" r="16" fill="#FEF4E6"/>
<path d="M8 10.8007C8 9.52426 9.03472 8.48954 10.3111 8.48954H21.8667C23.1431 8.48954 24.1778 9.52426 24.1778 10.8007V22.3562C24.1778 23.6326 23.1431 24.6673 21.8667 24.6673H10.3111C9.03472 24.6673 8 23.6326 8 22.3562V10.8007Z" fill="#F7991E"/>
<path d="M8 10.8007C8 9.52426 9.03472 8.48954 10.3111 8.48954H21.8667C23.1431 8.48954 24.1778 9.52426 24.1778 10.8007V13.1118H8V10.8007Z" fill="white"/>
<path d="M11.4667 7.91176C11.4667 7.59266 11.7253 7.33398 12.0444 7.33398C12.3635 7.33398 12.6222 7.59266 12.6222 7.91176V10.2229C12.6222 10.542 12.3635 10.8007 12.0444 10.8007C11.7253 10.8007 11.4667 10.542 11.4667 10.2229V7.91176Z" fill="#F7991E"/>
<path d="M19.5556 7.91176C19.5556 7.59266 19.8142 7.33398 20.1333 7.33398C20.4524 7.33398 20.7111 7.59266 20.7111 7.91176V10.2229C20.7111 10.542 20.4524 10.8007 20.1333 10.8007C19.8142 10.8007 19.5556 10.542 19.5556 10.2229V7.91176Z" fill="#F7991E"/>
<path d="M12.6222 16.5847V15.5511H14.5533V21.3923H13.3994V16.5847H12.6222Z" fill="white"/>
<path d="M16.014 20.1263C16.5268 19.6989 16.9354 19.3437 17.2399 19.0606C17.5444 18.7721 17.7981 18.473 18.0011 18.1632C18.2041 17.8534 18.3056 17.5489 18.3056 17.2497C18.3056 16.9773 18.2415 16.7636 18.1133 16.6087C17.9851 16.4538 17.7874 16.3764 17.5204 16.3764C17.2533 16.3764 17.0476 16.4672 16.9034 16.6488C16.7592 16.8251 16.6844 17.0681 16.679 17.3779H15.5893C15.6107 16.7369 15.8003 16.2508 16.1582 15.9197C16.5215 15.5885 16.9808 15.4229 17.5364 15.4229C18.1453 15.4229 18.6127 15.5858 18.9386 15.9116C19.2644 16.2321 19.4274 16.6568 19.4274 17.1856C19.4274 17.6023 19.3152 18.0003 19.0908 18.3795C18.8665 18.7588 18.6101 19.09 18.3216 19.3731C18.0332 19.6509 17.6566 19.9874 17.1918 20.3827H19.5556V21.3121H15.5973V20.4788L16.014 20.1263Z" fill="white"/>
</g>
<defs>
<clipPath id="clip0_4183_9101">
<rect width="32" height="32" rx="16" fill="white"/>
</clipPath>
</defs>
</svg>
