<svg width="32" height="32" viewBox="0 0 32 32" fill="none" xmlns="http://www.w3.org/2000/svg">
<g clip-path="url(#clip0_4183_1217)">
<circle cx="16" cy="16" r="16" fill="#CBE8FF"/>
<path d="M23.2072 17.8043C22.943 17.8043 22.6932 17.6763 22.5285 17.4566L21.6142 16.2371C21.4916 16.0735 21.4248 15.8706 21.4248 15.6614C21.4248 15.1515 21.8135 14.738 22.2928 14.738H25.0912C24.6177 14.1107 23.9786 13.6365 23.2443 13.3892C20.847 12.5819 17.1311 12.3251 15.2817 12.245C14.5587 12.2137 13.8737 11.9022 13.3462 11.3752C11.3534 9.38483 9.2716 7.73506 7.88344 6.70632C6.87079 5.95585 5.66615 5.55469 4.43194 5.55469H-2.08734C-2.44956 6.03963 -2.78584 6.54743 -3.09517 7.07483C-3.40451 7.60222 -3.98807 8.60799 -3.98807 8.60799L-4.88096 10.1411L-6.66675 13.2075C-6.66675 13.9991 -6.33044 15.0648 -6.16548 15.8464C-5.66423 18.2214 -4.66172 20.8602 -3.67462 23.259H25.9529V17.8043H23.2072Z" fill="#319DF5"/>
<path d="M3.32272 18.8222V7.37065C3.32272 7.19683 3.27003 7.02654 3.16883 6.89011C2.64127 6.17896 3.1256 5.70955 3.27936 5.58691C3.08237 5.56625 2.88419 5.55472 2.685 5.55472L-2.08734 5.55469C-2.44956 6.03963 -2.78584 6.54743 -3.09517 7.07483C-3.40451 7.60222 -3.98807 8.60799 -3.98807 8.60799L-4.88096 10.1411L-6.66675 13.2075C-6.66675 13.9991 -6.33044 15.0648 -6.16548 15.8464C-5.66423 18.2214 -4.66172 20.8602 -3.67462 23.259L7.19809 23.2589C3.21476 23.2585 3.32272 18.8222 3.32272 18.8222Z" fill="#0C88ED"/>
<path d="M13.6055 21.8706C13.3099 21.8706 13.0703 21.6157 13.0703 21.3013V14.2615C13.0703 13.947 13.3099 13.6922 13.6055 13.6922C13.9012 13.6922 14.1408 13.947 14.1408 14.2615V21.3013C14.1408 21.6157 13.9012 21.8706 13.6055 21.8706Z" fill="#0C88ED"/>
<path d="M12.6316 12.7244C12.5415 12.6475 12.454 12.5667 12.3692 12.482C10.4417 10.5569 8.42224 8.95602 7.06754 7.95208C6.29148 7.37703 5.38014 7.07304 4.43196 7.07304H-3.09453C-4.19277 8.94502 -5.66424 11.3602 -6.66675 13.2075L12.4264 13.3485C12.4301 13.3485 12.4339 13.3485 12.4375 13.3484C12.7423 13.3433 12.8693 12.9274 12.6316 12.7244Z" fill="#363540"/>
<path d="M3.13816 7.11467C2.94104 7.08754 2.74142 7.07301 2.54004 7.07301L-3.09453 7.07304C-4.19277 8.94502 -5.66424 11.3602 -6.66675 13.2075L3.17776 13.3485V7.3706C3.17776 7.28309 3.16435 7.19658 3.13816 7.11467Z" fill="#21212B"/>
<path d="M18.1027 19.175C20.2196 19.175 21.9419 21.0071 21.9419 23.2589H23.4745C23.4745 20.1031 21.0695 17.5447 18.1027 17.5447C15.1359 17.5447 12.7308 20.1031 12.7308 23.2589H14.2635C14.2635 21.0071 15.9857 19.175 18.1027 19.175Z" fill="#0C88ED"/>
<path d="M16.3151 19.4449C16.3349 19.3152 16.2685 19.1879 16.1543 19.1377C15.7295 18.9508 15.7258 18.5331 15.7671 18.2844C15.7765 18.228 15.7686 18.1721 15.748 18.1223C13.9616 19.0506 12.7308 21.0016 12.7308 23.2589H14.2635C14.2635 21.7006 15.0885 20.3438 16.2981 19.6556C16.2988 19.5796 16.3056 19.5077 16.3151 19.4449Z" fill="#0F74D8"/>
<path d="M12.6316 12.7244C12.5415 12.6475 12.454 12.5667 12.3692 12.482C11.7591 11.8727 11.1399 11.2962 10.5356 10.7605C10.5367 10.7642 11.0832 12.5396 9.34853 13.3485H12.4264C12.4301 13.3485 12.4339 13.3485 12.4375 13.3484C12.7423 13.3433 12.8693 12.9274 12.6316 12.7244Z" fill="#21212B"/>
<path d="M1.71708 13.3485H3.33249V7.07302H1.71708V13.3485Z" fill="#5F5E6A"/>
<path d="M0.172991 13.3485H1.7884V7.07302H0.172991V13.3485Z" fill="#4B4A55"/>
<path d="M13.0521 11.9909H11.817C11.4786 11.9909 11.2018 12.2854 11.2018 12.6454V14.776C11.2018 15.136 11.4786 15.4304 11.817 15.4304H13.0521C13.8163 15.4304 14.4415 14.7654 14.4415 13.9525V13.4688C14.4415 12.656 13.8163 11.9909 13.0521 11.9909Z" fill="#EEEFEB"/>
<path d="M12.2878 13.9525V13.4688C12.2878 12.7703 12.7498 12.1812 13.3647 12.0294C13.2641 12.0045 13.1596 11.9909 13.0521 11.9909H11.817C11.4786 11.9909 11.2018 12.2854 11.2018 12.6454V14.776C11.2018 15.136 11.4786 15.4304 11.817 15.4304H13.0521C13.1596 15.4304 13.2641 15.4169 13.3647 15.392C12.7498 15.2401 12.2878 14.6511 12.2878 13.9525Z" fill="#D6D6D0"/>
<path d="M6.11332 15.9675H4.65029C4.35474 15.9675 4.11508 15.7126 4.11508 15.3982C4.11508 15.0837 4.35474 14.8288 4.65029 14.8288H6.11332C6.409 14.8288 6.6486 15.0837 6.6486 15.3982C6.6486 15.7126 6.409 15.9675 6.11332 15.9675Z" fill="#EEEFEB"/>
<path d="M-3.41536 15.9675H-4.87833C-5.17394 15.9675 -5.4136 15.7126 -5.4136 15.3982C-5.4136 15.0837 -5.17394 14.8288 -4.87833 14.8288H-3.41536C-3.11969 14.8288 -2.88009 15.0837 -2.88009 15.3982C-2.88009 15.7126 -3.11969 15.9675 -3.41536 15.9675Z" fill="#EEEFEB"/>
<path d="M25.6322 19.5264H25.2269C24.7889 19.5264 24.4304 19.9077 24.4304 20.3737V21.1843C24.4304 21.6503 24.7889 22.0316 25.2269 22.0316H25.6322C26.0702 22.0316 26.4287 21.6503 26.4287 21.1843V20.3737C26.4287 19.9077 26.0702 19.5264 25.6322 19.5264Z" fill="#FFC743"/>
<path d="M16.8895 15.6691H16.1045C15.8089 15.6691 15.5693 15.4141 15.5693 15.0997C15.5693 14.7853 15.8089 14.5304 16.1045 14.5304H16.8895C17.1852 14.5304 17.4248 14.7853 17.4248 15.0997C17.4248 15.4141 17.1852 15.6691 16.8895 15.6691Z" fill="#FFC743"/>
<path d="M14.2635 23.1831L-3.71228 23.183C-3.39142 23.8442 -3.02926 24.4789 -2.62964 25.0836H14.706C14.424 24.5155 14.2635 23.869 14.2635 23.1831Z" fill="#4B4A55"/>
<path d="M25.7732 23.183H21.942C21.942 23.869 21.7814 24.5155 21.4994 25.0836H25.7732C26.2666 25.0836 26.6666 24.6582 26.6666 24.1334C26.6666 23.6085 26.2666 23.183 25.7732 23.183Z" fill="#4B4A55"/>
<path d="M18.1027 27.7214C15.7896 27.7214 13.9077 25.7195 13.9077 23.259C13.9077 20.7984 15.7896 18.7966 18.1027 18.7966C20.4158 18.7966 22.2977 20.7984 22.2977 23.259C22.2977 25.7195 20.4158 27.7214 18.1027 27.7214Z" fill="#21212B"/>
<path d="M20.6737 26.7812C20.6702 26.7808 20.6671 26.7802 20.6636 26.7798C19.8289 26.6872 19.7408 26.1492 19.7647 25.8297C19.7746 25.6976 19.699 25.5783 19.5818 25.5341C19.1931 25.3874 19.1382 25.0587 19.1487 24.8423C19.1547 24.719 19.0809 24.6061 18.9713 24.5655C17.2622 23.9312 17.35 22.4231 17.4606 21.8228C17.4853 21.6885 17.4164 21.5573 17.298 21.5035C16.9495 21.345 16.9278 21.0065 16.9605 20.7754C16.9793 20.6423 16.9061 20.5171 16.7887 20.4673C16.2792 20.2508 16.269 19.7468 16.3151 19.4449C16.3262 19.3726 16.3097 19.3016 16.2738 19.2437C14.8745 19.9679 13.9077 21.4955 13.9077 23.259C13.9077 25.7195 15.7896 27.7214 18.1027 27.7214C19.0709 27.7214 19.963 27.3695 20.6737 26.7812Z" fill="black"/>
<path d="M18.1027 20.8892C16.8744 20.8892 15.8749 21.9523 15.8749 23.259C15.8749 24.5656 16.8744 25.6286 18.1027 25.6286C19.3311 25.6286 20.3305 24.5656 20.3305 23.259C20.3305 21.9523 19.3311 20.8892 18.1027 20.8892Z" fill="#D6D6D0"/>
<path d="M19.1487 24.8423C19.1547 24.719 19.0809 24.6061 18.9713 24.5655C17.2622 23.9312 17.35 22.4231 17.4606 21.8228C17.4853 21.6885 17.4164 21.5573 17.298 21.5035C17.139 21.4311 17.0485 21.3213 16.9997 21.2014C16.3285 21.6101 15.8749 22.379 15.8749 23.259C15.8749 24.5656 16.8744 25.6286 18.1027 25.6286C18.5247 25.6286 18.9198 25.5032 19.2565 25.2854C19.16 25.1393 19.1424 24.971 19.1487 24.8423Z" fill="#C6C6C1"/>
<path d="M18.1027 21.4586C17.1694 21.4586 16.4102 22.2662 16.4102 23.259C16.4102 24.2517 17.1694 25.0593 18.1027 25.0593C19.0359 25.0593 19.7953 24.2517 19.7953 23.259C19.7953 22.2662 19.0359 21.4586 18.1027 21.4586ZM18.1027 26.198C16.5792 26.198 15.3397 24.8796 15.3397 23.259C15.3397 21.6383 16.5792 20.3199 18.1027 20.3199C19.6262 20.3199 20.8658 21.6383 20.8658 23.259C20.8658 24.8796 19.6262 26.198 18.1027 26.198Z" fill="#EEEFEB"/>
<path d="M19.5818 25.5341C19.1931 25.3874 19.1382 25.0587 19.1487 24.8423C19.1512 24.7911 19.1393 24.7421 19.1174 24.699C18.8345 24.9251 18.483 25.0593 18.1027 25.0593C17.1694 25.0593 16.4102 24.2517 16.4102 23.259C16.4102 22.5246 16.8259 21.8919 17.42 21.6121C17.3909 21.5655 17.3495 21.5269 17.298 21.5035C16.9495 21.345 16.9278 21.0065 16.9605 20.7754C16.9694 20.7122 16.957 20.6511 16.9296 20.5987C15.9911 21.0689 15.3397 22.0843 15.3397 23.259C15.3397 24.8796 16.5792 26.198 18.1027 26.198C18.7046 26.198 19.2618 25.9916 19.7162 25.6426C19.684 25.5939 19.6378 25.5552 19.5818 25.5341Z" fill="#D6D6D0"/>
<path d="M25.0738 14.7149H22.2377C21.7511 14.7149 21.3566 15.1346 21.3566 15.6522C21.3566 15.8645 21.4244 16.0706 21.5488 16.2366L22.4769 17.4745C22.6441 17.6975 22.8976 17.8273 23.1658 17.8273H25.9529V17.3395C25.9529 16.7602 25.8388 16.1874 25.618 15.6578C25.4755 15.3159 25.2917 14.9995 25.0738 14.7149Z" fill="#D6D6D0"/>
<path d="M25.1087 14.7636C24.4055 14.9454 23.8833 15.6191 23.8833 16.4229C23.8833 17.0052 24.1573 17.5191 24.5754 17.8274L25.9529 17.8273V17.3395C25.9529 16.7602 25.8388 16.1874 25.618 15.6578C25.4834 15.3349 25.3109 15.0357 25.1087 14.7636Z" fill="#EEEFEB"/>
<path d="M6.34374 23.183H-3.71228C-3.39142 23.8442 -3.02926 24.4789 -2.62964 25.0836H6.34374C5.37789 24.0563 6.34374 23.183 6.34374 23.183Z" fill="#363540"/>
</g>
<defs>
<clipPath id="clip0_4183_1217">
<rect width="32" height="32" rx="16" fill="white"/>
</clipPath>
</defs>
</svg>
