<svg width="32" height="32" viewBox="0 0 32 32" fill="none" xmlns="http://www.w3.org/2000/svg">
<g clip-path="url(#clip0_4183_9076)">
<circle cx="16" cy="16" r="16" fill="#F4FDD8"/>
<path d="M6.66675 15.9993C6.66675 10.8447 10.8454 6.66602 16.0001 6.66602C21.1547 6.66602 25.3334 10.8447 25.3334 15.9993C25.3334 21.154 21.1547 25.3327 16.0001 25.3327C10.8454 25.3327 6.66675 21.154 6.66675 15.9993Z" fill="#506B04"/>
<path d="M14.0952 18.2429L12.9137 16.1563H12.4074V18.2429H11.3334V12.8882H13.3433C13.7576 12.8882 14.1105 12.9624 14.402 13.1107C14.6935 13.2539 14.9109 13.4508 15.0541 13.7014C15.2024 13.9469 15.2766 14.2231 15.2766 14.5299C15.2766 14.8828 15.1743 15.2025 14.9697 15.4889C14.7651 15.7702 14.4608 15.9645 14.0568 16.0719L15.3379 18.2429H14.0952ZM12.4074 15.3508H13.305C13.5965 15.3508 13.8139 15.2817 13.9571 15.1437C14.1003 15.0005 14.1719 14.8036 14.1719 14.553C14.1719 14.3075 14.1003 14.1182 13.9571 13.9853C13.8139 13.8472 13.5965 13.7781 13.305 13.7781H12.4074V15.3508Z" fill="white"/>
<path d="M17.322 14.6067C17.4601 14.4123 17.6493 14.2512 17.8897 14.1233C18.1352 13.9904 18.4139 13.9239 18.7259 13.9239C19.089 13.9239 19.4163 14.0134 19.7078 14.1924C20.0044 14.3714 20.2371 14.6271 20.4059 14.9595C20.5798 15.2869 20.6667 15.6679 20.6667 16.1026C20.6667 16.5373 20.5798 16.9234 20.4059 17.261C20.2371 17.5934 20.0044 17.8517 19.7078 18.0358C19.4163 18.2199 19.089 18.312 18.7259 18.312C18.4139 18.312 18.1377 18.2481 17.8973 18.1202C17.6621 17.9923 17.4703 17.8312 17.322 17.6369V20.2682H16.248V13.9929H17.322V14.6067ZM19.5697 16.1026C19.5697 15.8469 19.516 15.627 19.4086 15.4428C19.3063 15.2536 19.1682 15.1104 18.9944 15.0132C18.8256 14.9161 18.6415 14.8675 18.442 14.8675C18.2477 14.8675 18.0636 14.9186 17.8897 15.0209C17.7209 15.1181 17.5828 15.2613 17.4754 15.4505C17.3731 15.6397 17.322 15.8622 17.322 16.1179C17.322 16.3737 17.3731 16.5961 17.4754 16.7854C17.5828 16.9746 17.7209 17.1203 17.8897 17.2226C18.0636 17.3198 18.2477 17.3684 18.442 17.3684C18.6415 17.3684 18.8256 17.3172 18.9944 17.215C19.1682 17.1127 19.3063 16.9669 19.4086 16.7777C19.516 16.5885 19.5697 16.3634 19.5697 16.1026Z" fill="white"/>
</g>
<defs>
<clipPath id="clip0_4183_9076">
<rect width="32" height="32" rx="16" fill="white"/>
</clipPath>
</defs>
</svg>
