<?xml version="1.0" encoding="UTF-8"?>
<svg id="Layer_1" data-name="Layer 1" xmlns="http://www.w3.org/2000/svg" viewBox="0 0 3057.3 1800">
  <defs>
    <style>
      .cls-1 {
        fill: #5fc8f1;
      }

      .cls-1, .cls-2 {
        stroke-width: 0px;
      }

      .cls-2 {
        fill: #00558e;
      }
    </style>
  </defs>
  <path class="cls-1" d="M2249.58,1338.13c0-222.69,181.17-403.86,403.86-403.86,222.69,0,403.86,181.17,403.86,403.86,0,222.69-181.17,403.86-403.86,403.86-222.69,0-403.86-181.17-403.86-403.86ZM2310.89,1338.13c0,188.88,153.66,342.55,342.55,342.55,188.89,0,342.55-153.67,342.55-342.55,0-188.88-153.66-342.55-342.55-342.55-188.89,0-342.55,153.67-342.55,342.55Z"/>
  <path class="cls-1" d="M2342.83,1338.13c0-171.28,139.35-310.61,310.61-310.61,171.26,0,310.61,139.33,310.61,310.61,0,171.28-139.35,310.62-310.61,310.62-171.26,0-310.61-139.35-310.61-310.62ZM2404.14,1338.13c0,137.48,111.84,249.32,249.3,249.32s249.3-111.84,249.3-249.32c0-137.46-111.84-249.3-249.3-249.3-137.46,0-249.3,111.84-249.3,249.3Z"/>
  <path class="cls-1" d="M962.45,1281.87c2.37,0,4.76-.27,7.15-.84,16.46-3.92,26.61-20.46,22.69-36.93-43.5-182.42-205.06-309.83-392.84-309.83-67.32,0-133.99,16.91-192.78,48.91-14.85,8.1-20.36,26.72-12.24,41.58,8.05,14.88,26.64,20.37,41.58,12.27,49.81-27.12,106.33-41.46,163.45-41.46,159.29,0,296.33,108.04,333.21,262.74,3.35,14.09,15.92,23.55,29.78,23.55Z"/>
  <path class="cls-1" d="M599.45,1741.99c218.92,0,396.19-171.28,403.62-389.94.6-16.91-12.66-31.09-29.57-31.67-16.55-.69-31.1,12.68-31.67,29.61-6.32,185.44-156.68,330.7-342.37,330.7-188.86,0-342.52-153.67-342.52-342.55,0-66.29,18.95-130.58,54.75-185.9,9.22-14.2,5.15-33.19-9.04-42.39-14.22-9.22-33.2-5.17-42.39,9.07-42.3,65.26-64.63,141.07-64.63,219.21,0,222.69,181.17,403.86,403.83,403.86Z"/>
  <path class="cls-2" d="M793.85,1206.56c6.92,0,13.89-2.33,19.64-7.14,12.99-10.85,14.7-30.19,3.86-43.18-45.2-54.06-108.33-89.25-177.76-99.09-17.21-2.47-32.3,9.32-34.66,26.06-2.37,16.76,9.28,32.27,26.04,34.65,54.39,7.69,103.87,35.29,139.32,77.71,6.08,7.25,14.79,10.99,23.56,10.99Z"/>
  <path class="cls-1" d="M599.45,1621.93c154.29,0,281.57-125.44,283.79-279.65.24-16.93-13.29-30.85-30.21-31.09h-.45c-16.73,0-30.41,13.44-30.65,30.22-1.74,120.88-101.54,219.21-222.48,219.21-122.67,0-222.48-99.8-222.48-222.49,0-37.39,9.46-74.36,27.33-106.93,8.14-14.83,2.73-33.47-12.12-41.61-14.97-8.19-33.47-2.68-41.64,12.12-22.81,41.57-34.87,88.74-34.87,136.42,0,156.49,127.32,283.8,283.79,283.8Z"/>
  <path class="cls-2" d="M2493.56,1338.13c0-88.17,71.72-159.9,159.88-159.9,88.19,0,159.91,71.73,159.91,159.9,0,88.18-71.72,159.9-159.91,159.9-88.16,0-159.88-71.72-159.88-159.9ZM2554.86,1338.13c0,54.36,44.22,98.59,98.58,98.59,54.36,0,98.61-44.23,98.61-98.59,0-54.36-44.25-98.59-98.61-98.59-54.36,0-98.58,44.23-98.58,98.59Z"/>
  <path class="cls-2" d="M599.45,1467.37c71.28,0,129.26-57.98,129.26-129.25,0-14.31-2.31-28.33-6.88-41.68-5.51-16.02-22.87-24.53-38.95-19.09-16.01,5.49-24.55,22.92-19.07,38.93,2.39,6.96,3.59,14.31,3.59,21.84,0,37.47-30.47,67.94-67.95,67.94-37.45,0-67.92-30.47-67.92-67.94,0-20.43,9.07-39.57,24.88-52.55,13.08-10.73,14.97-30.06,4.25-43.14-10.75-13.11-30.03-15.01-43.17-4.25-30.03,24.65-47.27,61.08-47.27,99.94,0,71.26,57.98,129.25,129.23,129.25Z"/>
  <path class="cls-2" d="M2265.81,1115.01c10,0,19.79-4.86,25.65-13.84,80.38-122.5,215.68-195.63,361.98-195.63,34.3,0,68.49,4.03,101.57,11.97,16.4,3.97,33.02-6.18,36.97-22.63,3.95-16.46-6.2-33.02-22.66-36.97-37.75-9.09-76.73-13.68-115.88-13.68-167.01,0-321.51,83.48-413.23,223.32-9.28,14.14-5.36,33.15,8.8,42.43,5.18,3.41,11.02,5.03,16.8,5.03Z"/>
  <path class="cls-2" d="M2653.47,1368.78c5.51,0,11.04-1.47,16.07-4.56,14.4-8.9,18.86-27.79,9.97-42.19l-268.82-435.29c-8.89-14.43-27.78-18.86-42.18-9.98-14.4,8.9-18.86,27.79-9.97,42.19l268.82,435.29c5.78,9.39,15.84,14.55,26.1,14.55Z"/>
  <path class="cls-2" d="M2679.04,785.61l-615.26-172.8-218.62,20.45c-39.15,3.53-75.37-22.26-84.69-60.24-5.89-23.89-.54-48.71,14.64-68.07,15.18-19.37,38.02-30.48,62.63-30.48h201.91s3.56-20.07,3.56-20.07l-263.67-47.46c-12.93-2.34-22.93-12.6-24.88-25.57l-22.99-151.35c-1.44-9.34,1.53-18.82,8.02-25.67,6.46-6.85,15.78-10.33,25.18-9.46l148.24,14.12,137.7-114.46c10.27-8.53,24.79-9.42,35.98-2.34,13.74,8.68,337.88,214.19,486.03,360.44,155.96,153.93,145.57,299.89,145.04,306.03-.75,9.12-5.57,17.41-13.05,22.62-5.21,3.59-11.32,5.46-17.48,5.46-2.78,0-5.57-.37-8.29-1.14ZM2168.94,434.08c-4.91-.48-9.61-2.14-13.74-4.85l-242.74-158.7-114.3-10.88,13.8,90.82,272.23,49c16.65,3.01,27.72,18.92,24.76,35.56l-13.47,75.47c-2.61,14.62-15.33,25.26-30.18,25.26h-227.57c-7.72,0-12.33,4.39-14.37,7-2.07,2.61-5.21,8.1-3.38,15.61,2.12,8.71,9.97,14.71,19.46,13.83l224.31-20.99c3.65-.4,7.51-.02,11.14,1l578.98,162.62c-7.72-46.68-34.37-130.02-124.08-218.57-9.73-9.61-20.33-19.52-31.61-29.65l-329.23-32.55ZM1974.42,237.78l208.02,136.03,232.09,22.95c-128.69-101.5-287.98-206-341.77-240.73l-98.34,81.75Z"/>
  <path class="cls-2" d="M2471.28,726.07c6.38,0,12.84-1.99,18.35-6.12,13.56-10.15,16.31-29.37,6.13-42.91l-92.92-123.99,1.95-3.92h186.74c16.94,0,30.65-13.73,30.65-30.65,0-16.93-13.71-30.65-30.65-30.65h-186.74c-24.31,0-46.16,13.5-57.03,35.23-10.87,21.75-8.53,47.33,6.05,66.77l92.92,123.98c6.02,8.04,15.21,12.27,24.55,12.27Z"/>
  <path class="cls-2" d="M1482.25,1526.27h592c84.3,0,149.95-29.79,152.67-31.06,8.17-3.76,14.25-10.88,16.71-19.52,2.42-8.64.96-17.9-4.04-25.37l-90.13-134.77-26.94-168.37,338.9-301.04h130.13c5.72,0,11.31-1.58,16.16-4.6l95.79-59.39c14.37-8.92,18.8-27.82,9.88-42.21-8.92-14.39-27.78-18.82-42.21-9.91l-88.37,54.8h-133.03c-7.51,0-14.76,2.76-20.36,7.74l-360.18,319.95c-7.84,6.94-11.55,17.42-9.91,27.76l30.65,191.59c.69,4.36,2.33,8.52,4.79,12.2l71.9,107.5c-23.08,6.58-55.83,13.4-92.41,13.4h-587.99s-173.06-45.9-173.06-45.9l-86.21-123.38,99.84-62.4,206.07,47c9.82,2.22,20-.45,27.45-7.2l182.01-165.4c7.61-6.93,11.26-17.23,9.67-27.4-1.59-10.18-8.17-18.89-17.54-23.17l-243.73-111.37,371.53-319.77c12.84-11.05,14.28-30.4,3.23-43.23-11.02-12.87-30.45-14.26-43.23-3.23l-407.81,350.99c-7.93,6.81-11.82,17.2-10.36,27.54,1.47,10.34,8.11,19.23,17.6,23.57l244.99,111.94-135.76,123.39-202.81-46.27c-7.96-1.78-16.19-.4-23.08,3.89l-137.94,86.21c-7.12,4.46-12.09,11.65-13.77,19.88-1.68,8.23.09,16.8,4.91,23.68l111.12,159.02c4.13,5.94,10.27,10.21,17.24,12.08l187.75,49.81c2.57.67,5.21,1.02,7.87,1.02Z"/>
  <path class="cls-2" d="M1430.94,984.17l-213.17-24.68c-.57-.06-1.16-.12-1.74-.21l-368.42-42.66c-100.28-16.58-131.56-148.07-132.85-153.67-2.19-9.55.3-19.58,6.73-26.97,6.46-7.39,16.14-11.32,25.77-10.42l378.53,32.75,97.68-179.7c5.18-9.51,14.97-15.58,25.74-15.99,11.76-.67,21.04,4.88,26.91,13.95,2.19,3.34,52.93,83.25,27,186.96-13.89,55.56-30.11,106.68-41.13,139.36l175.99,20.38c16.82,1.95,28.86,17.15,26.91,33.96-1.8,15.63-15.06,27.14-30.41,27.14-1.17,0-2.37-.06-3.57-.21ZM1170.08,805.22c-5.84,10.7-17.54,17.06-29.58,15.89l-350.96-30.37c12.84,27.64,34.43,59.84,66.61,65.19l343.51,39.75c10.36-29.99,28.86-86.33,44.03-147.03,7.69-30.85,6.26-59.14,1.71-82.01l-75.32,138.57Z"/>
  <path class="cls-2" d="M1250.43,623.89c8.74,0,17.42-3.73,23.5-10.96.36-.45,37.72-44.78,86.18-83.13,29.76-23.55,100.52-54.77,135.25-68.94l300.37,87.05c16.29,4.75,33.26-4.65,37.99-20.91,4.7-16.26-4.67-33.26-20.92-37.97l-310.52-89.98c-6.5-1.86-13.44-1.56-19.73.9-4.61,1.82-113.81,44.86-160.45,81.78-53.59,42.4-93.49,89.85-95.16,91.86-10.87,12.98-9.16,32.3,3.83,43.17,5.72,4.81,12.72,7.14,19.67,7.14Z"/>
  <path class="cls-2" d="M2014.83,1357.68c1.62,0,3.23-.12,4.88-.39,16.7-2.66,28.08-18.4,25.42-35.11l-30.65-191.59c-2.64-16.72-18.41-28.26-35.11-25.42-16.71,2.66-28.08,18.4-25.42,35.11l30.65,191.59c2.39,15.07,15.45,25.8,30.23,25.8Z"/>
  <path class="cls-2" d="M1935.32,1357.68c1.62,0,3.23-.12,4.88-.39,16.7-2.66,28.11-18.4,25.42-35.11l-26.7-166.85c-2.66-16.72-18.35-28.24-35.11-25.42-16.7,2.67-28.11,18.4-25.42,35.11l26.7,166.85c2.39,15.07,15.45,25.8,30.23,25.8Z"/>
  <path class="cls-2" d="M1855.78,1357.68c1.62,0,3.23-.12,4.88-.39,16.7-2.66,28.08-18.4,25.42-35.11l-22.69-141.82c-2.64-16.73-18.32-28.2-35.11-25.42-16.71,2.67-28.08,18.4-25.42,35.12l22.69,141.82c2.39,15.07,15.45,25.8,30.23,25.8Z"/>
  <path class="cls-2" d="M812.62,900.1c14.82,0,27.84-10.75,30.24-25.84,2.66-16.72-8.71-32.42-25.45-35.08l-449.48-71.63-165.75-155.95,180.15-36.19,91.6,169.1c4.79,8.87,13.65,14.8,23.68,15.88l243.76,26.18c17,1.84,31.94-10.39,33.74-27.2,1.83-16.84-10.36-31.95-27.21-33.75l-227.75-24.46-94.71-174.87c-6.41-11.84-19.7-18.13-32.99-15.46l-260.56,52.36c-11.23,2.26-20.27,10.61-23.44,21.63-3.15,11.03.12,22.9,8.47,30.76l215.86,203.08c4.49,4.21,10.12,6.98,16.19,7.93l458.79,73.12c1.62.27,3.26.39,4.85.39Z"/>
  <path class="cls-2" d="M398.47,571.54c1.44,0,2.93-.1,4.4-.31l208.2-30.03c16.76-2.41,28.38-17.96,25.98-34.71-2.42-16.73-18.05-28.23-34.72-25.97l-208.2,30.03c-16.76,2.41-28.38,17.96-25.99,34.71,2.22,15.28,15.33,26.28,30.33,26.28Z"/>
  <path class="cls-2" d="M757.6,787.87c5.45,0,10.99-1.45,15.99-4.5,14.43-8.85,18.98-27.72,10.12-42.16l-150.88-246.35c-8.83-14.4-27.66-19-42.15-10.13-14.43,8.85-18.98,27.72-10.12,42.16l150.88,246.35c5.78,9.43,15.84,14.64,26.16,14.64Z"/>
  <path class="cls-2" d="M1028.16,1091.37c10.48,0,20.72-5.37,26.43-15.06,8.59-14.58,3.77-33.38-10.81-41.98l-363.77-214.89c-14.64-8.56-33.41-3.77-42,10.79-8.59,14.58-3.77,33.38,10.81,41.98l363.77,214.89c4.91,2.89,10.27,4.26,15.57,4.26Z"/>
  <path class="cls-2" d="M1028.19,1288.08c16.94,0,30.65-13.72,30.65-30.65v-196.71c0-16.93-13.71-30.65-30.65-30.65-16.95,0-30.65,13.73-30.65,30.65v196.71c0,16.93,13.71,30.65,30.65,30.65Z"/>
  <path class="cls-2" d="M137.94,1010.91c7.04,0,14.1-2.41,19.88-7.32l215.86-183.92c12.9-10.99,14.43-30.32,3.44-43.21-10.96-12.92-30.3-14.41-43.2-3.46l-215.86,183.92c-12.9,10.99-14.43,30.32-3.44,43.21,6.05,7.12,14.67,10.77,23.32,10.77Z"/>
  <path class="cls-2" d="M0,980.25v-91.96c0-16.93,13.71-30.65,30.65-30.65h215.21c12.84,0,24.34,8.01,28.77,20.06,4.43,12.05.9,25.6-8.89,33.93l-107.92,91.96c-5.54,4.73-12.6,7.32-19.88,7.32H30.65C13.71,1010.91,0,997.18,0,980.25ZM162.64,918.94H61.31s0,30.65,0,30.65h65.35s35.98-30.65,35.98-30.65Z"/>
  <path class="cls-2" d="M1242.74,1402.35c15.87,0,29.31-12.23,30.53-28.32,1.29-16.87-11.34-31.61-28.23-32.9l-435.59-33.33-482.32-137.7-39.7-146.03,221.4,27.99,391.38,218.3c3.14,1.74,6.53,2.92,10.06,3.49l268.22,43.2c16.76,2.64,32.45-8.7,35.14-25.38,2.69-16.72-8.68-32.45-25.38-35.14l-262.89-42.34-391.85-218.56c-3.44-1.9-7.19-3.15-11.11-3.64l-272.71-34.49c-9.91-1.35-20.24,2.57-26.97,10.3-6.7,7.72-9.13,18.28-6.44,28.15l56.22,206.91c2.81,10.36,10.84,18.49,21.17,21.43l501.96,143.3c1.97.57,4.01.94,6.08,1.09l438.67,33.57c.78.06,1.59.09,2.37.09Z"/>
  <path class="cls-2" d="M912.85,1166.03c5.72,0,11.46-1.59,16.61-4.93l115.37-74.66c14.22-9.19,18.29-28.17,9.1-42.39-9.19-14.19-28.17-18.28-42.39-9.07l-115.37,74.66c-14.22,9.19-18.29,28.17-9.1,42.39,5.87,9.06,15.72,14,25.77,14Z"/>
  <path class="cls-2" d="M599.48,1368.78c5.72,0,11.46-1.58,16.61-4.92l62.8-40.64c14.22-9.19,18.29-28.17,9.1-42.39-9.19-14.19-28.17-18.29-42.39-9.07l-62.8,40.64c-14.22,9.19-18.29,28.17-9.1,42.39,5.87,9.06,15.72,13.99,25.77,13.99Z"/>
</svg>