<svg width="80" height="80" viewBox="0 0 80 80" fill="none" xmlns="http://www.w3.org/2000/svg">
<rect width="80" height="80" rx="15" fill="#6DDAF2" fill-opacity="0.12"/>
<circle cx="34.5" cy="46.5" r="15.5" fill="white"/>
<path d="M45.9707 35.5714L47.1159 34.4261C47.2165 34.3272 47.2964 34.2094 47.3511 34.0795C47.4059 33.9495 47.4344 33.8101 47.4349 33.6691C47.4355 33.5281 47.4082 33.3884 47.3545 33.258C47.3008 33.1277 47.2218 33.0092 47.1221 32.9095C47.0224 32.8098 46.904 32.7309 46.7736 32.6772C46.6433 32.6235 46.5035 32.5961 46.3626 32.5967C46.2216 32.5973 46.0821 32.6258 45.9522 32.6805C45.8222 32.7353 45.7044 32.8152 45.6056 32.9157L44.4136 34.1076C42.4015 32.4505 40.0143 31.3111 37.4604 30.7889V28.3307H38.5285C38.8117 28.3307 39.0834 28.2182 39.2837 28.0179C39.484 27.8176 39.5965 27.5459 39.5965 27.2627V23.7025C39.5965 23.4193 39.484 23.1476 39.2837 22.9473C39.0834 22.747 38.8117 22.6345 38.5285 22.6345H29.9842C29.7009 22.6345 29.4293 22.747 29.229 22.9473C29.0287 23.1476 28.9161 23.4193 28.9161 23.7025V27.2627C28.9161 27.5459 29.0287 27.8176 29.229 28.0179C29.4293 28.2182 29.7009 28.3307 29.9842 28.3307H31.0522V30.7889C28.4984 31.3111 26.1112 32.4505 24.099 34.1076L22.9071 32.9157C22.8082 32.8152 22.6904 32.7353 22.5605 32.6805C22.4306 32.6258 22.2911 32.5973 22.1501 32.5967C22.0091 32.5961 21.8694 32.6235 21.739 32.6772C21.6087 32.7309 21.4902 32.8098 21.3905 32.9095C21.2908 33.0092 21.2119 33.1277 21.1582 33.258C21.1045 33.3884 21.0771 33.5281 21.0777 33.6691C21.0783 33.8101 21.1068 33.9495 21.1615 34.0795C21.2163 34.2094 21.2962 34.3272 21.3967 34.4261L22.5419 35.5714C19.7725 38.5312 18.2329 42.4339 18.2358 46.4873C18.2358 55.3211 25.4226 62.5079 34.2563 62.5079C43.0901 62.5079 50.2769 55.3211 50.2769 46.4873C50.2797 42.4339 48.7402 38.5312 45.9707 35.5714V35.5714ZM31.0522 24.7706H37.4604V26.1946H31.0522V24.7706ZM33.1883 28.3307H35.3244V30.5033C34.9712 30.4799 34.6153 30.4668 34.2563 30.4668C33.8974 30.4668 33.5415 30.4799 33.1883 30.5033V28.3307ZM34.2563 60.3718C26.6004 60.3718 20.3718 54.1433 20.3718 46.4873C20.3718 38.8314 26.6004 32.6028 34.2563 32.6028C41.9123 32.6028 48.1408 38.8314 48.1408 46.4873C48.1408 54.1433 41.9123 60.3718 34.2563 60.3718Z" fill="#034684"/>
<path d="M34.2563 34.7389C27.7782 34.7389 22.5079 40.0092 22.5079 46.4873C22.5079 52.9654 27.7782 58.2358 34.2563 58.2358C40.7344 58.2358 46.0047 52.9654 46.0047 46.4873C46.0047 40.0092 40.7344 34.7389 34.2563 34.7389ZM43.809 45.4193H35.3244V36.9346C37.4901 37.18 39.5085 38.1528 41.0497 39.694C42.5908 41.2352 43.5636 43.2536 43.809 45.4193V45.4193ZM34.2563 56.0997C31.7997 56.0994 29.4365 55.1586 27.6518 53.4705C25.8672 51.7823 24.7966 49.475 24.6599 47.0222C24.5232 44.5694 25.3308 42.1574 26.9168 40.2814C28.5028 38.4054 30.7469 37.2078 33.1883 36.9346V46.4873C33.1883 46.7706 33.3008 47.0423 33.5011 47.2426C33.7014 47.4429 33.9731 47.5554 34.2563 47.5554H43.809C43.5435 49.904 42.4231 52.0728 40.6614 53.6485C38.8997 55.2242 36.6199 56.0967 34.2563 56.0997Z" fill="#034684"/>
<path d="M17.1677 39.0111H10.0475C9.76421 39.0111 9.49255 39.1236 9.29225 39.3239C9.09196 39.5242 8.97943 39.7959 8.97943 40.0791C8.97943 40.3624 9.09196 40.634 9.29225 40.8343C9.49255 41.0346 9.76421 41.1472 10.0475 41.1472H17.1677C17.451 41.1472 17.7226 41.0346 17.9229 40.8343C18.1232 40.634 18.2358 40.3624 18.2358 40.0791C18.2358 39.7959 18.1232 39.5242 17.9229 39.3239C17.7226 39.1236 17.451 39.0111 17.1677 39.0111V39.0111Z" fill="#034684"/>
<path d="M16.8117 48.6234C16.8117 48.3402 16.6992 48.0685 16.4989 47.8682C16.2986 47.6679 16.0269 47.5554 15.7437 47.5554H8.62343C8.34017 47.5554 8.06851 47.6679 7.86821 47.8682C7.66791 48.0685 7.55539 48.3402 7.55539 48.6234C7.55539 48.9067 7.66791 49.1783 7.86821 49.3786C8.06851 49.5789 8.34017 49.6915 8.62343 49.6915H15.7437C16.0269 49.6915 16.2986 49.5789 16.4989 49.3786C16.6992 49.1783 16.8117 48.9067 16.8117 48.6234Z" fill="#034684"/>
<path d="M16.4557 51.8275H11.4715C11.1882 51.8275 10.9166 51.9401 10.7163 52.1404C10.516 52.3406 10.4035 52.6123 10.4035 52.8956C10.4035 53.1788 10.516 53.4505 10.7163 53.6508C10.9166 53.8511 11.1882 53.9636 11.4715 53.9636H16.4557C16.7389 53.9636 17.0106 53.8511 17.2109 53.6508C17.4112 53.4505 17.5237 53.1788 17.5237 52.8956C17.5237 52.6123 17.4112 52.3406 17.2109 52.1404C17.0106 51.9401 16.7389 51.8275 16.4557 51.8275Z" fill="#034684"/>
<path d="M16.8117 44.3513C16.8117 44.068 16.6992 43.7964 16.4989 43.5961C16.2986 43.3958 16.0269 43.2832 15.7437 43.2832H6.48735C6.20409 43.2832 5.93243 43.3958 5.73213 43.5961C5.53184 43.7964 5.41931 44.068 5.41931 44.3513C5.41931 44.6345 5.53184 44.9062 5.73213 45.1065C5.93243 45.3068 6.20409 45.4193 6.48735 45.4193H15.7437C16.0269 45.4193 16.2986 45.3068 16.4989 45.1065C16.6992 44.9062 16.8117 44.6345 16.8117 44.3513V44.3513Z" fill="#034684"/>
<circle cx="59.2405" cy="44.0506" r="3.5443" fill="#0ABDE9"/>
<circle cx="64.8101" cy="28.3544" r="9.11392" fill="#0ABDE9"/>
</svg>
