<svg width="164" height="164" viewBox="0 0 164 164" fill="none" xmlns="http://www.w3.org/2000/svg">
<circle cx="82.5" cy="83.0469" r="74.5" fill="#F0F8FF"/>
<path d="M52.4931 93.5C46.2972 93.5 41.2744 98.5228 41.2744 104.719V141.28C41.2744 147.476 46.2972 152.499 52.4931 152.499H146.281C152.477 152.499 157.5 147.476 157.5 141.28V104.719C157.5 98.5228 152.477 93.5 146.281 93.5H52.4931Z" fill="#F0F8FF" stroke="#EE851B"/>
<mask id="mask0_2274_28828" style="mask-type:alpha" maskUnits="userSpaceOnUse" x="41" y="94" width="116" height="58">
<rect x="41.7744" y="94" width="115.225" height="57.999" rx="6" fill="#52CB58"/>
</mask>
<g mask="url(#mask0_2274_28828)">
<path d="M36.415 99.3593C36.415 93.4395 41.214 88.6406 47.1337 88.6406H140.922C146.841 88.6406 151.64 93.4395 151.64 99.3593V135.921C151.64 141.841 146.841 146.64 140.922 146.64H47.1337C41.214 146.64 36.415 141.841 36.415 135.921V99.3593Z" fill="white"/>
<ellipse cx="161.573" cy="93.7495" rx="13.9428" ry="13.365" fill="#EE851B"/>
<ellipse cx="37.7589" cy="93.7495" rx="13.9428" ry="13.365" fill="#EE851B"/>
<ellipse cx="161.573" cy="151.746" rx="13.9428" ry="13.365" fill="#EE851B"/>
<ellipse cx="37.7589" cy="151.746" rx="13.9428" ry="13.365" fill="#EE851B"/>
</g>
<path d="M64.6524 116.771C63.8567 116.771 63.2117 116.126 63.2117 115.33V114.872C63.2117 113.823 64.0621 112.972 65.111 112.972H68.3705C69.4751 112.972 70.3705 113.868 70.3705 114.972V132.44C70.3705 133.544 69.4751 134.44 68.3705 134.44H68.093C66.9885 134.44 66.093 133.544 66.093 132.44V118.212C66.093 117.416 65.448 116.771 64.6524 116.771Z" fill="#EE851B"/>
<path d="M74.4788 123.426C74.4788 120.03 75.0927 117.37 76.3205 115.446C77.5681 113.522 79.6277 112.56 82.4992 112.56C85.3706 112.56 87.4202 113.522 88.648 115.446C89.8957 117.37 90.5195 120.03 90.5195 123.426C90.5195 126.842 89.8957 129.522 88.648 131.466C87.4202 133.409 85.3706 134.381 82.4992 134.381C79.6277 134.381 77.5681 133.409 76.3205 131.466C75.0927 129.522 74.4788 126.842 74.4788 123.426ZM86.4202 123.426C86.4202 121.974 86.3212 120.756 86.1231 119.775C85.9449 118.774 85.5686 117.959 84.9944 117.331C84.4399 116.702 83.6081 116.388 82.4992 116.388C81.3902 116.388 80.5485 116.702 79.9742 117.331C79.4198 117.959 79.0435 118.774 78.8455 119.775C78.6672 120.756 78.5781 121.974 78.5781 123.426C78.5781 124.918 78.6672 126.175 78.8455 127.196C79.0237 128.197 79.3999 129.012 79.9742 129.64C80.5485 130.248 81.3902 130.553 82.4992 130.553C83.6081 130.553 84.4498 130.248 85.0241 129.64C85.5984 129.012 85.9746 128.197 86.1528 127.196C86.3311 126.175 86.4202 124.918 86.4202 123.426Z" fill="#EE851B"/>
<path d="M93.6826 123.426C93.6826 120.03 94.2964 117.37 95.5243 115.446C96.7719 113.522 98.8314 112.56 101.703 112.56C104.574 112.56 106.624 113.522 107.852 115.446C109.099 117.37 109.723 120.03 109.723 123.426C109.723 126.842 109.099 129.522 107.852 131.466C106.624 133.409 104.574 134.381 101.703 134.381C98.8314 134.381 96.7719 133.409 95.5243 131.466C94.2964 129.522 93.6826 126.842 93.6826 123.426ZM105.624 123.426C105.624 121.974 105.525 120.756 105.327 119.775C105.149 118.774 104.772 117.959 104.198 117.331C103.644 116.702 102.812 116.388 101.703 116.388C100.594 116.388 99.7522 116.702 99.1779 117.331C98.6235 117.959 98.2472 118.774 98.0492 119.775C97.8709 120.756 97.7818 121.974 97.7818 123.426C97.7818 124.918 97.8709 126.175 98.0492 127.196C98.2274 128.197 98.6036 129.012 99.1779 129.64C99.7522 130.248 100.594 130.553 101.703 130.553C102.812 130.553 103.653 130.248 104.228 129.64C104.802 129.012 105.178 128.197 105.357 127.196C105.535 126.175 105.624 124.918 105.624 123.426Z" fill="#EE851B"/>
<path d="M112.411 118.243C112.411 116.751 112.847 115.583 113.718 114.739C114.609 113.895 115.748 113.473 117.134 113.473C118.52 113.473 119.649 113.895 120.52 114.739C121.412 115.583 121.857 116.751 121.857 118.243C121.857 119.755 121.412 120.933 120.52 121.777C119.649 122.621 118.52 123.043 117.134 123.043C115.748 123.043 114.609 122.621 113.718 121.777C112.847 120.933 112.411 119.755 112.411 118.243ZM128.445 113.826C129.801 113.826 130.653 115.289 129.985 116.469L120.313 133.547C120.001 134.099 119.416 134.44 118.782 134.44C117.435 134.44 116.588 132.988 117.25 131.815L126.904 114.726C127.218 114.17 127.807 113.826 128.445 113.826ZM117.104 115.947C116.015 115.947 115.471 116.712 115.471 118.243C115.471 119.794 116.015 120.57 117.104 120.57C117.639 120.57 118.055 120.383 118.352 120.01C118.649 119.618 118.798 119.029 118.798 118.243C118.798 116.712 118.233 115.947 117.104 115.947ZM125.451 129.993C125.451 128.481 125.887 127.313 126.758 126.489C127.65 125.645 128.788 125.223 130.174 125.223C131.561 125.223 132.68 125.645 133.531 126.489C134.402 127.313 134.838 128.481 134.838 129.993C134.838 131.505 134.402 132.683 133.531 133.527C132.68 134.371 131.561 134.793 130.174 134.793C128.768 134.793 127.63 134.371 126.758 133.527C125.887 132.683 125.451 131.505 125.451 129.993ZM130.145 127.696C129.016 127.696 128.452 128.462 128.452 129.993C128.452 131.544 129.016 132.319 130.145 132.319C131.254 132.319 131.808 131.544 131.808 129.993C131.808 128.462 131.254 127.696 130.145 127.696Z" fill="#EE851B"/>
<path d="M110.424 152H110.463L110.502 151.997C115.161 151.633 122.171 149.629 128.197 144.793C134.256 139.931 139.285 132.231 139.935 120.589C140.583 108.982 136.312 96.6239 130.796 85.9556C125.274 75.2769 118.443 66.1761 113.815 61.0387C111.686 58.5688 108.26 54.8428 104.878 51.6725C103.186 50.0869 101.487 48.6229 99.956 47.5223C99.1902 46.972 98.4501 46.5008 97.7612 46.1496C97.1683 45.8472 96.5686 45.6103 95.9945 45.5078C96.1704 45.3398 96.3891 45.1439 96.6541 44.9159C96.9775 44.6377 97.3385 44.3377 97.7403 44.0037C98.0064 43.7826 98.2903 43.5467 98.5932 43.2922C101.583 40.7807 105.949 36.8581 108.686 31.1392C111.409 25.45 112.233 19.084 111.614 14.2312C111.306 11.8136 110.628 9.67817 109.563 8.18686C108.472 6.65945 106.899 5.73547 104.966 6.08511C102.319 6.56386 100.885 7.26643 99.7489 7.82265C99.5731 7.90871 99.4045 7.99127 99.2397 8.06896C98.6511 8.3464 98.1306 8.55264 97.4695 8.67037C96.801 8.78941 95.9405 8.82599 94.683 8.70089C92.6028 8.49393 91.4548 7.95361 90.2337 7.37883C90.0237 7.27999 89.8115 7.18013 89.5921 7.08077C88.0182 6.36812 86.2862 5.80669 83 6.06336C79.7138 5.80669 77.9819 6.36812 76.4079 7.08077C76.1885 7.18013 75.9763 7.27999 75.7663 7.37883C74.5452 7.95361 73.3972 8.49393 71.317 8.70089C70.0595 8.82599 69.199 8.78941 68.5305 8.67037C67.8694 8.55264 67.349 8.3464 66.7603 8.06896C66.5955 7.99127 66.4269 7.90871 66.2511 7.82264C65.1153 7.26643 63.6806 6.56386 61.034 6.08511C59.101 5.73547 57.5281 6.65945 56.437 8.18686C55.3716 9.67817 54.6939 11.8136 54.3858 14.2312C53.7675 19.084 54.5907 25.45 57.314 31.1392C60.0515 36.8581 64.4174 40.7807 67.4068 43.2922C67.7097 43.5467 67.9937 43.7827 68.2597 44.0038C68.6616 44.3377 69.0225 44.6377 69.3459 44.9159C69.6109 45.1439 69.8296 45.3398 70.0055 45.5078C69.4314 45.6103 68.8317 45.8472 68.2388 46.1496C67.5499 46.5008 66.8098 46.972 66.044 47.5223C64.5125 48.6229 62.8138 50.0869 61.1223 51.6725C57.7404 54.8428 54.3138 58.5687 52.1853 61.0387C47.5571 66.176 40.7261 75.2769 35.2041 85.9556C29.6875 96.6239 25.417 108.982 26.0651 120.589C26.7153 132.231 31.744 139.931 37.8029 144.793C43.8286 149.629 50.8386 151.633 55.4978 151.997L55.5366 152H55.5756H82.9684H83.0316H110.424ZM95.2416 45.3698C95.2416 45.3697 95.2445 45.3709 95.2495 45.3736C95.2439 45.3713 95.2415 45.3699 95.2416 45.3698ZM70.7584 45.3698C70.7584 45.37 70.756 45.3713 70.7506 45.3736C70.7557 45.3708 70.7585 45.3697 70.7584 45.3698Z" fill="#F0F8FF" stroke="#04549F" stroke-width="2"/>
<mask id="mask1_2274_28828" style="mask-type:alpha" maskUnits="userSpaceOnUse" x="27" y="7" width="113" height="145">
<path d="M83.0321 151V7.06951C76.6958 6.54386 76.6965 9.17105 71.4165 9.69634C66.1364 10.2216 66.6644 8.1201 60.8564 7.06951C55.0484 6.01892 52.9361 19.6766 58.2164 30.7078C63.4968 41.739 75.1125 45.9413 70.3605 46.4666C66.5588 46.8869 57.1602 56.7974 52.9361 61.7002C43.7841 71.8559 25.7969 97.8405 27.0641 120.533C28.3313 143.226 46.6001 150.3 55.5761 151H83.0321Z" fill="#0683F9"/>
<path d="M82.9689 151V7.06951C89.3052 6.54386 89.3045 9.17105 94.5845 9.69634C99.8645 10.2216 99.3365 8.1201 105.145 7.06951C110.953 6.01892 113.065 19.6766 107.785 30.7078C102.504 41.739 90.8885 45.9413 95.6405 46.4666C99.4421 46.8869 108.841 56.7974 113.065 61.7002C122.217 71.8559 140.204 97.8405 138.937 120.533C137.67 143.226 119.401 150.3 110.425 151H82.9689Z" fill="#0683F9"/>
</mask>
<g mask="url(#mask1_2274_28828)">
<path d="M99.074 144.391C107.624 143.733 125.027 137.085 126.234 115.759C127.441 94.4336 110.307 70.0142 101.589 60.4703C97.565 55.8628 88.6122 46.5493 84.9909 46.1543H60.91C57.2887 46.5493 48.3358 55.8628 44.3121 60.4703C35.5942 70.0142 18.4602 94.4336 19.6673 115.759C20.8744 137.085 38.2766 143.733 46.8269 144.391H99.074Z" fill="white"/>
<path d="M84.0417 30.3101H57.1058L51.296 8.65597C67.6689 5.13493 96.2949 -7.40028 96.7175 8.65566C97.14 24.7116 88.443 29.7819 84.0417 30.3101Z" fill="white"/>
</g>
<path d="M64.931 37.8818C60.348 37.8818 56.6328 41.597 56.6328 46.18C56.6328 50.7629 60.348 54.4781 64.931 54.4781H82.9843H101.038C105.621 54.4781 109.336 50.7629 109.336 46.18C109.336 41.597 105.621 37.8818 101.038 37.8818H64.931Z" fill="white" stroke="#2E7D36" stroke-width="2"/>
<path d="M87.8535 93.0543C88.3269 92.3696 88.9757 91.802 89.7999 91.3516C90.6415 90.8831 91.5972 90.6489 92.6668 90.6489C93.9118 90.6489 95.034 90.9642 96.0335 91.5948C97.0505 92.2254 97.8484 93.1263 98.427 94.2975C99.0232 95.4506 99.3213 96.793 99.3213 98.3245C99.3213 99.856 99.0232 101.216 98.427 102.406C97.8484 103.577 97.0505 104.487 96.0335 105.135C95.034 105.784 93.9118 106.108 92.6668 106.108C91.5972 106.108 90.6503 105.883 89.8262 105.433C89.0958 105.025 87.8535 105.519 87.8535 106.355V112C87.8535 112.552 87.4058 113 86.8535 113H85.1712C84.6189 113 84.1712 112.552 84.1712 112V91.8921C84.1712 91.3398 84.6189 90.8921 85.1712 90.8921H86.8535C87.4058 90.8921 87.8535 91.3398 87.8535 91.8921V93.0543ZM95.5601 98.3245C95.5601 97.4236 95.3759 96.6488 95.0077 96.0002C94.657 95.3335 94.1836 94.829 93.5874 94.4867C93.0087 94.1443 92.3775 93.9732 91.6936 93.9732C91.0273 93.9732 90.396 94.1533 89.7999 94.5137C89.2212 94.856 88.7478 95.3605 88.3795 96.0272C88.0288 96.6939 87.8535 97.4776 87.8535 98.3785C87.8535 99.2794 88.0288 100.063 88.3795 100.73C88.7478 101.397 89.2212 101.91 89.7999 102.27C90.396 102.613 91.0273 102.784 91.6936 102.784C92.3775 102.784 93.0087 102.604 93.5874 102.243C94.1836 101.883 94.657 101.369 95.0077 100.703C95.3759 100.036 95.5601 99.2434 95.5601 98.3245Z" fill="#EE851B"/>
<path d="M77.3809 105.865C77.0164 105.865 76.6809 105.666 76.505 105.347L73.0246 99.0308C72.8488 98.7116 72.5132 98.5134 72.1488 98.5134H72.0036C71.4513 98.5134 71.0036 98.9611 71.0036 99.5134V104.865C71.0036 105.417 70.5559 105.865 70.0036 105.865H68.3213C67.769 105.865 67.3213 105.417 67.3213 104.865V88C67.3213 87.4477 67.769 87 68.3213 87H74.2125C75.6328 87 76.8427 87.2613 77.8422 87.7838C78.8417 88.2883 79.5869 88.982 80.0779 89.8648C80.5864 90.7297 80.8407 91.7027 80.8407 92.7837C80.8407 94.027 80.49 95.1531 79.7886 96.1621C79.3088 96.8399 78.669 97.3745 77.8693 97.7657C77.2813 98.0533 76.9769 98.7703 77.3028 99.3379L80.1908 104.367C80.5736 105.033 80.0924 105.865 79.3236 105.865H77.3809ZM71.0036 94.6756C71.0036 95.2279 71.4513 95.6756 72.0036 95.6756H74.081C75.0805 95.6756 75.8257 95.4323 76.3167 94.9459C76.8076 94.4414 77.0531 93.7477 77.0531 92.8648C77.0531 91.9999 76.8076 91.3333 76.3167 90.8648C75.8257 90.3783 75.0805 90.1351 74.081 90.1351H72.0036C71.4513 90.1351 71.0036 90.5828 71.0036 91.1351V94.6756Z" fill="#EE851B"/>
<path d="M31.5005 110.188C43.2594 110.188 52.796 100.678 52.796 88.9415C52.796 77.2049 43.2594 67.6946 31.5005 67.6946C19.7416 67.6946 10.2051 77.2049 10.2051 88.9415C10.2051 100.678 19.7416 110.188 31.5005 110.188Z" fill="#F0F8FF" stroke="#EE851B" stroke-width="2"/>
<mask id="mask2_2274_28828" style="mask-type:alpha" maskUnits="userSpaceOnUse" x="11" y="68" width="41" height="42">
<path d="M50.7965 88.9416C50.7965 99.5691 42.1599 108.188 31.501 108.188C20.8422 108.188 12.2056 99.5691 12.2056 88.9416C12.2056 78.3141 20.8422 69.6947 31.501 69.6947C42.1599 69.6947 50.7965 78.3141 50.7965 88.9416Z" fill="white" stroke="#04549F" stroke-width="2"/>
</mask>
<g mask="url(#mask2_2274_28828)">
<ellipse cx="29.5357" cy="86.3295" rx="20.2955" ry="20.2469" fill="white"/>
</g>
<path d="M35.4438 83.8041C35.8216 83.2771 36.3392 82.8402 36.9968 82.4934C37.6684 82.1328 38.4309 81.9525 39.2844 81.9525C40.2778 81.9525 41.1732 82.1953 41.9707 82.6807C42.7822 83.1661 43.4188 83.8596 43.8805 84.7611C44.3562 85.6487 44.594 86.682 44.594 87.8609C44.594 89.0398 44.3562 90.0869 43.8805 91.0023C43.4188 91.9038 42.7822 92.6042 41.9707 93.1035C41.1732 93.6028 40.2778 93.8524 39.2844 93.8524C38.4309 93.8524 37.6754 93.6791 37.0178 93.3323C36.4275 93.0143 35.4438 93.4148 35.4438 94.0853V98.1574C35.4438 98.7097 34.9961 99.1574 34.4438 99.1574H33.5057C32.9534 99.1574 32.5057 98.7097 32.5057 98.1574V83.1398C32.5057 82.5875 32.9534 82.1398 33.5057 82.1398H34.4438C34.9961 82.1398 35.4438 82.5875 35.4438 83.1398V83.8041ZM41.5929 87.8609C41.5929 87.1674 41.446 86.571 41.1522 86.0717C40.8724 85.5586 40.4946 85.1702 40.0189 84.9067C39.5572 84.6432 39.0535 84.5114 38.5079 84.5114C37.9762 84.5114 37.4725 84.6501 36.9968 84.9275C36.5351 85.191 36.1574 85.5794 35.8635 86.0925C35.5837 86.6057 35.4438 87.209 35.4438 87.9025C35.4438 88.5959 35.5837 89.1993 35.8635 89.7124C36.1574 90.2256 36.5351 90.6209 36.9968 90.8983C37.4725 91.1618 37.9762 91.2935 38.5079 91.2935C39.0535 91.2935 39.5572 91.1548 40.0189 90.8775C40.4946 90.6001 40.8724 90.2048 41.1522 89.6916C41.446 89.1785 41.5929 88.5682 41.5929 87.8609Z" fill="#F8A63A"/>
<path d="M27.1967 93.665C26.8378 93.665 26.5064 93.4726 26.3284 93.1609L23.6366 88.448C23.4806 88.1749 23.1902 88.0063 22.8756 88.0063C22.3916 88.0063 21.9992 88.3987 21.9992 88.8827V92.665C21.9992 93.2173 21.5515 93.665 20.9992 93.665H20.061C19.5088 93.665 19.061 93.2173 19.061 92.665V80.1438C19.061 79.5915 19.5088 79.1438 20.061 79.1438H24.5596C25.6928 79.1438 26.6582 79.3449 27.4557 79.7471C28.2532 80.1355 28.8478 80.6694 29.2396 81.349C29.6453 82.0147 29.8482 82.7637 29.8482 83.5959C29.8482 84.5528 29.5684 85.4197 29.0087 86.1964C28.6808 86.6433 28.2592 87.0094 27.7439 87.2945C27.1622 87.6163 26.8501 88.3466 27.1902 88.9178L29.1163 92.1535C29.5131 92.82 29.0328 93.665 28.257 93.665H27.1967ZM21.9992 84.8219C21.9992 85.3742 22.4469 85.8219 22.9992 85.8219H24.4546C25.2521 85.8219 25.8467 85.6346 26.2385 85.2602C26.6303 84.8718 26.8261 84.3379 26.8261 83.6583C26.8261 82.9925 26.6303 82.4794 26.2385 82.1188C25.8467 81.7443 25.2521 81.5571 24.4546 81.5571H22.9992C22.4469 81.5571 21.9992 82.0048 21.9992 82.5571V84.8219Z" fill="#F8A63A"/>
<rect x="7" y="110.32" width="49" height="12.6563" rx="3" fill="#F0F8FF" stroke="#EE851B" stroke-width="2"/>
<mask id="mask3_2274_28828" style="mask-type:alpha" maskUnits="userSpaceOnUse" x="8" y="111" width="47" height="11">
<rect x="8" y="111.319" width="47" height="10.6563" rx="2" fill="#F0F8FF"/>
</mask>
<g mask="url(#mask3_2274_28828)">
<rect x="3.72729" y="113.451" width="48.0682" height="10.6563" rx="1" fill="white"/>
</g>
<rect x="7" y="125.24" width="49" height="12.6563" rx="3" fill="#F0F8FF" stroke="#EE851B" stroke-width="2"/>
<mask id="mask4_2274_28828" style="mask-type:alpha" maskUnits="userSpaceOnUse" x="8" y="126" width="47" height="11">
<rect x="8" y="126.24" width="47" height="10.6563" rx="2" fill="#F0F8FF"/>
</mask>
<g mask="url(#mask4_2274_28828)">
<rect x="3.72729" y="125.175" width="48.0682" height="12.7875" rx="1" fill="white"/>
</g>
<rect x="7" y="140.158" width="49" height="12.6563" rx="3" fill="#F0F8FF" stroke="#EE851B" stroke-width="2"/>
<mask id="mask5_2274_28828" style="mask-type:alpha" maskUnits="userSpaceOnUse" x="8" y="141" width="47" height="11">
<rect x="8" y="141.159" width="47" height="10.6563" rx="2" fill="#F0F8FF"/>
</mask>
<g mask="url(#mask5_2274_28828)">
<rect x="3.72729" y="136.896" width="48.0682" height="12.7875" rx="1" fill="white"/>
</g>
</svg>
