<svg width="164" height="164" viewBox="0 0 164 164" fill="none" xmlns="http://www.w3.org/2000/svg">
<circle cx="80.5" cy="84.5" r="74.5" fill="#F0F8FF"/>
<path d="M89.4244 150H89.4634L89.5022 149.997C94.1614 149.633 101.171 147.629 107.197 142.793C113.256 137.931 118.285 130.231 118.935 118.589C119.583 106.982 115.312 94.6239 109.796 83.9556C104.274 73.2769 97.4429 64.1761 92.8148 59.0387C90.6862 56.5688 87.2596 52.8428 83.8777 49.6725C82.1862 48.0869 80.4875 46.6229 78.956 45.5223C78.1902 44.972 77.4501 44.5008 76.7612 44.1496C76.1683 43.8472 75.5686 43.6103 74.9945 43.5078C75.1704 43.3398 75.3891 43.1439 75.6541 42.9159C75.9775 42.6377 76.3385 42.3377 76.7403 42.0037C77.0064 41.7826 77.2903 41.5467 77.5932 41.2922C80.5826 38.7807 84.9486 34.8581 87.686 29.1392C90.4093 23.45 91.2325 17.084 90.6142 12.2312C90.3061 9.81361 89.6284 7.67817 88.563 6.18686C87.4719 4.65945 85.899 3.73547 83.966 4.08511C81.3194 4.56386 79.8847 5.26643 78.7489 5.82265C78.5731 5.90871 78.4045 5.99127 78.2397 6.06896C77.6511 6.3464 77.1306 6.55264 76.4695 6.67037C75.801 6.78941 74.9405 6.82599 73.683 6.70089C71.6028 6.49393 70.4548 5.95361 69.2337 5.37883C69.0237 5.27999 68.8115 5.18013 68.5921 5.08077C67.0182 4.36812 65.2862 3.80669 62 4.06336C58.7138 3.80669 56.9819 4.36812 55.4079 5.08077C55.1885 5.18013 54.9763 5.27999 54.7663 5.37883C53.5452 5.95361 52.3972 6.49393 50.317 6.70089C49.0595 6.82599 48.199 6.78941 47.5305 6.67037C46.8694 6.55264 46.349 6.3464 45.7603 6.06896C45.5955 5.99127 45.4269 5.90871 45.2511 5.82264C44.1153 5.26643 42.6806 4.56386 40.034 4.08511C38.101 3.73547 36.5281 4.65945 35.437 6.18686C34.3716 7.67817 33.6939 9.81361 33.3858 12.2312C32.7675 17.084 33.5907 23.45 36.314 29.1392C39.0515 34.8581 43.4174 38.7807 46.4068 41.2922C46.7097 41.5467 46.9937 41.7827 47.2597 42.0038C47.6616 42.3377 48.0225 42.6377 48.3459 42.9159C48.6109 43.1439 48.8296 43.3398 49.0055 43.5078C48.4314 43.6103 47.8317 43.8472 47.2388 44.1496C46.5499 44.5008 45.8098 44.972 45.044 45.5223C43.5125 46.6229 41.8138 48.0869 40.1223 49.6725C36.7404 52.8428 33.3138 56.5687 31.1853 59.0387C26.5571 64.176 19.7261 73.2769 14.2041 83.9556C8.68754 94.6239 4.41704 106.982 5.06514 118.589C5.71526 130.231 10.744 137.931 16.8029 142.793C22.8286 147.629 29.8386 149.633 34.4978 149.997L34.5366 150H34.5756H61.9684H62.0316H89.4244ZM74.2416 43.3698C74.2416 43.3697 74.2445 43.3709 74.2495 43.3736C74.2439 43.3713 74.2415 43.3699 74.2416 43.3698ZM49.7584 43.3698C49.7584 43.37 49.756 43.3713 49.7506 43.3736C49.7557 43.3708 49.7585 43.3697 49.7584 43.3698Z" fill="#F0F8FF" stroke="#04549F" stroke-width="2"/>
<mask id="mask0_2274_28830" style="mask-type:alpha" maskUnits="userSpaceOnUse" x="6" y="5" width="113" height="145">
<path d="M62.0321 149V5.06951C55.6958 4.54386 55.6965 7.17105 50.4165 7.69634C45.1364 8.22164 45.6644 6.1201 39.8564 5.06951C34.0484 4.01892 31.9361 17.6766 37.2164 28.7078C42.4968 39.739 54.1125 43.9413 49.3605 44.4666C45.5588 44.8869 36.1602 54.7974 31.9361 59.7002C22.7841 69.8559 4.79688 95.8405 6.06408 118.533C7.33128 141.226 25.6001 148.3 34.5761 149H62.0321Z" fill="#0683F9"/>
<path d="M61.9689 149V5.06951C68.3052 4.54386 68.3045 7.17105 73.5845 7.69634C78.8645 8.22164 78.3365 6.1201 84.1445 5.06951C89.9525 4.01892 92.0649 17.6766 86.7845 28.7078C81.5042 39.739 69.8885 43.9413 74.6405 44.4666C78.4421 44.8869 87.8408 54.7974 92.0649 59.7002C101.217 69.8559 119.204 95.8405 117.937 118.533C116.67 141.226 98.4009 148.3 89.4249 149H61.9689Z" fill="#0683F9"/>
</mask>
<g mask="url(#mask0_2274_28830)">
<path d="M78.074 142.391C86.6243 141.733 104.027 135.085 105.234 113.759C106.441 92.4336 89.3067 68.0142 80.5888 58.4703C76.565 53.8628 67.6122 44.5493 63.9909 44.1543H39.91C36.2887 44.5493 27.3358 53.8628 23.3121 58.4703C14.5942 68.0142 -2.53983 92.4336 -1.33274 113.759C-0.125645 135.085 17.2766 141.733 25.8269 142.391H78.074Z" fill="white"/>
<path d="M63.0417 28.3101H36.1058L30.296 6.65597C46.6689 3.13493 75.2949 -9.40028 75.7175 6.65566C76.14 22.7116 67.443 27.7819 63.0417 28.3101Z" fill="white"/>
</g>
<path d="M43.931 35.8818C39.348 35.8818 35.6328 39.597 35.6328 44.18C35.6328 48.7629 39.348 52.4781 43.931 52.4781H61.9843H80.0376C84.6206 52.4781 88.3358 48.7629 88.3358 44.18C88.3358 39.597 84.6206 35.8818 80.0376 35.8818H43.931Z" fill="white" stroke="#2E7D36" stroke-width="2"/>
<path d="M66.8535 91.0543C67.3269 90.3696 67.9757 89.802 68.7999 89.3516C69.6415 88.8831 70.5972 88.6489 71.6668 88.6489C72.9118 88.6489 74.034 88.9642 75.0335 89.5948C76.0505 90.2254 76.8484 91.1263 77.427 92.2975C78.0232 93.4506 78.3213 94.793 78.3213 96.3245C78.3213 97.856 78.0232 99.2163 77.427 100.406C76.8484 101.577 76.0505 102.487 75.0335 103.135C74.034 103.784 72.9118 104.108 71.6668 104.108C70.5972 104.108 69.6503 103.883 68.8262 103.433C68.0958 103.025 66.8535 103.519 66.8535 104.355V110C66.8535 110.552 66.4058 111 65.8535 111H64.1712C63.6189 111 63.1712 110.552 63.1712 110V89.8921C63.1712 89.3398 63.6189 88.8921 64.1712 88.8921H65.8535C66.4058 88.8921 66.8535 89.3398 66.8535 89.8921V91.0543ZM74.5601 96.3245C74.5601 95.4236 74.3759 94.6488 74.0077 94.0002C73.657 93.3335 73.1836 92.829 72.5874 92.4867C72.0087 92.1443 71.3775 91.9732 70.6936 91.9732C70.0273 91.9732 69.396 92.1533 68.7999 92.5137C68.2212 92.856 67.7478 93.3605 67.3795 94.0272C67.0288 94.6939 66.8535 95.4776 66.8535 96.3785C66.8535 97.2794 67.0288 98.0632 67.3795 98.7299C67.7478 99.3965 68.2212 99.91 68.7999 100.27C69.396 100.613 70.0273 100.784 70.6936 100.784C71.3775 100.784 72.0087 100.604 72.5874 100.243C73.1836 99.883 73.657 99.3695 74.0077 98.7028C74.3759 98.0362 74.5601 97.2434 74.5601 96.3245Z" fill="#EE851B"/>
<path d="M56.3809 103.865C56.0164 103.865 55.6809 103.666 55.505 103.347L52.0246 97.0308C51.8488 96.7116 51.5132 96.5134 51.1488 96.5134H51.0036C50.4513 96.5134 50.0036 96.9611 50.0036 97.5134V102.865C50.0036 103.417 49.5559 103.865 49.0036 103.865H47.3213C46.769 103.865 46.3213 103.417 46.3213 102.865V86C46.3213 85.4477 46.769 85 47.3213 85H53.2125C54.6328 85 55.8427 85.2613 56.8422 85.7838C57.8417 86.2883 58.5869 86.982 59.0779 87.8648C59.5864 88.7297 59.8407 89.7027 59.8407 90.7837C59.8407 92.027 59.49 93.1531 58.7886 94.1621C58.3088 94.8399 57.669 95.3745 56.8693 95.7657C56.2813 96.0533 55.9769 96.7703 56.3028 97.3379L59.1908 102.367C59.5736 103.033 59.0924 103.865 58.3236 103.865H56.3809ZM50.0036 92.6756C50.0036 93.2279 50.4513 93.6756 51.0036 93.6756H53.081C54.0805 93.6756 54.8257 93.4323 55.3167 92.9459C55.8076 92.4414 56.0531 91.7477 56.0531 90.8648C56.0531 89.9999 55.8076 89.3333 55.3167 88.8648C54.8257 88.3783 54.0805 88.1351 53.081 88.1351H51.0036C50.4513 88.1351 50.0036 88.5828 50.0036 89.1351V92.6756Z" fill="#EE851B"/>
<path d="M77 106.212C72.3056 106.212 68.5 110.017 68.5 114.712V142C68.5 146.694 72.3056 150.5 77 150.5H147C151.694 150.5 155.5 146.694 155.5 142V114.712C155.5 110.017 151.694 106.212 147 106.212H77Z" fill="#F0F8FF" stroke="#EE851B"/>
<mask id="mask1_2274_28830" style="mask-type:alpha" maskUnits="userSpaceOnUse" x="69" y="106" width="86" height="44">
<rect x="69" y="106.711" width="85.9996" height="43.2882" rx="6" fill="#52CB58"/>
</mask>
<g mask="url(#mask1_2274_28830)">
<path d="M65 110.711C65 106.293 68.5817 102.711 73 102.711H143C147.418 102.711 151 106.293 151 110.711V137.999C151 142.418 147.418 145.999 143 145.999H73C68.5817 145.999 65 142.418 65 137.999V110.711Z" fill="white"/>
<ellipse cx="158.413" cy="106.524" rx="10.4063" ry="9.97511" fill="#EE851B"/>
<ellipse cx="66.0035" cy="106.524" rx="10.4063" ry="9.97511" fill="#EE851B"/>
<ellipse cx="158.413" cy="149.81" rx="10.4063" ry="9.97511" fill="#EE851B"/>
<ellipse cx="66.0035" cy="149.81" rx="10.4063" ry="9.97511" fill="#EE851B"/>
</g>
<path d="M86.075 123.707C85.4812 123.707 84.9998 123.225 84.9998 122.632V122.289C84.9998 121.506 85.6344 120.872 86.4174 120.872H88.3429C89.4474 120.872 90.3429 121.767 90.3429 122.872V135.298C90.3429 136.179 89.6282 136.894 88.7466 136.894C87.865 136.894 87.1503 136.179 87.1503 135.298V124.782C87.1503 124.188 86.6689 123.707 86.075 123.707Z" fill="#EE851B"/>
<path d="M93.4091 128.674C93.4091 126.139 93.8673 124.154 94.7837 122.718C95.7149 121.282 97.252 120.564 99.3952 120.564C101.538 120.564 103.068 121.282 103.984 122.718C104.916 124.154 105.381 126.139 105.381 128.674C105.381 131.224 104.916 133.224 103.984 134.674C103.068 136.125 101.538 136.85 99.3952 136.85C97.252 136.85 95.7149 136.125 94.7837 134.674C93.8673 133.224 93.4091 131.224 93.4091 128.674ZM102.322 128.674C102.322 127.59 102.248 126.681 102.1 125.949C101.967 125.201 101.686 124.593 101.258 124.125C100.844 123.656 100.223 123.421 99.3952 123.421C98.5675 123.421 97.9393 123.656 97.5107 124.125C97.0968 124.593 96.816 125.201 96.6682 125.949C96.5352 126.681 96.4687 127.59 96.4687 128.674C96.4687 129.788 96.5352 130.725 96.6682 131.487C96.8012 132.235 97.0821 132.843 97.5107 133.312C97.9393 133.766 98.5675 133.993 99.3952 133.993C100.223 133.993 100.851 133.766 101.28 133.312C101.708 132.843 101.989 132.235 102.122 131.487C102.255 130.725 102.322 129.788 102.322 128.674Z" fill="#EE851B"/>
<path d="M107.742 128.674C107.742 126.139 108.2 124.154 109.117 122.718C110.048 121.282 111.585 120.564 113.728 120.564C115.871 120.564 117.401 121.282 118.317 122.718C119.249 124.154 119.714 126.139 119.714 128.674C119.714 131.224 119.249 133.224 118.317 134.674C117.401 136.125 115.871 136.85 113.728 136.85C111.585 136.85 110.048 136.125 109.117 134.674C108.2 133.224 107.742 131.224 107.742 128.674ZM116.655 128.674C116.655 127.59 116.581 126.681 116.433 125.949C116.3 125.201 116.019 124.593 115.59 124.125C115.177 123.656 114.556 123.421 113.728 123.421C112.9 123.421 112.272 123.656 111.844 124.125C111.43 124.593 111.149 125.201 111.001 125.949C110.868 126.681 110.802 127.59 110.802 128.674C110.802 129.788 110.868 130.725 111.001 131.487C111.134 132.235 111.415 132.843 111.844 133.312C112.272 133.766 112.9 133.993 113.728 133.993C114.556 133.993 115.184 133.766 115.613 133.312C116.041 132.843 116.322 132.235 116.455 131.487C116.588 130.725 116.655 129.788 116.655 128.674Z" fill="#EE851B"/>
<path d="M121.72 124.806C121.72 123.692 122.045 122.82 122.696 122.19C123.361 121.56 124.211 121.245 125.245 121.245C126.28 121.245 127.122 121.56 127.773 122.19C128.438 122.82 128.77 123.692 128.77 124.806C128.77 125.934 128.438 126.813 127.773 127.443C127.122 128.073 126.28 128.388 125.245 128.388C124.211 128.388 123.361 128.073 122.696 127.443C122.045 126.813 121.72 125.934 121.72 124.806ZM133.687 121.509C134.699 121.509 135.336 122.6 134.837 123.481L127.618 136.228C127.385 136.64 126.948 136.894 126.475 136.894C125.47 136.894 124.838 135.811 125.332 134.935L132.537 122.18C132.771 121.766 133.211 121.509 133.687 121.509ZM125.223 123.092C124.41 123.092 124.004 123.663 124.004 124.806C124.004 125.963 124.41 126.542 125.223 126.542C125.622 126.542 125.933 126.403 126.154 126.125C126.376 125.832 126.487 125.392 126.487 124.806C126.487 123.663 126.066 123.092 125.223 123.092ZM131.453 133.575C131.453 132.447 131.778 131.575 132.429 130.96C133.094 130.33 133.944 130.015 134.978 130.015C136.013 130.015 136.848 130.33 137.483 130.96C138.134 131.575 138.459 132.447 138.459 133.575C138.459 134.704 138.134 135.583 137.483 136.213C136.848 136.843 136.013 137.158 134.978 137.158C133.929 137.158 133.079 136.843 132.429 136.213C131.778 135.583 131.453 134.704 131.453 133.575ZM134.956 131.861C134.114 131.861 133.692 132.432 133.692 133.575C133.692 134.733 134.114 135.312 134.956 135.312C135.784 135.312 136.198 134.733 136.198 133.575C136.198 132.432 135.784 131.861 134.956 131.861Z" fill="#EE851B"/>
</svg>
