<svg width="164" height="164" viewBox="0 0 164 164" fill="none" xmlns="http://www.w3.org/2000/svg">
<circle cx="82.5" cy="83.5" r="74.5" fill="#F0F8FF"/>
<path d="M97.4244 150H97.4634L97.5022 149.997C102.161 149.633 109.171 147.629 115.197 142.793C121.256 137.931 126.285 130.231 126.935 118.589C127.583 106.982 123.312 94.6239 117.796 83.9556C112.274 73.2769 105.443 64.1761 100.815 59.0387C98.6862 56.5688 95.2596 52.8428 91.8777 49.6725C90.1862 48.0869 88.4875 46.6229 86.956 45.5223C86.1902 44.972 85.4501 44.5008 84.7612 44.1496C84.1683 43.8472 83.5686 43.6103 82.9945 43.5078C83.1704 43.3398 83.3891 43.1439 83.6541 42.9159C83.9775 42.6377 84.3385 42.3377 84.7403 42.0037C85.0064 41.7826 85.2903 41.5467 85.5932 41.2922C88.5826 38.7807 92.9486 34.8581 95.686 29.1392C98.4093 23.45 99.2325 17.084 98.6142 12.2312C98.3061 9.81361 97.6284 7.67817 96.563 6.18686C95.4719 4.65945 93.899 3.73547 91.966 4.08511C89.3194 4.56386 87.8847 5.26643 86.7489 5.82265C86.5731 5.90871 86.4045 5.99127 86.2397 6.06896C85.6511 6.3464 85.1306 6.55264 84.4695 6.67037C83.801 6.78941 82.9405 6.82599 81.683 6.70089C79.6028 6.49393 78.4548 5.95361 77.2337 5.37883C77.0237 5.27999 76.8115 5.18013 76.5921 5.08077C75.0182 4.36812 73.2862 3.80669 70 4.06336C66.7138 3.80669 64.9819 4.36812 63.4079 5.08077C63.1885 5.18013 62.9763 5.27999 62.7663 5.37883C61.5452 5.95361 60.3972 6.49393 58.317 6.70089C57.0595 6.82599 56.199 6.78941 55.5305 6.67037C54.8694 6.55264 54.349 6.3464 53.7603 6.06896C53.5955 5.99127 53.4269 5.90871 53.2511 5.82264C52.1153 5.26643 50.6806 4.56386 48.034 4.08511C46.101 3.73547 44.5281 4.65945 43.437 6.18686C42.3716 7.67817 41.6939 9.81361 41.3858 12.2312C40.7675 17.084 41.5907 23.45 44.314 29.1392C47.0515 34.8581 51.4174 38.7807 54.4068 41.2922C54.7097 41.5467 54.9937 41.7827 55.2597 42.0038C55.6616 42.3377 56.0225 42.6377 56.3459 42.9159C56.6109 43.1439 56.8296 43.3398 57.0055 43.5078C56.4314 43.6103 55.8317 43.8472 55.2388 44.1496C54.5499 44.5008 53.8098 44.972 53.044 45.5223C51.5125 46.6229 49.8138 48.0869 48.1223 49.6725C44.7404 52.8428 41.3138 56.5687 39.1853 59.0387C34.5571 64.176 27.7261 73.2769 22.2041 83.9556C16.6875 94.6239 12.417 106.982 13.0651 118.589C13.7153 130.231 18.744 137.931 24.8029 142.793C30.8286 147.629 37.8386 149.633 42.4978 149.997L42.5366 150H42.5756H69.9684H70.0316H97.4244ZM82.2416 43.3698C82.2416 43.3697 82.2445 43.3709 82.2495 43.3736C82.2439 43.3713 82.2415 43.3699 82.2416 43.3698ZM57.7584 43.3698C57.7584 43.37 57.756 43.3713 57.7506 43.3736C57.7557 43.3708 57.7585 43.3697 57.7584 43.3698Z" fill="#F0F8FF" stroke="#04549F" stroke-width="2"/>
<mask id="mask0_2274_28829" style="mask-type:alpha" maskUnits="userSpaceOnUse" x="14" y="5" width="113" height="145">
<path d="M70.0321 149V5.06939C63.6958 4.54374 63.6965 7.17092 58.4165 7.69622C53.1364 8.22151 53.6644 6.11998 47.8564 5.06939C42.0484 4.0188 39.9361 17.6765 45.2164 28.7077C50.4968 39.7389 62.1125 43.9412 57.3605 44.4665C53.5588 44.8868 44.1602 54.7973 39.9361 59.7001C30.7841 69.8558 12.7969 95.8404 14.0641 118.533C15.3313 141.226 33.6001 148.3 42.5761 149H70.0321Z" fill="#0683F9"/>
<path d="M69.9689 149V5.06939C76.3052 4.54374 76.3045 7.17092 81.5845 7.69622C86.8645 8.22151 86.3365 6.11998 92.1445 5.06939C97.9525 4.0188 100.065 17.6765 94.7845 28.7077C89.5042 39.7389 77.8885 43.9412 82.6405 44.4665C86.4421 44.8868 95.8408 54.7973 100.065 59.7001C109.217 69.8558 127.204 95.8404 125.937 118.533C124.67 141.226 106.401 148.3 97.4249 149H69.9689Z" fill="#0683F9"/>
</mask>
<g mask="url(#mask0_2274_28829)">
<path d="M86.074 142.391C94.6243 141.733 112.027 135.085 113.234 113.759C114.441 92.4335 97.3067 68.0141 88.5888 58.4701C84.565 53.8627 75.6122 44.5491 71.9909 44.1542H47.91C44.2887 44.5491 35.3358 53.8627 31.3121 58.4701C22.5942 68.0141 5.46017 92.4335 6.66726 113.759C7.87436 135.085 25.2766 141.733 33.8269 142.391H86.074Z" fill="white"/>
<path d="M71.0417 28.3099H44.1058L38.296 6.65585C54.6689 3.13481 83.2949 -9.4004 83.7175 6.65554C84.14 22.7115 75.443 27.7818 71.0417 28.3099Z" fill="white"/>
</g>
<path d="M51.931 35.8818C47.348 35.8818 43.6328 39.597 43.6328 44.18C43.6328 48.7629 47.348 52.4781 51.931 52.4781H69.9843H88.0376C92.6206 52.4781 96.3358 48.7629 96.3358 44.18C96.3358 39.597 92.6206 35.8818 88.0376 35.8818H51.931Z" fill="white" stroke="#2E7D36" stroke-width="2"/>
<path d="M74.8535 91.0543C75.3269 90.3696 75.9757 89.802 76.7999 89.3516C77.6415 88.8831 78.5972 88.6489 79.6668 88.6489C80.9118 88.6489 82.034 88.9642 83.0335 89.5948C84.0505 90.2254 84.8484 91.1263 85.427 92.2975C86.0232 93.4506 86.3213 94.793 86.3213 96.3245C86.3213 97.856 86.0232 99.2163 85.427 100.406C84.8484 101.577 84.0505 102.487 83.0335 103.135C82.034 103.784 80.9118 104.108 79.6668 104.108C78.5972 104.108 77.6503 103.883 76.8262 103.433C76.0958 103.025 74.8535 103.519 74.8535 104.355V110C74.8535 110.552 74.4058 111 73.8535 111H72.1712C71.6189 111 71.1712 110.552 71.1712 110V89.8921C71.1712 89.3398 71.6189 88.8921 72.1712 88.8921H73.8535C74.4058 88.8921 74.8535 89.3398 74.8535 89.8921V91.0543ZM82.5601 96.3245C82.5601 95.4236 82.3759 94.6488 82.0077 94.0002C81.657 93.3335 81.1836 92.829 80.5874 92.4867C80.0087 92.1443 79.3775 91.9732 78.6936 91.9732C78.0273 91.9732 77.396 92.1533 76.7999 92.5137C76.2212 92.856 75.7478 93.3605 75.3795 94.0272C75.0288 94.6939 74.8535 95.4776 74.8535 96.3785C74.8535 97.2794 75.0288 98.0632 75.3795 98.7299C75.7478 99.3965 76.2212 99.91 76.7999 100.27C77.396 100.613 78.0273 100.784 78.6936 100.784C79.3775 100.784 80.0087 100.604 80.5874 100.243C81.1836 99.883 81.657 99.3695 82.0077 98.7028C82.3759 98.0362 82.5601 97.2434 82.5601 96.3245Z" fill="#EE851B"/>
<path d="M64.3809 103.865C64.0164 103.865 63.6809 103.666 63.505 103.347L60.0246 97.0308C59.8488 96.7116 59.5132 96.5134 59.1488 96.5134H59.0036C58.4513 96.5134 58.0036 96.9611 58.0036 97.5134V102.865C58.0036 103.417 57.5559 103.865 57.0036 103.865H55.3213C54.769 103.865 54.3213 103.417 54.3213 102.865V86C54.3213 85.4477 54.769 85 55.3213 85H61.2125C62.6328 85 63.8427 85.2613 64.8422 85.7838C65.8417 86.2883 66.5869 86.982 67.0779 87.8648C67.5864 88.7297 67.8407 89.7027 67.8407 90.7837C67.8407 92.027 67.49 93.1531 66.7886 94.1621C66.3088 94.8399 65.669 95.3745 64.8693 95.7657C64.2813 96.0533 63.9769 96.7703 64.3028 97.3379L67.1908 102.367C67.5736 103.033 67.0924 103.865 66.3236 103.865H64.3809ZM58.0036 92.6756C58.0036 93.2279 58.4513 93.6756 59.0036 93.6756H61.081C62.0805 93.6756 62.8257 93.4323 63.3167 92.9459C63.8076 92.4414 64.0531 91.7477 64.0531 90.8648C64.0531 89.9999 63.8076 89.3333 63.3167 88.8648C62.8257 88.3783 62.0805 88.1351 61.081 88.1351H59.0036C58.4513 88.1351 58.0036 88.5828 58.0036 89.1351V92.6756Z" fill="#EE851B"/>
<path d="M134.172 45.9707V44.9707H133.172H119.736H119.5H106.064H105.064V45.9707V113.735H96.5193C94.0672 113.735 92.703 116.608 94.3411 118.479L115.961 143.176C117.959 145.458 121.511 145.451 123.499 143.16L144.927 118.47C146.553 116.596 145.187 113.735 142.74 113.735H134.172V45.9707Z" fill="#F0F8FF" stroke="#04549F" stroke-width="2"/>
<mask id="mask1_2274_28829" style="mask-type:alpha" maskUnits="userSpaceOnUse" x="94" y="45" width="51" height="99">
<path d="M133.172 113.803V45.9707H119.736H119.5H106.064V113.803C106.064 114.318 105.642 114.735 105.122 114.735H96.5193C94.9038 114.735 94.0362 116.613 95.0935 117.821L116.713 142.518C118.311 144.343 121.154 144.337 122.744 142.505L144.172 117.815C145.221 116.605 144.352 114.735 142.74 114.735H134.115C133.594 114.735 133.172 114.318 133.172 113.803Z" fill="#F0F8FF"/>
</mask>
<g mask="url(#mask1_2274_28829)">
<path d="M129.172 115.803V47.9707H115.736H115.5H102.064V115.803C102.064 116.318 101.642 116.735 101.122 116.735H92.5193C90.9038 116.735 90.0362 118.613 91.0935 119.821L112.713 144.518C114.311 146.343 117.154 146.337 118.744 144.505L140.172 119.815C141.221 118.605 140.352 116.735 138.74 116.735H130.115C129.594 116.735 129.172 116.318 129.172 115.803Z" fill="white"/>
</g>
<circle cx="120" cy="40" r="32" fill="#F0F8FF" stroke="#04549F" stroke-width="2"/>
<mask id="mask2_2274_28829" style="mask-type:alpha" maskUnits="userSpaceOnUse" x="89" y="9" width="62" height="62">
<circle cx="120" cy="40" r="30" fill="white" stroke="#04549F" stroke-width="2"/>
</mask>
<g mask="url(#mask2_2274_28829)">
<circle cx="117" cy="36" r="31" fill="white"/>
</g>
<path d="M103 30.6077C103 28.2284 103.66 26.3656 104.981 25.0193C106.332 23.6731 108.059 23 110.16 23C112.262 23 113.973 23.6731 115.294 25.0193C116.645 26.3656 117.321 28.2284 117.321 30.6077C117.321 33.0184 116.645 34.8969 115.294 36.2431C113.973 37.5893 112.262 38.2624 110.16 38.2624C108.059 38.2624 106.332 37.5893 104.981 36.2431C103.66 34.8969 103 33.0184 103 30.6077ZM127.366 23.5635C129.42 23.5635 130.73 25.757 129.756 27.566L114.977 55.017C114.507 55.8913 113.594 56.4365 112.601 56.4365C110.56 56.4365 109.258 54.2588 110.224 52.461L124.973 24.9942C125.447 24.1132 126.366 23.5635 127.366 23.5635ZM110.115 26.9448C108.464 26.9448 107.638 28.1657 107.638 30.6077C107.638 33.081 108.464 34.3177 110.115 34.3177C110.926 34.3177 111.556 34.0203 112.007 33.4254C112.457 32.7993 112.682 31.86 112.682 30.6077C112.682 28.1657 111.826 26.9448 110.115 26.9448ZM122.77 49.3453C122.77 46.9346 123.43 45.0718 124.751 43.7569C126.102 42.4107 127.828 41.7376 129.93 41.7376C132.031 41.7376 133.728 42.4107 135.019 43.7569C136.34 45.0718 137 46.9346 137 49.3453C137 51.756 136.34 53.6344 135.019 54.9807C133.728 56.3269 132.031 57 129.93 57C127.798 57 126.072 56.3269 124.751 54.9807C123.43 53.6344 122.77 51.756 122.77 49.3453ZM129.885 45.6823C128.174 45.6823 127.318 46.9033 127.318 49.3453C127.318 51.8186 128.174 53.0553 129.885 53.0553C131.566 53.0553 132.407 51.8186 132.407 49.3453C132.407 46.9033 131.566 45.6823 129.885 45.6823Z" fill="#EE851B"/>
</svg>
