<svg width="460" height="460" viewBox="0 0 460 460" fill="none" xmlns="http://www.w3.org/2000/svg">
<g clip-path="url(#clip0_690_8065)">
<path d="M313.968 394.935L435.064 346L423.256 118.056H325.776L313.968 394.935Z" fill="#85D689"/>
<path d="M339.783 212.391C339.783 177.311 345.755 144.794 358.767 118.056H325.776L313.968 394.935L435.064 346H433.454C377.63 317.956 339.783 274.81 339.783 212.391Z" fill="#6ECF72"/>
<path d="M342.056 309.643C340.569 261.429 296.946 223.257 244.27 223.257H194.083C142.082 223.257 98.574 260.476 96.38 308.048C96.3398 308.916 96.3103 309.786 96.2927 310.659C94.9808 372.749 149.623 424.555 217.439 425.418C286.126 426.293 342.107 375.572 342.107 312.878C342.106 311.8 342.089 310.721 342.056 309.643Z" fill="#04549F"/>
<path d="M315.789 338.367C250.847 338.367 198.2 290.162 198.2 230.697C198.2 228.196 198.301 225.716 198.485 223.257H194.083C142.082 223.257 98.574 260.476 96.38 308.048C96.3398 308.916 96.3103 309.786 96.2927 310.659C94.9808 372.749 149.623 424.555 217.439 425.418C277.372 426.181 327.625 387.661 339.464 336.184C331.672 337.64 323.741 338.371 315.789 338.367Z" fill="#00417D"/>
<path fill-rule="evenodd" clip-rule="evenodd" d="M460 279.291C459.98 279.313 459.961 279.334 459.941 279.355C423.977 318.544 371.82 343.191 313.785 343.191C205.285 343.191 117.328 257.045 117.328 150.779C117.328 89.6994 146.387 35.2668 191.703 0.0193201C191.711 0.0128794 191.72 0.00643939 191.728 0C82.7424 19.3284 0 114.143 0 228.198C0 356.217 104.245 459.997 232.837 459.997C343.796 459.997 436.627 382.728 460 279.291Z" fill="#F8991D"/>
<mask id="mask0_690_8065" style="mask-type:alpha" maskUnits="userSpaceOnUse" x="0" y="0" width="460" height="461">
<path fill-rule="evenodd" clip-rule="evenodd" d="M460 279.295C459.98 279.317 459.961 279.338 459.941 279.359C423.977 318.548 371.82 343.195 313.785 343.195C205.285 343.195 117.328 257.049 117.328 150.783C117.328 89.7033 146.387 35.2707 191.703 0.0232296C191.711 0.0167879 191.72 0.0103467 191.728 0.00390625C82.7424 19.3324 0 114.147 0 228.202C0 356.221 104.245 460.001 232.837 460.001C343.796 460.001 436.627 382.732 460 279.295Z" fill="#F9AF4D"/>
</mask>
<g mask="url(#mask0_690_8065)">
<path fill-rule="evenodd" clip-rule="evenodd" d="M510.264 248.663C510.245 248.683 510.226 248.704 510.208 248.724C475.738 286.285 425.747 309.908 370.122 309.908C266.129 309.908 181.826 227.34 181.826 125.488C181.826 66.9456 209.678 14.774 253.112 -19.0095C253.12 -19.0157 253.128 -19.022 253.136 -19.0283C148.677 -0.502899 69.3711 90.3739 69.3711 199.691C69.3711 322.393 169.286 421.862 292.537 421.862C398.887 421.862 487.861 347.803 510.264 248.663Z" fill="#F9AF4D"/>
</g>
<path d="M422.455 33.7519L402.296 16.5602C386.643 3.21299 362.388 3.21299 346.736 16.5602L326.576 33.751C320.758 38.7114 316.707 45.1605 314.949 52.2587C313.19 59.357 313.807 66.7755 316.718 73.5485C319.629 80.3214 324.699 86.135 331.269 90.2323C337.839 94.3297 345.604 96.5209 353.553 96.5207L374.516 122.999L395.478 96.5207C403.427 96.5202 411.191 94.3287 417.76 90.2313C424.33 86.134 429.4 80.3206 432.311 73.5481C435.221 66.7755 435.838 59.3574 434.08 52.2595C432.323 45.1615 428.272 38.7125 422.455 33.7519Z" fill="#04549F"/>
<path d="M352.33 43.1107C352.314 30.6511 356.187 18.4468 363.494 7.93575C357.234 9.54037 351.488 12.4989 346.736 16.5602L326.576 33.751C320.758 38.7114 316.707 45.1605 314.949 52.2587C313.19 59.357 313.807 66.7755 316.718 73.5485C319.629 80.3214 324.699 86.135 331.269 90.2323C337.839 94.3297 345.604 96.5209 353.553 96.5207L374.516 122.999L391.448 101.611C368.232 90.7326 352.33 68.6291 352.33 43.1107Z" fill="#00417D"/>
<path d="M198.2 230.701C198.2 200.125 212.12 172.529 234.473 152.929C220.726 147.533 204.289 149.746 192.758 159.578L173.578 175.934C168.091 180.612 164.254 186.684 162.559 193.372C160.864 200.059 161.387 207.058 164.062 213.471C169.524 226.565 183.085 235.28 198.327 235.619C198.247 233.988 198.2 232.35 198.2 230.701Z" fill="#EE851B"/>
<path d="M373.708 178.49C361.706 178.88 352.367 188.247 352.367 199.243V229.214C352.367 236.746 359.036 242.852 367.261 242.852H381.768C389.995 242.852 396.663 236.745 396.663 229.214V198.757C396.664 187.31 386.308 178.079 373.708 178.49ZM264.796 175.938L245.616 159.583C230.725 146.885 207.649 146.881 192.758 159.578L173.578 175.934C168.044 180.653 164.189 186.793 162.517 193.546C160.844 200.299 161.431 207.356 164.2 213.8C166.969 220.244 171.793 225.774 178.043 229.673C184.293 233.571 191.681 235.656 199.243 235.656H239.13C246.692 235.655 254.079 233.57 260.329 229.672C266.579 225.774 271.403 220.243 274.172 213.799C276.941 207.356 277.528 200.299 275.855 193.546C274.183 186.793 270.329 180.657 264.796 175.938Z" fill="#F9AF4D"/>
<path d="M277.248 25.3181C266.494 23.2391 258.567 16.1216 256.288 6.03304C255.493 2.51204 252.083 0 248.055 0H247.526C243.581 0 240.297 2.5965 239.483 6.13187C237.216 15.9833 229.441 23.2454 218.42 25.3325C214.575 26.0611 211.831 29.1823 211.831 32.8569V33.2621C211.832 35.0122 212.491 36.7086 213.697 38.066C214.904 39.4233 216.584 40.3587 218.455 40.7147C229.455 42.8108 237.214 50.0639 239.481 59.9C240.297 63.4381 243.578 66.04 247.629 66.04H248.157C252.083 66.04 255.493 63.5279 256.289 60.0079C258.568 49.9183 266.495 42.8009 277.249 40.7219C281.113 39.9753 283.955 36.9709 283.955 33.3547V32.6853C283.954 29.07 281.112 26.0647 277.248 25.3181ZM202.887 87.4103C194.195 85.7302 187.788 79.9766 185.945 71.8215C185.302 68.9752 182.546 66.9447 179.29 66.9447H178.862C175.674 66.9447 173.018 69.0435 172.361 71.9005C170.528 79.8634 164.243 85.7329 155.335 87.4211C152.227 88.0096 150.009 90.5333 150.009 93.5027V93.8306C150.009 95.2452 150.542 96.6166 151.517 97.7137C152.493 98.8109 153.851 99.567 155.363 99.8547C164.254 101.548 170.526 107.411 172.359 115.363C173.018 118.222 175.671 120.326 178.945 120.326H179.372C182.545 120.326 185.301 118.295 185.944 115.45C187.786 107.295 194.194 101.541 202.886 99.8609C206.01 99.2572 208.307 96.8287 208.307 93.9061V93.3652C208.308 90.4426 206.011 88.0141 202.887 87.4103Z" fill="#F9AF4D"/>
<path d="M406.146 91.5768H342.884C326.913 91.5768 313.966 103.431 313.966 118.055C313.966 132.678 326.912 144.533 342.884 144.533H406.146C422.116 144.533 435.063 132.679 435.063 118.055C435.063 103.432 422.117 91.5768 406.146 91.5768Z" fill="#F9AF4D"/>
<path d="M167.478 81.0502C164.459 84.2343 160.307 86.4813 155.335 87.4238C152.227 88.0123 150.009 90.536 150.009 93.5054V93.8333C150.009 95.2479 150.542 96.6192 151.517 97.7164C152.493 98.8136 153.851 99.5697 155.363 99.8573C164.254 101.551 170.526 107.414 172.359 115.365C173.018 118.225 175.67 120.328 178.945 120.328H179.372C182.545 120.328 185.301 118.298 185.944 115.453C186.368 113.551 187.078 111.713 188.051 109.99C175.982 105.014 167.559 93.9402 167.478 81.0502ZM230.716 19.9238C227.346 22.5554 223.189 24.4313 218.419 25.3342C214.574 26.0629 211.83 29.1841 211.83 32.8587V33.2648C211.831 35.0148 212.49 36.7112 213.696 38.0684C214.903 39.4257 216.583 40.3608 218.454 40.7165C229.454 42.8116 237.213 50.0657 239.48 59.9018C240.296 63.4399 243.577 66.0418 247.628 66.0418H248.156C252.082 66.0418 255.492 63.5297 256.288 60.0096C257.074 56.5309 258.544 53.416 260.558 50.7287C244.636 47.4 232.451 35.0904 230.716 19.9238ZM348.645 144.537C354.506 124.407 363.391 106.437 375.614 91.5809H342.885C326.915 91.5809 313.968 103.436 313.968 118.059C313.968 132.682 326.914 144.537 342.885 144.537H348.645Z" fill="#FAA832"/>
</g>
<defs>
<clipPath id="clip0_690_8065">
<rect width="460" height="460" fill="white"/>
</clipPath>
</defs>
</svg>
