<svg width="120" height="120" viewBox="0 0 120 120" fill="none" xmlns="http://www.w3.org/2000/svg">
<g clip-path="url(#clip0_555_370)">
<path d="M38.0952 103.026H6.505L9.58531 30.797H35.0149L38.0952 103.026Z" fill="#9FD799"/>
<path d="M31.361 55.4063C31.361 46.2548 29.8029 37.7723 26.4085 30.797H35.0149L38.0952 103.026H6.505L6.92504 93.1753C21.4878 85.8595 31.361 71.6893 31.361 55.4063Z" fill="#76C96D"/>
<path d="M30.768 80.7764C31.1558 68.1988 42.5359 58.2408 56.2775 58.2408H69.3697C82.9352 58.2408 94.2851 67.9501 94.8574 80.3603C94.8679 80.5867 94.8756 80.8136 94.8802 81.0414C95.2224 97.2387 80.9679 110.753 63.2769 110.979C45.3584 111.207 30.7547 97.9751 30.7547 81.6203C30.7549 81.339 30.7594 81.0576 30.768 80.7764Z" fill="#4AC1FB"/>
<path d="M37.6203 88.2696C54.5618 88.2696 68.2957 75.6944 68.2957 60.1817C68.2957 59.5292 68.2693 58.8823 68.2214 58.2408H69.3697C82.9352 58.2408 94.2851 67.9501 94.8574 80.3603C94.8679 80.5867 94.8756 80.8136 94.8802 81.0414C95.2224 97.2387 80.9679 110.753 63.2769 110.979C47.6422 111.178 34.5326 101.129 31.4443 87.7001C33.4768 88.0798 35.5459 88.2707 37.6203 88.2696Z" fill="#00A7FA"/>
<path d="M4.30836 97.3463C13.1794 99.3455 22.6218 99.7967 32.2121 98.4139C70.8537 92.8416 97.5033 58.9463 91.0309 23.6219C89.9044 17.4735 87.8638 11.6703 85.0579 6.31036C83.498 3.33097 87.2763 0.405016 90.2166 2.32057C105.17 12.061 116.003 27.0817 119.106 44.9831C125.251 80.4274 99.0685 113.502 60.3673 119.175C38.063 122.445 16.539 115.798 1.13717 102.796C-1.50134 100.57 0.823872 96.5611 4.30836 97.3463Z" fill="#04549F"/>
<path d="M9.7942 8.80474L15.0533 4.31995C19.1365 0.838053 25.464 0.838053 29.5472 4.31995L34.8063 8.8045C36.3239 10.0985 37.3808 11.7809 37.8394 13.6326C38.2981 15.4843 38.1373 17.4196 37.3779 19.1864C36.6186 20.9533 35.2958 22.4699 33.5819 23.5388C31.868 24.6076 29.8424 25.1792 27.7687 25.1792L22.3003 32.0865L16.8318 25.1792C14.7582 25.1791 12.7327 24.6074 11.019 23.5385C9.30524 22.4696 7.98261 20.9531 7.22327 19.1863C6.46394 17.4196 6.30308 15.4844 6.76162 13.6328C7.22016 11.7812 8.27688 10.0988 9.7942 8.80474Z" fill="#4AC1FB"/>
<path d="M28.0879 11.2461C28.092 7.99581 27.0815 4.8121 25.1755 2.07008C26.8084 2.48867 28.3076 3.26047 29.5472 4.31995L34.8063 8.8045C36.3239 10.0985 37.3808 11.7809 37.8394 13.6326C38.2981 15.4843 38.1373 17.4196 37.3779 19.1864C36.6186 20.9533 35.2958 22.4699 33.5819 23.5388C31.868 24.6076 29.8424 25.1792 27.7687 25.1792L22.3003 32.0865L17.8832 26.5071C23.9394 23.6693 28.0879 17.9031 28.0879 11.2461Z" fill="#00A7FA"/>
<path d="M68.2957 60.1829C68.2957 52.2066 64.6643 45.0075 58.8331 39.8945C62.4192 38.4869 66.7072 39.0641 69.7153 41.6292L74.7187 45.8957C76.1501 47.1163 77.151 48.7003 77.5932 50.4448C78.0355 52.1894 77.8989 54.0151 77.2011 55.6882C75.7764 59.104 72.2387 61.3775 68.2625 61.4658C68.2835 61.0404 68.2957 60.6129 68.2957 60.1829Z" fill="#FAA832"/>
<path d="M22.511 46.5625C25.642 46.6645 28.0783 49.1078 28.0783 51.9764V59.7949C28.0783 61.7599 26.3385 63.3527 24.1927 63.3527H20.4082C18.2622 63.3527 16.5226 61.7597 16.5226 59.7949V51.8496C16.5224 48.8636 19.2239 46.4554 22.511 46.5625ZM50.9229 45.8969L55.9263 41.6303C59.8108 38.3178 65.8308 38.3167 69.7153 41.6292L74.7187 45.8957C76.1624 47.1268 77.168 48.7285 77.6043 50.4902C78.0407 52.2519 77.8877 54.093 77.1652 55.7739C76.4428 57.4548 75.1844 58.8977 73.5539 59.9146C71.9234 60.9315 69.9963 61.4754 68.0235 61.4754H57.6182C55.6455 61.4752 53.7184 60.9313 52.088 59.9144C50.4576 58.8974 49.1993 57.4546 48.4769 55.7738C47.7545 54.0929 47.6015 52.2518 48.0377 50.4902C48.474 48.7286 49.4793 47.128 50.9229 45.8969Z" fill="#FCB855"/>
<path d="M47.6744 6.60472C50.4798 6.06238 52.5477 4.20565 53.1423 1.57384C53.3497 0.655316 54.2392 0 55.2899 0H55.4279C56.4571 0 57.3138 0.677347 57.526 1.59962C58.1176 4.16955 60.1459 6.06402 63.0209 6.60847C64.024 6.79855 64.7397 7.61277 64.7397 8.57137V8.67708C64.7395 9.13361 64.5676 9.57617 64.2529 9.93026C63.9382 10.2843 63.4998 10.5284 63.0117 10.6212C60.1423 11.168 58.1181 13.0601 57.5265 15.6261C57.3138 16.5491 56.4579 17.2278 55.401 17.2278H55.2633C54.2392 17.2278 53.3497 16.5725 53.1421 15.6542C52.5475 13.0222 50.4795 11.1654 47.6741 10.6231C46.6661 10.4283 45.9248 9.64458 45.9248 8.70122V8.52661C45.9251 7.58348 46.6664 6.79949 47.6744 6.60472ZM67.0729 22.8027C69.3405 22.3644 71.0119 20.8635 71.4926 18.736C71.6603 17.9935 72.3793 17.4638 73.2286 17.4638H73.3402C74.1721 17.4638 74.8648 18.0113 75.0363 18.7567C75.5144 20.8339 77.1539 22.3651 79.4778 22.8055C80.2887 22.959 80.8672 23.6174 80.8672 24.392V24.4775C80.8671 24.8466 80.7281 25.2043 80.4737 25.4905C80.2193 25.7768 79.865 25.974 79.4704 26.049C77.1511 26.4908 75.5149 28.0204 75.0368 30.0946C74.8648 30.8406 74.1729 31.3893 73.3187 31.3893H73.2074C72.3796 31.3893 71.6606 30.8596 71.4929 30.1173C71.0124 27.9899 69.3407 26.489 67.0731 26.0507C66.2584 25.8932 65.6591 25.2597 65.6591 24.4972V24.3561C65.6589 23.5937 66.2581 22.9602 67.0729 22.8027Z" fill="#FCB855"/>
<path d="M14.0488 23.8896H30.5521C34.7182 23.8896 38.0957 26.982 38.0957 30.7969C38.0957 34.6116 34.7185 37.7042 30.5521 37.7042H14.0488C9.88272 37.7042 6.50524 34.6118 6.50524 30.7969C6.50524 26.9822 9.88247 23.8896 14.0488 23.8896Z" fill="#FCB855"/>
<path d="M76.3099 21.1436C77.0976 21.9742 78.1808 22.5604 79.4778 22.8062C80.2887 22.9597 80.8672 23.6181 80.8672 24.3927V24.4783C80.8671 24.8473 80.7281 25.205 80.4737 25.4913C80.2193 25.7775 79.865 25.9747 79.4704 26.0498C77.1511 26.4916 75.5149 28.0211 75.0368 30.0953C74.8648 30.8414 74.1731 31.39 73.3187 31.39H73.2074C72.3796 31.39 71.6606 30.8603 71.4929 30.1181C71.3822 29.6221 71.1972 29.1426 70.9431 28.6931C74.0917 27.3951 76.289 24.5062 76.3099 21.1436ZM59.8131 5.19754C60.6923 5.88403 61.7769 6.37341 63.0211 6.60895C64.0243 6.79903 64.74 7.61326 64.74 8.57185V8.67779C64.7398 9.13431 64.5679 9.57686 64.2532 9.93091C63.9385 10.285 63.5001 10.5289 63.0119 10.6217C60.1425 11.1683 58.1183 13.0606 57.5268 15.6266C57.3141 16.5496 56.4581 17.2283 55.4012 17.2283H55.2635C54.2394 17.2283 53.3499 16.573 53.1423 15.6547C52.9373 14.7472 52.5536 13.9346 52.0284 13.2336C56.1819 12.3652 59.3606 9.15405 59.8131 5.19754ZM29.0492 37.7053C27.5203 32.4541 25.2022 27.7661 22.0136 23.8907H30.5517C34.7178 23.8907 38.0953 26.9833 38.0953 30.798C38.0953 34.6127 34.7181 37.7053 30.5517 37.7053H29.0492Z" fill="#FAA832"/>
</g>
<defs>
<clipPath id="clip0_555_370">
<rect width="120" height="120" fill="white" transform="matrix(-1 0 0 1 120 0)"/>
</clipPath>
</defs>
</svg>
