<svg xmlns="http://www.w3.org/2000/svg" id="Layer_1" data-name="Layer 1" viewBox="0 0 344.07 344.07"><defs><style>      .cls-1 {        fill: #e29817;      }      .cls-2 {        fill: #78d2f5;      }      .cls-3 {        fill: #102c52;      }      .cls-4 {        fill: #b5eaff;      }      .cls-5 {        fill: #c9f0ff;      }      .cls-6 {        fill: #3498ac;      }    </style></defs><circle class="cls-3" cx="172.5" cy="172" r="172"></circle><g><g><ellipse class="cls-5" cx="177.48" cy="172.04" rx="113.19" ry="113.74"></ellipse><path class="cls-4" d="m177.48,58.3c-2.4,0-4.79.08-7.16.22,59.17,3.71,106.02,53.12,106.02,113.51s-46.85,109.8-106.02,113.51c2.37.15,4.76.22,7.16.22,62.51,0,113.19-50.92,113.19-113.74s-50.67-113.74-113.19-113.74h0Z"></path><g><g><path class="cls-6" d="m116.25,73.68c-1.94-.4-3.83.85-4.23,2.79-.18.89-.02,1.76.4,2.49,2.28-1.61,4.62-3.14,7.02-4.59-1.06-.24-2.12-.47-3.19-.69h0Z"></path><path class="cls-6" d="m63.66,157.2c.22.83.71,1.51,1.35,1.98.24-2.1.53-4.19.88-6.26-1.72.63-2.71,2.47-2.23,4.27Z"></path><path class="cls-6" d="m110.33,265.36c0,.33.05.66.14.99.03.1.06.2.1.3,0,0,0,0,0,.01.33,1.71,1.83,2.9,3.51,2.9.23,0,.46-.02.69-.07.87-.17,1.6-.64,2.11-1.28.03,0,.06-.02.09-.03-2.4-1.53-4.74-3.14-7.01-4.84.12.68.24,1.35.36,2.03Z"></path><path class="cls-6" d="m240.19,269.49c.23.04.46.07.69.07,1.68,0,3.18-1.19,3.51-2.9.22-1.11.42-2.22.61-3.33-2.26,1.69-4.58,3.3-6.97,4.82.51.67,1.27,1.17,2.16,1.34h0Z"></path><path class="cls-6" d="m242.93,76.47c-.4-1.94-2.29-3.18-4.23-2.79-1.07.22-2.13.45-3.19.69,2.4,1.44,4.74,2.97,7.02,4.59.41-.73.58-1.6.4-2.49h0Z"></path><path class="cls-6" d="m270.55,104.07c.45-1.93-.75-3.85-2.68-4.3-.94-.22-1.87-.04-2.64.41,1.65,2.04,3.24,4.13,4.75,6.28.19-.8.38-1.6.57-2.4Z"></path></g><path class="cls-2" d="m238.67,177.91c14.32-21.49,25.03-45.59,31.31-71.44-1.51-2.15-3.1-4.25-4.75-6.28-.81.48-1.43,1.28-1.65,2.27-5.72,24.74-15.63,47.87-28.96,68.58-3.99-9.46-8.89-18.62-14.69-27.35-10.07-15.18-22.36-28.36-36.35-39.2,16.88-11.46,36.01-19.58,56.57-23.8,1.05-.22,1.9-.87,2.39-1.74-2.28-1.61-4.62-3.14-7.02-4.59-21.13,4.76-40.75,13.49-58.04,25.62-17.28-12.13-36.91-20.86-58.04-25.62-2.4,1.44-4.74,2.97-7.02,4.59.49.87,1.34,1.52,2.39,1.74,20.56,4.21,39.69,12.33,56.57,23.8-13.99,10.84-26.28,24.01-36.35,39.2-.44.67-.88,1.34-1.32,2.02-22.59-1.08-45.36,1.29-67.51,7.13-.11.03-.22.06-.32.1-.35,2.07-.64,4.15-.88,6.26.84.61,1.94.85,3.02.57,20.16-5.31,40.85-7.66,61.42-7.05-19.29,33.48-26.17,72.27-19.49,110.63,2.27,1.7,4.61,3.32,7.01,4.84,47.1-14.16,87.42-43.26,115.73-81.74,8.16,25.18,9.85,52.17,4.65,78.86-.2,1.05.07,2.07.67,2.86,2.39-1.52,4.71-3.13,6.97-4.82,4.46-25.64,2.87-51.46-4.44-75.77,13.92,9.06,26.81,19.72,38.38,31.79.33.35.72.61,1.13.79,1.05-2.26,2.03-4.56,2.93-6.89-13.26-13.65-28.18-25.52-44.33-35.34h0Zm-61.19-69.06c14.1,10.61,26.44,23.66,36.48,38.8,5.01,7.56,9.33,15.44,12.93,23.58-13.24-6.99-27.19-12.67-41.64-16.89-14.18-4.15-28.69-6.84-43.32-8.08,9.87-14.55,21.88-27.12,35.54-37.4Zm-60.69,151.9c-6.19-37.48,1.11-75.3,20.76-107.65,15.44,1.04,30.77,3.74,45.71,8.11,15.76,4.61,30.9,11,45.14,18.99-27.1,37.73-66.01,66.4-111.6,80.55h0Z"></path></g></g><g><ellipse class="cls-1" cx="177.48" cy="103.43" rx="10.88" ry="10.94"></ellipse><ellipse class="cls-1" cx="135.12" cy="151.48" rx="10.88" ry="10.94"></ellipse><ellipse class="cls-1" cx="234.11" cy="179.41" rx="10.88" ry="10.94"></ellipse><path class="cls-1" d="m113.91,276.29c-6,0-10.88-4.91-10.88-10.94s4.88-10.94,10.88-10.94,10.89,4.91,10.89,10.94-4.88,10.94-10.89,10.94Z"></path><path class="cls-1" d="m241.68,276.91c-6,0-10.88-4.91-10.88-10.94s4.88-10.94,10.88-10.94,10.89,4.91,10.89,10.94-4.88,10.94-10.89,10.94Z"></path><path class="cls-1" d="m267.06,113.81c-6,0-10.89-4.91-10.89-10.94s4.88-10.94,10.89-10.94,10.88,4.91,10.88,10.94-4.88,10.94-10.88,10.94Z"></path><path class="cls-1" d="m239.43,88.12c-6,0-10.88-4.91-10.88-10.94s4.88-10.94,10.88-10.94,10.89,4.91,10.89,10.94-4.88,10.94-10.89,10.94Z"></path><path class="cls-1" d="m113.91,88.12c-6,0-10.88-4.91-10.88-10.94s4.88-10.94,10.88-10.94,10.89,4.91,10.89,10.94-4.88,10.94-10.89,10.94Z"></path><ellipse class="cls-1" cx="64.29" cy="157.12" rx="10.88" ry="10.94"></ellipse></g></g></svg>