<svg xmlns="http://www.w3.org/2000/svg" id="Layer_1" data-name="Layer 1" viewBox="0 0 344.07 344.07"><defs><style>      .cls-1 {        fill: #102c52;      }      .cls-2 {        fill: #66bb6a;      }      .cls-3 {        fill: #3c9e3f;      }    </style></defs><circle class="cls-1" cx="172.5" cy="172" r="172"></circle><g><path class="cls-3" d="m254.13,67.41l-170.86,59.19c-4.18,1.46-6.4,6.03-4.96,10.22,1.48,4.17,6.03,6.38,10.22,4.96l11.39-3.95c4.19-1.44,8.76.78,10.22,4.96,1.42,4.19-.79,8.75-4.96,10.22l-30.38,10.52c-4.18,1.46-6.4,6.03-4.96,10.22,1.48,4.17,6.03,6.38,10.22,4.96l22.78-7.89c4.19-1.45,8.77.77,10.22,4.96,1.45,4.19-.77,8.77-4.96,10.22l-41.77,14.47c-4.18,1.46-6.4,6.03-4.96,10.22.69,2.02,2.17,3.67,4.09,4.58,1.91.96,4.12,1.09,6.13.39l49.36-17.1c4.19-1.45,8.77.77,10.22,4.96s-.77,8.77-4.96,10.22l-22.78,7.89c-4.18,1.46-6.4,6.03-4.96,10.22,1.48,4.17,6.03,6.38,10.22,4.96l34.17-11.84c4.19-1.45,8.77.77,10.22,4.96s-.77,8.77-4.96,10.22l-26.58,9.21c-4.18,1.46-6.4,6.03-4.96,10.22,1.48,4.17,6.03,6.38,10.22,4.96l174.66-60.51c2.1-.73,3.21-3.02,2.48-5.11l-44.72-129.1c-.73-2.1-3.02-3.21-5.11-2.48Z"></path><path class="cls-2" d="m260.69,123.18l11.44,33.03c.48,1.38.16,2.91-.83,3.99-3.14,3.47-9.13,13.29-2.84,34.28.6,2.06-.52,4.22-2.55,4.92l-117.78,40.8c4.19-1.45,6.42-6.03,4.96-10.22s-6.03-6.42-10.22-4.96l-34.17,11.84c-4.19,1.42-8.75-.79-10.22-4.96-1.44-4.19.78-8.76,4.96-10.22l22.78-7.89c4.19-1.45,6.42-6.03,4.96-10.22s-6.03-6.42-10.22-4.96l-49.36,17.1c-2.01.71-4.22.57-6.13-.39-1.93-.91-3.41-2.56-4.09-4.58-1.44-4.19.78-8.76,4.96-10.22l41.77-14.47c4.19-1.45,6.42-6.03,4.96-10.22s-6.03-6.42-10.22-4.96l-22.78,7.89c-4.19,1.42-8.75-.79-10.22-4.96-1.44-4.19.78-8.76,4.96-10.22l30.38-10.52c4.17-1.48,6.38-6.03,4.96-10.22-1.46-4.18-6.03-6.4-10.22-4.96l129.17-44.75c2.02-.7,4.24.3,5.05,2.29,8.04,20.39,18.83,24.39,23.44,25.18,1.44.23,2.64,1.24,3.12,2.62h0Z"></path><g><circle class="cls-3" cx="171.49" cy="172.58" r="36.16"></circle><circle class="cls-3" cx="236.04" cy="150.22" r="12.05"></circle><path class="cls-3" d="m87.39,261.26l3.8-1.32c4.19-1.45,8.77.77,10.22,4.96h0c1.45,4.19-.77,8.77-4.96,10.22l-3.8,1.32c-4.19,1.45-8.77-.77-10.22-4.96h0c-1.45-4.19.77-8.77,4.96-10.22Z"></path><path class="cls-3" d="m45.3,139.75l7.59-2.63c4.19-1.45,8.77.77,10.22,4.96h0c1.45,4.19-.77,8.77-4.96,10.22l-7.59,2.63c-4.19,1.45-8.77-.77-10.22-4.96h0c-1.45-4.19.77-8.77,4.96-10.22Z"></path></g></g></svg>