<svg width="56" height="56" viewBox="0 0 56 56" fill="none" xmlns="http://www.w3.org/2000/svg">
<path fill-rule="evenodd" clip-rule="evenodd" d="M17.0545 41.2081C16.2513 41.2081 15.5197 41.6698 15.174 42.3948L11.0107 51.1262C10.3515 52.5088 11.3595 54.1061 12.8911 54.1061H43.1159C44.6378 54.1061 45.6461 52.5274 45.006 51.1467L44.572 50.2105C44.3521 49.736 44.5584 49.1731 45.0329 48.9531C45.5073 48.7332 46.0703 48.9395 46.2902 49.414L46.7242 50.3501C47.9462 52.986 46.0213 56 43.1159 56H12.8911C9.96703 56 8.04268 52.9505 9.3012 50.3111L13.4645 41.5797C14.1245 40.1957 15.5212 39.3143 17.0545 39.3143H21.8035C22.3265 39.3143 22.7504 39.7382 22.7504 40.2612C22.7504 40.7842 22.3265 41.2081 21.8035 41.2081H17.0545ZM33.1015 40.2612C33.1015 39.7382 33.5254 39.3143 34.0484 39.3143H39.0683C40.6171 39.3143 42.0251 40.2135 42.6765 41.6187L43.8607 44.1731C44.0807 44.6476 43.8743 45.2106 43.3999 45.4305C42.9254 45.6505 42.3624 45.4442 42.1425 44.9697L40.9583 42.4152C40.6171 41.6792 39.8796 41.2081 39.0683 41.2081H34.0484C33.5254 41.2081 33.1015 40.7842 33.1015 40.2612Z" fill="#04549F"/>
<path fill-rule="evenodd" clip-rule="evenodd" d="M27.8769 8.3918C22.5569 8.3918 18.2442 12.7045 18.2442 18.0245C18.2442 23.3444 22.5569 27.6571 27.8769 27.6571C33.1968 27.6571 37.5095 23.3444 37.5095 18.0245C37.5095 12.7045 33.1968 8.3918 27.8769 8.3918ZM16.3503 18.0245C16.3503 11.6585 21.5109 6.49792 27.8769 6.49792C34.2428 6.49792 39.4034 11.6585 39.4034 18.0245C39.4034 24.3904 34.2428 29.551 27.8769 29.551C21.5109 29.551 16.3503 24.3904 16.3503 18.0245Z" fill="#F9991C"/>
<path fill-rule="evenodd" clip-rule="evenodd" d="M21.4444 48C21.4444 47.477 21.8684 47.0531 22.3913 47.0531H33.3628C33.8857 47.0531 34.3097 47.477 34.3097 48C34.3097 48.523 33.8857 48.9469 33.3628 48.9469H22.3913C21.8684 48.9469 21.4444 48.523 21.4444 48Z" fill="#04549F"/>
<path fill-rule="evenodd" clip-rule="evenodd" d="M9.85252 18.1224C9.85252 8.40157 18.0615 0.121682 27.7608 0.00132872C27.7965 0.000886011 27.8322 0.000553709 27.8679 0.000332144C27.9036 0.000553709 27.9393 0.000886011 27.975 0.00132872C37.6743 0.121682 45.8832 8.40157 45.8832 18.1224C45.8832 18.1224 45.925 18.4442 45.8823 19.0692C45.7457 21.0706 44.7434 26.1818 38.7322 33.7959C35.5364 37.8439 31.208 43.385 29.0688 46.1267C28.8349 46.4264 28.6273 46.6926 28.4501 46.9198C28.1801 47.2661 27.9809 47.5217 27.8679 47.6667C27.7549 47.5217 27.5557 47.2661 27.2856 46.9198C27.1085 46.6926 26.9008 46.4264 26.667 46.1267C24.5278 43.385 20.1993 37.8439 17.0035 33.7959C10.9924 26.1818 9.99006 21.0706 9.85343 19.0692C9.81077 18.4442 9.85252 18.1224 9.85252 18.1224ZM11.7343 18.3363C11.7343 18.3367 11.7342 18.3371 11.7342 18.3376C11.7332 18.3496 11.7309 18.383 11.7294 18.4376C11.7265 18.5466 11.7269 18.7409 11.7486 19.0179C11.7921 19.5712 11.9213 20.4608 12.2837 21.6675C13.0079 24.0785 14.6728 27.7873 18.49 32.6224C21.5494 36.4976 25.6443 41.7379 27.8679 44.5872C30.0914 41.7379 34.1863 36.4976 37.2457 32.6224C41.0629 27.7873 42.7279 24.0785 43.452 21.6675C43.8144 20.4608 43.9436 19.5712 43.9871 19.0179C44.0089 18.7409 44.0093 18.5466 44.0063 18.4376C44.0048 18.383 44.0025 18.3496 44.0016 18.3376C44.0015 18.3371 44.0015 18.3367 44.0015 18.3363C43.9934 18.2653 43.9893 18.1939 43.9893 18.1224C43.9893 9.41253 36.5688 1.95489 27.8679 1.89425C19.167 1.95489 11.7464 9.41253 11.7464 18.1224C11.7464 18.1939 11.7424 18.2653 11.7343 18.3363ZM44.0043 18.3599L44.0044 18.3606L44.0045 18.3615C44.0044 18.361 44.0044 18.3605 44.0043 18.3599Z" fill="#04549F"/>
</svg>
