<svg width="75" height="62" viewBox="0 0 75 62" fill="none" xmlns="http://www.w3.org/2000/svg">
<path d="M74.9185 59.5333L68.7981 40.1394C68.6907 39.8002 68.4781 39.5041 68.1912 39.2938C67.9042 39.0835 67.5578 38.97 67.202 38.9698H56.6358L50.8845 20.7444C50.7778 20.4038 50.565 20.1062 50.2772 19.8951C49.9894 19.684 49.6416 19.5704 49.2846 19.571H25.7077C25.3508 19.5704 25.003 19.684 24.7152 19.8951C24.4273 20.1062 24.2145 20.4038 24.1078 20.7444L18.3566 38.9698H7.79415C7.4384 38.97 7.09197 39.0835 6.80501 39.2938C6.51806 39.5041 6.30548 39.8002 6.19807 40.1394L0.0776877 59.5333C-0.00149846 59.7841 -0.0204847 60.0499 0.0222687 60.3094C0.065022 60.5688 0.168312 60.8146 0.323764 61.0267C0.479216 61.2387 0.682455 61.4112 0.917005 61.5301C1.15156 61.6489 1.41082 61.7109 1.67377 61.7108H73.3262C73.5892 61.7109 73.8484 61.6489 74.083 61.5301C74.3175 61.4112 74.5208 61.2387 74.6762 61.0267C74.8317 60.8146 74.935 60.5688 74.9777 60.3094C75.0205 60.0499 75.0015 59.7841 74.9223 59.5333H74.9185ZM26.9337 22.9181H48.0586L53.1271 38.966H21.8662L26.9337 22.9181ZM37.4962 54.4764L33.6556 42.3169H41.3367L37.4962 54.4764ZM3.95361 58.3638L9.02205 42.3169H30.145L35.2135 58.3638H3.95361ZM39.7798 58.3638L44.8483 42.3169H65.9713L71.0397 58.3638H39.7798Z" fill="#034584"/>
<path d="M37.4963 10.0413C37.9402 10.0413 38.3658 9.86493 38.6797 9.55108C38.9935 9.23723 39.1698 8.81156 39.1698 8.36771V1.67354C39.1698 1.22969 38.9935 0.804018 38.6797 0.490168C38.3658 0.176318 37.9402 0 37.4963 0C37.0524 0 36.6268 0.176318 36.3129 0.490168C35.9991 0.804018 35.8228 1.22969 35.8228 1.67354V8.36771C35.8228 8.81156 35.9991 9.23723 36.3129 9.55108C36.6268 9.86493 37.0524 10.0413 37.4963 10.0413V10.0413Z" fill="#0ABDE9"/>
<path d="M53.4608 16.6542C53.6807 16.6545 53.8986 16.6113 54.1018 16.5271C54.3049 16.4429 54.4895 16.3194 54.6447 16.1636L59.3784 11.4308C59.6923 11.1169 59.8686 10.6912 59.8686 10.2474C59.8686 9.80349 59.6923 9.37779 59.3784 9.06393C59.0646 8.75006 58.6389 8.57373 58.195 8.57373C57.7511 8.57373 57.3254 8.75006 57.0116 9.06393L52.2778 13.7977C52.044 14.0317 51.8847 14.3298 51.8202 14.6544C51.7557 14.9789 51.7888 15.3152 51.9154 15.6209C52.042 15.9266 52.2564 16.1879 52.5315 16.3719C52.8065 16.5558 53.1299 16.654 53.4608 16.6542V16.6542Z" fill="#0ABDE9"/>
<path d="M58.3999 30.9511C58.4002 31.3949 58.5766 31.8204 58.8904 32.1342C59.2041 32.448 59.6297 32.6244 60.0734 32.6247H66.7676C67.2115 32.6247 67.6371 32.4484 67.951 32.1345C68.2648 31.8207 68.4412 31.395 68.4412 30.9511C68.4412 30.5073 68.2648 30.0816 67.951 29.7678C67.6371 29.4539 67.2115 29.2776 66.7676 29.2776H60.0734C59.6296 29.2776 59.2039 29.4539 58.8901 29.7678C58.5762 30.0816 58.3999 30.5073 58.3999 30.9511V30.9511Z" fill="#0ABDE9"/>
<path d="M8.22432 32.6198H14.9185C15.3623 32.6198 15.788 32.4435 16.1019 32.1296C16.4157 31.8158 16.592 31.3901 16.592 30.9462C16.592 30.5024 16.4157 30.0767 16.1019 29.7629C15.788 29.449 15.3623 29.2727 14.9185 29.2727H8.22432C7.78047 29.2727 7.3548 29.449 7.04095 29.7629C6.7271 30.0767 6.55078 30.5024 6.55078 30.9462C6.55078 31.3901 6.7271 31.8158 7.04095 32.1296C7.3548 32.4435 7.78047 32.6198 8.22432 32.6198V32.6198Z" fill="#0ABDE9"/>
<path d="M20.3475 16.1636C20.663 16.4685 21.0857 16.6373 21.5245 16.6335C21.9633 16.6298 22.3831 16.4539 22.6935 16.1437C23.0038 15.8334 23.1799 15.4137 23.1838 14.9749C23.1877 14.5361 23.0191 14.1134 22.7143 13.7977L17.9806 9.06393C17.6667 8.75006 17.241 8.57373 16.7972 8.57373C16.3533 8.57373 15.9276 8.75006 15.6137 9.06393C15.2999 9.37779 15.1235 9.80349 15.1235 10.2474C15.1235 10.6912 15.2999 11.1169 15.6137 11.4308L20.3475 16.1636Z" fill="#0ABDE9"/>
<script xmlns=""/></svg>