<svg width="100" height="80" viewBox="0 0 100 80" fill="none" xmlns="http://www.w3.org/2000/svg">
<path d="M32.3749 65.9505C31.9418 65.9097 31.5526 66.2612 31.5242 66.7039C31.1334 73.039 25.8483 78.0021 19.4929 78.0021C13.1375 78.0021 7.85239 73.0388 7.46152 66.7039C7.43339 66.2612 7.05035 65.9127 6.61085 65.9505C6.16673 65.977 5.83072 66.3584 5.85745 66.8012C6.30016 73.9837 12.2898 79.6092 19.4929 79.6092C26.6959 79.6092 32.6858 73.9837 33.1283 66.8012C33.155 66.3584 32.819 65.9772 32.3749 65.9505Z" fill="#0ABDE9"/>
<path d="M25.9704 65.955C25.5514 65.897 25.129 66.2111 25.0741 66.6536C24.7243 69.4586 22.3242 71.5729 19.4926 71.5729C16.6611 71.5729 14.261 69.4586 13.9111 66.6536C13.8563 66.2141 13.4463 65.8891 13.0149 65.955C12.5735 66.0099 12.2615 66.4116 12.3163 66.8513C12.7667 70.46 15.851 73.18 19.4926 73.18C23.1343 73.18 26.2186 70.46 26.669 66.8513C26.7238 66.4116 26.4115 66.0099 25.9704 65.955Z" fill="#034684"/>
<path d="M19.4925 71.573C19.0485 71.573 18.689 71.9325 18.689 72.3766V73.9838C18.689 74.4281 19.0485 74.7874 19.4925 74.7874C19.9368 74.7874 20.2961 74.4281 20.2961 73.9838V72.3766C20.2961 71.9325 19.9366 71.573 19.4925 71.573Z" fill="#034684"/>
<path d="M24.2057 72.5052L23.4021 71.1146C23.1778 70.73 22.6819 70.5966 22.3051 70.821C21.9207 71.0425 21.7889 71.5336 22.0117 71.9182L22.8153 73.3088C22.9644 73.5662 23.2343 73.7106 23.5106 73.7106C23.6472 73.7106 23.7869 73.6761 23.9123 73.6023C24.2967 73.3809 24.4285 72.8896 24.2057 72.5052Z" fill="#034684"/>
<path d="M26.8539 69.2702L25.4634 68.4666C25.082 68.2453 24.5891 68.3756 24.3662 68.7602C24.1434 69.1446 24.2752 69.6357 24.6598 69.8571L26.0503 70.6607C26.1775 70.7344 26.3158 70.769 26.4522 70.769C26.7285 70.769 26.9986 70.6245 27.1475 70.3673C27.3704 69.9827 27.2385 69.4916 26.8539 69.2702Z" fill="#034684"/>
<path d="M14.6254 68.76C14.4024 68.3754 13.9113 68.245 13.5266 68.4648L12.1315 69.2684C11.7469 69.4898 11.6151 69.9809 11.8363 70.3672C11.9854 70.6244 12.2555 70.7688 12.5332 70.7688C12.6696 70.7688 12.8079 70.7343 12.9351 70.6621L14.3302 69.8586C14.7148 69.6371 14.8467 69.146 14.6254 68.76Z" fill="#034684"/>
<path d="M16.6831 70.8179C16.3049 70.595 15.809 70.7236 15.5861 71.1114L14.7793 72.5052C14.5565 72.888 14.6883 73.3795 15.0727 73.6023C15.1983 73.6761 15.3363 73.7107 15.4746 73.7107C15.7509 73.7107 16.0208 73.5662 16.1697 73.3088L16.9764 71.915C17.1995 71.532 17.0677 71.0407 16.6831 70.8179Z" fill="#034684"/>
<path d="M97.7498 58.6534C97.5097 58.2766 97.0123 58.1699 96.6401 58.4038C96.2649 58.6407 96.1534 59.1383 96.3905 59.5135C97.6072 61.4363 98.2506 63.6621 98.2506 65.9475C98.2506 72.5949 92.8432 78.0021 86.1958 78.0021C80.7194 78.0021 75.9242 74.3056 74.5336 69.0143C74.4204 68.5843 73.9888 68.3252 73.5525 68.4414C73.1222 68.5545 72.8664 68.9938 72.9793 69.4225C74.5539 75.42 79.9895 79.6092 86.1958 79.6092C93.7286 79.6092 99.8579 73.4799 99.8577 65.9475C99.8577 63.3575 99.1294 60.835 97.7498 58.6534Z" fill="#0ABDE9"/>
<path d="M86.1962 58.7146C82.2081 58.7146 78.9634 61.9591 78.9634 65.9474C78.9634 69.9357 82.2079 73.1802 86.1962 73.1802C90.1849 73.1802 93.4292 69.9357 93.4292 65.9474C93.4292 61.9591 90.1849 58.7146 86.1962 58.7146ZM86.1962 71.5731C83.0947 71.5731 80.5709 69.049 80.5709 65.9476C80.5709 62.8462 83.0945 60.3221 86.1962 60.3221C89.298 60.3221 91.8219 62.8462 91.8219 65.9476C91.8219 69.049 89.298 71.5731 86.1962 71.5731Z" fill="#034684"/>
<path d="M86.196 57.1074C85.7519 57.1074 85.3926 57.4667 85.3926 57.911V59.5182C85.3926 59.9623 85.7519 60.3218 86.196 60.3218C86.6402 60.3218 86.9997 59.9623 86.9997 59.5182V57.911C86.9997 57.4665 86.6402 57.1074 86.196 57.1074Z" fill="#034684"/>
<path d="M86.196 71.573C85.7519 71.573 85.3926 71.9325 85.3926 72.3766V73.9838C85.3926 74.4281 85.7519 74.7874 86.196 74.7874C86.6402 74.7874 86.9997 74.4281 86.9997 73.9838V72.3766C86.9997 71.9325 86.6402 71.573 86.196 71.573Z" fill="#034684"/>
<path d="M83.6767 59.9777L82.873 58.5856C82.6517 58.201 82.159 58.0675 81.776 58.292C81.3914 58.5134 81.2596 59.0046 81.4824 59.3892L82.286 60.7813C82.4335 61.0387 82.7036 61.1832 82.9813 61.1832C83.1179 61.1832 83.256 61.1487 83.3832 61.0749C83.7678 60.8537 83.8996 60.3624 83.6767 59.9777Z" fill="#034684"/>
<path d="M90.9095 72.5052L90.1059 71.1146C89.8831 70.73 89.3887 70.5966 89.0087 70.821C88.6243 71.0425 88.4925 71.5336 88.7154 71.9182L89.5187 73.3088C89.6678 73.5662 89.9379 73.7106 90.2142 73.7106C90.3509 73.7106 90.4905 73.6761 90.6159 73.6023C91.0005 73.3809 91.1324 72.8896 90.9095 72.5052Z" fill="#034684"/>
<path d="M81.0319 62.0357L79.638 61.2322C79.2504 61.0123 78.7623 61.1427 78.5394 61.5271C78.3182 61.9118 78.45 62.4031 78.8346 62.6259L80.2284 63.4295C80.3556 63.5016 80.4936 63.5362 80.6301 63.5362C80.908 63.5362 81.1778 63.3917 81.3269 63.1343C81.5482 62.7499 81.4163 62.2586 81.0319 62.0357Z" fill="#034684"/>
<path d="M93.5575 69.2702L92.167 68.4666C91.784 68.2453 91.2925 68.3756 91.0698 68.7602C90.847 69.1446 90.9788 69.6357 91.3632 69.8571L92.754 70.6607C92.881 70.7344 93.019 70.769 93.1557 70.769C93.432 70.769 93.702 70.6245 93.8511 70.3673C94.0738 69.9827 93.942 69.4916 93.5575 69.2702Z" fill="#034684"/>
<path d="M79.7694 65.1436H78.1591C77.715 65.1436 77.3555 65.503 77.3555 65.9471C77.3555 66.3912 77.715 66.7507 78.1591 66.7507H79.7694C80.2137 66.7507 80.5732 66.3912 80.5732 65.9471C80.5732 65.5032 80.2137 65.1436 79.7694 65.1436Z" fill="#034684"/>
<path d="M94.2324 65.1436H92.6268C92.1827 65.1436 91.8232 65.503 91.8232 65.9471C91.8232 66.3912 92.1827 66.7507 92.6268 66.7507H94.2324C94.6765 66.7507 95.036 66.3912 95.036 65.9471C95.036 65.5032 94.6765 65.1436 94.2324 65.1436Z" fill="#034684"/>
<path d="M81.3268 68.7584C81.1055 68.3738 80.6142 68.2404 80.2298 68.4648L78.8346 69.27C78.45 69.4915 78.3182 69.9826 78.541 70.3672C78.6885 70.6244 78.9584 70.7689 79.2363 70.7689C79.3729 70.7689 79.511 70.7343 79.638 70.6606L81.0334 69.8554C81.4178 69.6339 81.5496 69.143 81.3268 68.7584Z" fill="#034684"/>
<path d="M93.8511 61.527C93.6283 61.1426 93.1321 61.0092 92.754 61.2336L91.3632 62.0372C90.9788 62.2587 90.847 62.7498 91.0698 63.1342C91.2187 63.3916 91.4888 63.5361 91.7651 63.5361C91.9018 63.5361 92.0414 63.5015 92.167 63.4278L93.5575 62.6242C93.942 62.4028 94.0738 61.9116 93.8511 61.527Z" fill="#034684"/>
<path d="M83.3864 70.8179C83.0096 70.595 82.5121 70.7236 82.2892 71.1114L81.4824 72.5052C81.2596 72.888 81.3914 73.3795 81.776 73.6023C81.9016 73.6761 82.0397 73.7107 82.1779 73.7107C82.454 73.7107 82.7241 73.5662 82.873 73.3088L83.68 71.915C83.9028 71.532 83.771 71.0407 83.3864 70.8179Z" fill="#034684"/>
<path d="M90.6162 58.2904C90.2286 58.0692 89.7389 58.201 89.5175 58.5856L88.7157 59.9761C88.4945 60.3607 88.6263 60.852 89.0107 61.0749C89.1379 61.147 89.2759 61.1816 89.4126 61.1816C89.6903 61.1816 89.9604 61.0371 90.1095 60.7797L90.9114 59.3892C91.1327 59.0046 91.0008 58.5132 90.6162 58.2904Z" fill="#034684"/>
<path d="M98.4234 56.2688C95.9185 50.9102 90.5064 47.4585 84.5776 47.4585C82.4115 47.4585 80.3036 47.9139 78.3116 48.8102C70.6391 52.2743 67.2097 61.3341 70.6675 69.0082C70.7977 69.2986 71.0865 69.4822 71.4004 69.4822C71.4177 69.4822 71.4366 69.4806 71.4538 69.4806C71.7898 69.4569 72.0754 69.2294 72.1713 68.9077C72.1964 68.8199 74.8521 60.1239 81.7037 57.0365C83.5778 56.1905 85.7659 55.7618 88.2082 55.7618C93.1227 55.7618 97.4267 57.512 97.4707 57.5293C97.5728 57.5717 97.6309 57.6141 97.7894 57.5906C98.2635 57.5592 98.612 57.2375 98.612 56.7869C98.612 56.5892 98.5412 56.4085 98.4234 56.2688ZM88.208 54.1547C85.5366 54.1547 83.1255 54.6318 81.0443 55.5707C75.6447 58.0033 72.6938 63.3686 71.4128 66.3539C69.6595 59.9796 72.7629 53.0778 78.9722 50.2762C80.7539 49.4741 82.6406 49.066 84.5774 49.066C89.2725 49.066 93.603 51.4831 96.0923 55.3619C94.2716 54.8203 91.3864 54.1547 88.208 54.1547Z" fill="#034684"/>
<path d="M65.2982 63.5366H39.5844C39.1401 63.5366 38.7808 63.8961 38.7808 64.3403C38.7808 64.7844 39.1401 65.1439 39.5844 65.1439H65.2982C65.7424 65.1439 66.1019 64.7844 66.1019 64.3403C66.1019 63.8961 65.7424 63.5366 65.2982 63.5366Z" fill="#034684"/>
<path d="M84.5686 46.7836L77.2261 14.3377C77.1288 13.9044 76.6986 13.6251 76.2653 13.7318C75.832 13.829 75.5607 14.2591 75.6594 14.6924L83.0021 47.1383C83.0853 47.5117 83.4181 47.7645 83.7855 47.7645C83.8436 47.7645 83.9033 47.7583 83.9627 47.7442C84.3962 47.647 84.6675 47.2169 84.5686 46.7836Z" fill="#034684"/>
<path d="M70.9155 12.887C70.8432 12.4475 70.4228 12.146 69.9925 12.2246C69.5546 12.2954 69.258 12.7079 69.3301 13.1476C70.126 18.0197 71.049 27.6478 70.9312 45.8384L70.9266 46.6593C70.9266 47.1037 71.2859 47.463 71.7302 47.463C72.1745 47.463 72.5339 47.1037 72.5339 46.6591L72.5385 45.8493C72.6579 27.5457 71.7224 17.822 70.9155 12.887Z" fill="#034684"/>
<path d="M46.0127 37.8193C45.5687 37.8193 45.2092 38.1788 45.2092 38.6229V39.7106C43.8343 40.4246 40.3877 42.9061 40.3877 49.873C40.3877 50.3173 40.7472 50.6766 41.1913 50.6766C41.6354 50.6766 41.9949 50.3173 41.9949 49.873C41.9949 42.5749 46.0975 41.0525 46.2671 40.9929C46.5949 40.8829 46.8163 40.5755 46.8163 40.2301V38.6229C46.8163 38.1788 46.4568 37.8193 46.0127 37.8193Z" fill="#034684"/>
<path d="M15.4737 37.8193C15.0296 37.8193 14.6701 38.1788 14.6701 38.6229V39.8613L3.70074 49.2626C3.36315 49.5515 3.32397 50.0599 3.61272 50.3959C3.77288 50.581 3.99733 50.6766 4.2234 50.6766C4.40867 50.6766 4.59535 50.6125 4.74626 50.4837L15.9964 40.8405C16.1752 40.6868 16.2773 40.464 16.2773 40.2301V38.6229C16.2773 38.1788 15.9178 37.8193 15.4737 37.8193Z" fill="#034684"/>
<path d="M13.8671 28.1758C13.4228 28.1758 13.0635 28.5351 13.0635 28.9794V35.408C13.0635 35.8521 13.4228 36.2116 13.8671 36.2116C14.3111 36.2116 14.6706 35.8521 14.6706 35.408V28.9794C14.6706 28.5349 14.3111 28.1758 13.8671 28.1758Z" fill="#0ABDE9"/>
<path d="M47.6205 24.9607C47.1764 24.9607 46.8169 25.3202 46.8169 25.7645V35.4074C46.8169 35.8515 47.1764 36.211 47.6205 36.211C48.0646 36.211 48.424 35.8515 48.424 35.4074V25.7645C48.424 25.3202 48.0646 24.9607 47.6205 24.9607Z" fill="#0ABDE9"/>
<path d="M46.0134 29.7827H15.4745C15.0304 29.7827 14.6709 30.142 14.6709 30.5864C14.6709 31.0305 15.0304 31.39 15.4745 31.39H46.0134C46.4576 31.39 46.8171 31.0305 46.8171 30.5864C46.8171 30.1422 46.4576 29.7827 46.0134 29.7827Z" fill="#0ABDE9"/>
<path d="M70.8212 62.6494C70.5985 62.265 70.1024 62.1316 69.724 62.3558C68.3869 63.1297 66.8567 63.5378 65.2982 63.5378C64.8539 63.5378 64.4946 63.8973 64.4946 64.3414C64.4946 64.7855 64.8539 65.145 65.2982 65.145C67.1393 65.145 68.9474 64.6613 70.5278 63.7466C70.9122 63.5253 71.044 63.0324 70.8212 62.6494Z" fill="#034684"/>
<path d="M71.7292 45.8562C71.2849 45.8562 70.9256 46.2157 70.9256 46.6598C70.9256 52.4199 66.2392 57.1065 60.4791 57.1065C60.0348 57.1065 59.6753 57.4658 59.6753 57.9101C59.6753 58.3542 60.0348 58.7137 60.4791 58.7137C67.1259 58.7137 72.533 53.3064 72.5328 46.6598C72.5328 46.2157 72.1735 45.8562 71.7292 45.8562Z" fill="#034684"/>
<path d="M49.2271 57.1068C45.2391 57.1068 41.9949 53.8627 41.9949 49.8744C41.9949 49.4303 41.6354 49.0708 41.1913 49.0708C40.7472 49.0708 40.3877 49.4303 40.3877 49.8744C40.3877 54.7477 44.3537 58.7139 49.2271 58.7139C49.6713 58.7139 50.0306 58.3542 50.0306 57.9104C50.0306 57.4659 49.6713 57.1068 49.2271 57.1068Z" fill="#034684"/>
<path d="M60.6038 57.1074H49.2279C48.7838 57.1074 48.4243 57.4667 48.4243 57.911C48.4243 58.3551 48.7838 58.7146 49.2279 58.7146H60.6038C61.0479 58.7146 61.4072 58.3549 61.4072 57.911C61.4072 57.4665 61.0479 57.1074 60.6038 57.1074Z" fill="#034684"/>
<path d="M44.4061 26.5684H15.4745C15.0304 26.5684 14.6709 26.9277 14.6709 27.372C14.6709 27.8161 15.0304 28.1756 15.4745 28.1756H44.4061C44.8503 28.1756 45.2098 27.8161 45.2098 27.372C45.2098 26.9275 44.8503 26.5684 44.4061 26.5684Z" fill="#0ABDE9"/>
<path d="M15.4742 26.5684C14.1448 26.5684 13.0635 27.6496 13.0635 28.9791C13.0635 29.4232 13.4228 29.7827 13.8671 29.7827C14.3111 29.7827 14.6706 29.4232 14.6706 28.9791C14.6706 28.5364 15.0315 28.1755 15.4742 28.1755C15.9183 28.1755 16.2778 27.816 16.2778 27.3719C16.2778 26.9275 15.9183 26.5684 15.4742 26.5684Z" fill="#0ABDE9"/>
<path d="M15.4742 36.2104C15.0315 36.2104 14.6706 35.8493 14.6706 35.4068C14.6706 34.9626 14.3111 34.6033 13.8671 34.6033C13.4228 34.6033 13.0635 34.9626 13.0635 35.4068C13.0635 36.7361 14.1448 37.8176 15.4742 37.8176C15.9183 37.8176 16.2778 37.4581 16.2778 37.014C16.2778 36.5695 15.9183 36.2104 15.4742 36.2104Z" fill="#0ABDE9"/>
<path d="M47.6222 34.6018C47.1781 34.6018 46.8186 34.9611 46.8186 35.4054C46.8186 35.8479 46.4577 36.209 46.015 36.209C45.5709 36.209 45.2114 36.5683 45.2114 37.0125C45.2114 37.4566 45.5709 37.8161 46.015 37.8161C47.3443 37.8161 48.4257 36.7346 48.4257 35.4054C48.4257 34.9609 48.0662 34.6018 47.6222 34.6018Z" fill="#0ABDE9"/>
<path d="M46.0147 24.9607C45.5706 24.9607 45.2112 25.3202 45.2112 25.7645C45.2112 26.207 44.8503 26.5681 44.4076 26.5681C43.9635 26.5681 43.604 26.9273 43.604 27.3716C43.604 27.8157 43.9635 28.1752 44.4076 28.1752C45.7368 28.1752 46.8183 27.0937 46.8183 25.7645C46.8183 25.3202 46.4588 24.9607 46.0147 24.9607Z" fill="#0ABDE9"/>
<path d="M47.6206 24.9607H46.015C45.5709 24.9607 45.2114 25.3202 45.2114 25.7645C45.2114 26.2086 45.5709 26.5681 46.015 26.5681H47.6206C48.0646 26.5681 48.4241 26.2086 48.4241 25.7645C48.4241 25.3202 48.0646 24.9607 47.6206 24.9607Z" fill="#0ABDE9"/>
<path d="M46.015 36.209H15.4745C15.0304 36.209 14.6709 36.5683 14.6709 37.0126C14.6709 37.4568 15.0304 37.8163 15.4745 37.8163H46.015C46.4592 37.8163 46.8187 37.4568 46.8187 37.0126C46.8187 36.5681 46.4592 36.209 46.015 36.209Z" fill="#0ABDE9"/>
<path d="M6.39835 50.9131L4.79119 49.306C4.47731 48.9921 3.96872 48.9921 3.65484 49.306C3.34096 49.6198 3.34096 50.1284 3.65484 50.4423L5.262 52.0494C5.41914 52.2064 5.62471 52.2849 5.83028 52.2849C6.03584 52.2849 6.24161 52.2066 6.39835 52.0494C6.71223 51.7356 6.71223 51.227 6.39835 50.9131Z" fill="#034684"/>
<path d="M19.4929 47.4631C8.85707 47.4631 0.205078 55.0349 0.205078 64.3415C0.205078 64.7856 0.564598 65.1451 1.00872 65.1451H37.977C38.4211 65.1451 38.7806 64.7854 38.7808 64.3415C38.7808 55.0354 30.1288 47.4631 19.4929 47.4631ZM1.83588 63.5376C2.321 55.4887 10.0562 49.0702 19.4929 49.0702C28.9297 49.0702 36.6647 55.4885 37.1498 63.5376H1.83588Z" fill="#034684"/>
<path d="M35.0476 60.8911C33.2034 54.8778 26.807 50.6775 19.4926 50.6775C19.0485 50.6775 18.689 51.037 18.689 51.4811C18.689 51.9255 19.0485 52.285 19.4926 52.285C26.107 52.285 31.8724 56.0174 33.5095 61.362C33.6162 61.7074 33.9349 61.9303 34.2785 61.9303C34.3571 61.9303 34.4357 61.9195 34.5141 61.8957C34.9379 61.7655 35.1764 61.3148 35.0476 60.8911Z" fill="#0ABDE9"/>
<path d="M70.9265 10.4943C69.1545 10.4943 67.7121 9.05191 67.7121 7.27997C67.7121 5.50804 69.1545 4.06566 70.9265 4.06566C71.3705 4.06566 71.73 3.70617 71.73 3.26208C71.73 2.81779 71.3705 2.4585 70.9265 2.4585C68.2678 2.4585 66.105 4.62127 66.105 7.27997C66.105 9.93868 68.2678 12.1015 70.9265 12.1015C71.3705 12.1015 71.73 11.742 71.73 11.2979C71.73 10.8536 71.3705 10.4943 70.9265 10.4943Z" fill="#034684"/>
<path d="M80.5571 1.5106C80.4771 1.07253 80.0517 0.79322 79.6215 0.863953L70.7821 2.47111C70.3458 2.55089 70.0569 2.96846 70.1354 3.40632C70.2062 3.79394 70.5452 4.06562 70.9249 4.06562C70.9736 4.06562 71.0222 4.06099 71.0708 4.05316L79.9102 2.446C80.3467 2.36622 80.6354 1.94866 80.5571 1.5106Z" fill="#034684"/>
<path d="M79.9102 12.1147L71.0708 10.5076C70.6375 10.4385 70.2154 10.7164 70.1354 11.1542C70.057 11.5921 70.3458 12.0097 70.782 12.0896L79.6214 13.6968C79.6703 13.7046 79.7189 13.7092 79.7675 13.7092C80.1473 13.7092 80.4865 13.4378 80.557 13.0501C80.6352 12.6125 80.3466 12.1949 79.9102 12.1147Z" fill="#034684"/>
<path d="M79.767 0.851318C79.3229 0.851318 78.9634 1.21061 78.9634 1.6549V12.905C78.9634 13.3491 79.3229 13.7086 79.767 13.7086C80.2113 13.7086 80.5708 13.3491 80.5708 12.905V1.6551C80.5708 1.21081 80.2113 0.851318 79.767 0.851318Z" fill="#034684"/>
<path d="M62.7908 9.01001C62.4281 7.76857 61.0392 7.01362 59.7992 7.37934C58.5248 7.7527 57.7935 9.0932 58.1669 10.3692C58.4651 11.3894 59.4148 12.102 60.4773 12.102C60.708 12.102 60.9373 12.069 61.1586 12.0031C61.7785 11.8208 62.2903 11.4097 62.5977 10.8446C62.9038 10.2796 62.9727 9.62852 62.7908 9.01001ZM61.1855 10.0756C61.0834 10.2641 60.9138 10.4006 60.705 10.4618C60.2907 10.5874 59.8307 10.333 59.7083 9.91728C59.5845 9.49188 59.8277 9.04457 60.2531 8.92059C60.3301 8.89849 60.4068 8.88603 60.4854 8.88603C60.8415 8.88603 61.1491 9.11852 61.2498 9.46194C61.3109 9.67092 61.2876 9.88915 61.1855 10.0756Z" fill="#034684"/>
<path d="M68.2293 9.08236C68.1021 8.65696 67.6596 8.41823 67.2312 8.5392L60.7049 10.4618C60.2797 10.5874 60.0364 11.0331 60.162 11.4601C60.2656 11.81 60.5858 12.036 60.9326 12.036C61.0079 12.036 61.0833 12.025 61.1603 12.0031L67.6864 10.0805C68.1116 9.95506 68.3549 9.50916 68.2293 9.08236Z" fill="#034684"/>
<path d="M67.8669 5.84139C67.7429 5.41599 67.3002 5.17727 66.8686 5.29824L59.7977 7.37942C59.3725 7.50501 59.1291 7.95071 59.2547 8.37752C59.3568 8.72757 59.6783 8.95363 60.0254 8.95363C60.1007 8.95363 60.1761 8.94278 60.253 8.92067L67.3237 6.83949C67.7491 6.71369 67.9922 6.268 67.8669 5.84139Z" fill="#034684"/>
<path d="M11.4148 41.5831C11.2733 41.1628 10.8182 40.9365 10.3976 41.0748L5.57609 42.6819C5.15531 42.8234 4.92784 43.2783 5.0675 43.6991C5.18043 44.0349 5.49451 44.2483 5.83029 44.2483C5.91508 44.2483 5.99988 44.2358 6.08468 44.2075L10.9062 42.6003C11.3267 42.4589 11.5544 42.0039 11.4148 41.5831Z" fill="#034684"/>
<path d="M5.83044 42.6414C5.38635 42.6414 5.02686 43.0007 5.02686 43.4449V46.6593C5.02686 47.1035 5.38635 47.4628 5.83044 47.4628C6.27473 47.4628 6.63402 47.1035 6.63402 46.6593V43.4449C6.63402 43.0005 6.27453 42.6414 5.83044 42.6414Z" fill="#034684"/>
<path d="M70.9266 2.4585C70.4825 2.4585 70.123 2.81779 70.123 3.26208V11.2979C70.123 11.742 70.4825 12.1015 70.9266 12.1015C71.3707 12.1015 71.7302 11.742 71.7302 11.2979V3.26208C71.7302 2.81779 71.3707 2.4585 70.9266 2.4585Z" fill="#034684"/>
<script xmlns=""/></svg>