<svg width="145" height="57" viewBox="0 0 145 57" fill="none" xmlns="http://www.w3.org/2000/svg">
<path d="M143.813 30.0201L139.313 23.2701C139.146 23.0209 138.889 22.8484 138.595 22.7902L105.464 16.2773C103.055 14.5503 82.5106 0.268799 61.8761 0.268799C42.3401 0.268799 30.3845 3.94481 28.119 4.70606L21.7314 2.57703C21.1369 2.38151 20.5042 2.69912 20.3087 3.28793C20.1118 3.87786 20.4305 4.51505 21.0193 4.71057L27.7693 6.96084C28.0102 7.04102 28.2715 7.03652 28.5089 6.95212C28.6319 6.90711 40.9818 2.51908 61.8758 2.51908C82.6246 2.51908 104.125 18.0837 104.338 18.2409C104.472 18.3386 104.626 18.4058 104.787 18.4376L137.7 24.9085L141.752 30.9853V43.0196C141.752 43.0284 141.736 43.8985 140.405 44.1666C138.687 44.5095 130.924 45.0415 127.059 45.2722C126.439 45.3096 125.966 45.8413 126.004 46.4607C126.039 47.0585 126.535 47.5202 127.127 47.5202C127.149 47.5202 127.171 47.5202 127.195 47.5174C127.656 47.489 138.549 46.8341 140.849 46.3724C143.343 45.8717 144.002 43.9598 144.002 43.0193V30.6444C144.002 30.4224 143.936 30.2046 143.813 30.0201Z" fill="#034684"/>
<path d="M22.4201 7.72679C22.1894 7.14783 21.5303 6.86764 20.9578 7.09945C9.62313 11.6335 2.86215 18.3165 2.57971 18.599C2.36872 18.81 2.25 19.0958 2.25 19.3945V25.8787L0.118717 30.1413C0.0407915 30.2974 0 30.4698 0 30.6445V41.8945C0 42.1978 0.13841 43.7867 2.87313 45.1511C5.22637 46.3242 13.5442 47.3924 14.4857 47.5111C14.533 47.5153 14.5803 47.5198 14.6264 47.5198C15.1857 47.5198 15.6701 47.1023 15.7416 46.5355C15.8184 45.918 15.3812 45.3553 14.7648 45.2788C12.3148 44.9713 5.58224 43.9887 3.87716 43.1385C2.46099 42.4313 2.25563 41.8245 2.25 41.8861V30.9107L4.38157 26.6478C4.45921 26.4917 4.5 26.3192 4.5 26.1445V19.8767C5.96793 18.5134 12.249 13.0069 21.7928 9.18909C22.3695 8.95841 22.6508 8.3035 22.4201 7.72679Z" fill="#034684"/>
<path d="M100.126 45.2705H41.6255C41.0038 45.2705 40.5005 45.7735 40.5005 46.3952C40.5005 47.0172 41.0038 47.5205 41.6255 47.5205H100.126C100.748 47.5205 101.251 47.0172 101.251 46.3952C101.251 45.7735 100.748 45.2705 100.126 45.2705Z" fill="#034684"/>
<path d="M73.1255 22.77H68.6259C68.0042 22.77 67.501 23.273 67.501 23.8949C67.501 24.5166 68.0042 25.0198 68.6259 25.0198H73.1255C73.7475 25.0198 74.2504 24.5166 74.2504 23.8949C74.2504 23.273 73.7475 22.77 73.1255 22.77Z" fill="#034684"/>
<path d="M48.3755 22.77H43.8759C43.2542 22.77 42.751 23.273 42.751 23.8949C42.751 24.5166 43.2542 25.0198 43.8759 25.0198H48.3755C48.9972 25.0198 49.5004 24.5166 49.5004 23.8949C49.5004 23.273 48.9972 22.77 48.3755 22.77Z" fill="#034684"/>
<path d="M100.127 16.0201H46.126C35.7405 16.0201 31.5533 7.98112 31.3809 7.6396C31.0995 7.08596 30.4283 6.86062 29.8702 7.14082C29.3163 7.41989 29.0923 8.09336 29.3691 8.64813C29.5658 9.04141 34.3164 18.2701 46.1257 18.2701H100.127C100.749 18.2701 101.252 17.7668 101.252 17.1454C101.252 16.5234 100.749 16.0201 100.127 16.0201Z" fill="#034684"/>
<path d="M21.3754 2.51978C20.7534 2.51978 20.2505 3.02302 20.2505 3.64469V5.89451C20.2505 6.51646 20.7534 7.01942 21.3754 7.01942C21.9971 7.01942 22.5006 6.51618 22.5003 5.89451V3.64469C22.5003 3.02302 21.9971 2.51978 21.3754 2.51978Z" fill="#034684"/>
<path d="M7.87465 34.02H1.12491C0.503242 34.02 0 34.5233 0 35.1449C0 35.7669 0.503242 36.2698 1.12491 36.2698H7.87465C8.49632 36.2698 8.99956 35.7669 8.99956 35.1449C8.99956 34.5233 8.49632 34.02 7.87465 34.02Z" fill="#034684"/>
<path d="M15.6698 21.2274C15.4391 20.6495 14.78 20.3685 14.2075 20.6003L2.95748 25.1003C2.38077 25.331 2.09945 25.9859 2.33013 26.5626C2.50596 27.0032 2.92907 27.2702 3.37496 27.2702C3.51449 27.2702 3.65628 27.2448 3.79244 27.1897L15.0424 22.6897C15.6192 22.459 15.9005 21.8041 15.6698 21.2274Z" fill="#034684"/>
<path d="M14.8463 20.542L3.59602 18.292C2.9819 18.1669 2.39309 18.5655 2.27213 19.1743C2.15003 19.7839 2.54557 20.3761 3.15435 20.4982L14.4046 22.7482C14.4795 22.7636 14.5543 22.7701 14.6266 22.7701C15.1515 22.7701 15.6219 22.4007 15.7285 21.8659C15.8503 21.256 15.4551 20.6639 14.8463 20.542Z" fill="#034684"/>
<path d="M62.9792 14.6739L60.7292 3.42365C60.6071 2.81403 60.0251 2.41174 59.4053 2.54143C58.7965 2.66352 58.401 3.2557 58.5231 3.86532L60.7731 15.1156C60.8797 15.6507 61.3498 16.0198 61.875 16.0198C61.9476 16.0198 62.0224 16.0133 62.097 15.9978C62.7055 15.8757 63.1013 15.2836 62.9792 14.6739Z" fill="#034684"/>
<path d="M143.062 29.5353L129.562 27.2854C128.955 27.1742 128.37 27.5962 128.267 28.2103C128.164 28.8236 128.579 29.4026 129.192 29.5047L142.692 31.7547C142.754 31.7657 142.817 31.7701 142.879 31.7701C143.417 31.7701 143.894 31.3791 143.987 30.8297C144.09 30.2164 143.675 29.6375 143.062 29.5353Z" fill="#034684"/>
<path d="M129.879 27.3886L125.38 25.1388C124.826 24.8639 124.149 25.087 123.871 25.6417C123.594 26.1976 123.818 26.8733 124.374 27.1512L128.873 29.401C129.036 29.4812 129.207 29.5197 129.376 29.5197C129.787 29.5197 130.185 29.2921 130.383 28.8981C130.659 28.3422 130.435 27.6665 129.879 27.3886Z" fill="#034684"/>
<path d="M135.379 25.02H124.877C124.255 25.02 123.752 25.5233 123.752 26.1449C123.752 26.7666 124.255 27.2698 124.877 27.2698H135.379C136.001 27.2698 136.504 26.7666 136.504 26.1449C136.504 25.5233 136.001 25.02 135.379 25.02Z" fill="#034684"/>
<path d="M113.694 43.02H113.67C113.051 43.02 112.559 43.5233 112.559 44.1449C112.559 44.7669 113.073 45.2701 113.694 45.2701C114.314 45.2701 114.819 44.7669 114.819 44.1449C114.819 43.5233 114.314 43.02 113.694 43.02Z" fill="#034684"/>
<path d="M113.626 31.7705C106.804 31.7705 101.251 37.3207 101.251 44.1455C101.251 50.9703 106.804 56.5208 113.626 56.5208C120.449 56.5208 126.002 50.9703 126.002 44.1455C126.002 37.3207 120.449 31.7705 113.626 31.7705ZM113.626 54.2705C108.043 54.2705 103.501 49.7289 103.501 44.1452C103.501 38.5621 108.043 34.0202 113.626 34.0202C119.21 34.0202 123.752 38.5621 123.752 44.1452C123.752 49.7286 119.21 54.2705 113.626 54.2705Z" fill="#034684"/>
<path d="M113.626 36.27C113.005 36.27 112.501 36.7733 112.501 37.3949V39.6447C112.501 40.2667 113.005 40.7697 113.626 40.7697C114.248 40.7697 114.752 40.2667 114.752 39.6447V37.3949C114.752 36.7733 114.248 36.27 113.626 36.27Z" fill="#0ABDE9"/>
<path d="M113.626 47.5203C113.005 47.5203 112.501 48.0232 112.501 48.6449V50.8947C112.501 51.5167 113.005 52.0199 113.626 52.0199C114.248 52.0199 114.752 51.5167 114.752 50.8947V48.6449C114.752 48.0232 114.248 47.5203 113.626 47.5203Z" fill="#0ABDE9"/>
<path d="M109.126 43.02H106.876C106.255 43.02 105.751 43.5233 105.751 44.1449C105.751 44.7669 106.255 45.2701 106.876 45.2701H109.126C109.748 45.2701 110.251 44.7669 110.251 44.1449C110.251 43.5233 109.748 43.02 109.126 43.02Z" fill="#0ABDE9"/>
<path d="M120.376 43.02H118.127C117.505 43.02 117.002 43.5233 117.002 44.1449C117.002 44.7669 117.505 45.2701 118.127 45.2701H120.376C120.998 45.2701 121.502 44.7669 121.502 44.1449C121.502 43.5233 120.998 43.02 120.376 43.02Z" fill="#0ABDE9"/>
<path d="M111.24 40.1681L109.649 38.5773C109.21 38.138 108.498 38.138 108.059 38.5773C107.619 39.0167 107.619 39.7287 108.059 40.1681L109.649 41.7585C109.869 41.9782 110.157 42.0882 110.444 42.0882C110.733 42.0882 111.02 41.9782 111.24 41.7585C111.679 41.3194 111.679 40.6075 111.24 40.1681Z" fill="#0ABDE9"/>
<path d="M119.195 48.1222L117.604 46.5314C117.164 46.0921 116.453 46.0921 116.013 46.5314C115.574 46.9708 115.574 47.6828 116.013 48.1222L117.604 49.7129C117.824 49.9326 118.111 50.0423 118.399 50.0423C118.687 50.0423 118.975 49.9329 119.195 49.7129C119.634 49.2735 119.634 48.5616 119.195 48.1222Z" fill="#0ABDE9"/>
<path d="M111.24 46.5314C110.801 46.0921 110.089 46.0921 109.649 46.5314L108.059 48.1222C107.619 48.5613 107.619 49.2735 108.059 49.7129C108.278 49.9326 108.566 50.0423 108.854 50.0423C109.142 50.0423 109.43 49.9329 109.649 49.7129L111.24 48.1222C111.679 47.6828 111.679 46.9708 111.24 46.5314Z" fill="#0ABDE9"/>
<path d="M119.194 38.5773C118.755 38.138 118.043 38.138 117.603 38.5773L116.013 40.1681C115.573 40.6075 115.573 41.3192 116.013 41.7585C116.232 41.9782 116.52 42.0882 116.808 42.0882C117.096 42.0882 117.384 41.9782 117.603 41.7585L119.194 40.1681C119.634 39.7287 119.634 39.0167 119.194 38.5773Z" fill="#0ABDE9"/>
<path d="M28.1925 43.02H28.1706C27.5489 43.02 27.0566 43.5233 27.0566 44.1449C27.0566 44.7669 27.5717 45.2701 28.1925 45.2701C28.8142 45.2701 29.3174 44.7669 29.3174 44.1449C29.3174 43.5233 28.8142 43.02 28.1925 43.02Z" fill="#034684"/>
<path d="M28.1255 31.7705C21.3029 31.7705 15.7524 37.3207 15.7524 44.1455C15.7524 50.9703 21.3029 56.5208 28.1255 56.5208C34.9489 56.5208 40.5005 50.9703 40.5005 44.1455C40.5005 37.3207 34.9492 31.7705 28.1255 31.7705ZM28.1255 54.2705C22.5435 54.2705 18.0027 49.7289 18.0027 44.1452C18.0027 38.5621 22.5432 34.0202 28.1255 34.0202C33.7086 34.0202 38.2505 38.5621 38.2505 44.1452C38.2505 49.7286 33.7088 54.2705 28.1255 54.2705Z" fill="#034684"/>
<path d="M28.1254 36.27C27.5037 36.27 27.0005 36.7733 27.0005 37.3949V39.6447C27.0005 40.2667 27.5037 40.7697 28.1254 40.7697C28.7471 40.7697 29.2503 40.2667 29.2503 39.6447V37.3949C29.2503 36.7733 28.7471 36.27 28.1254 36.27Z" fill="#0ABDE9"/>
<path d="M28.1254 47.5203C27.5037 47.5203 27.0005 48.0232 27.0005 48.6449V50.8947C27.0005 51.5167 27.5037 52.0199 28.1254 52.0199C28.7471 52.0199 29.2503 51.5167 29.2503 50.8947V48.6449C29.2503 48.0232 28.7471 47.5203 28.1254 47.5203Z" fill="#0ABDE9"/>
<path d="M23.6254 43.02H21.3778C20.7559 43.02 20.2529 43.5233 20.2529 44.1449C20.2529 44.7669 20.7559 45.2701 21.3778 45.2701H23.6254C24.2468 45.2701 24.7503 44.7669 24.7503 44.1449C24.7503 43.5233 24.2471 43.02 23.6254 43.02Z" fill="#0ABDE9"/>
<path d="M34.8752 43.02H32.6254C32.0037 43.02 31.5005 43.5233 31.5005 44.1449C31.5005 44.7669 32.0037 45.2701 32.6254 45.2701H34.8752C35.4969 45.2701 36.0001 44.7669 36.0001 44.1449C36.0001 43.5233 35.4969 43.02 34.8752 43.02Z" fill="#0ABDE9"/>
<path d="M25.739 40.1681L24.1483 38.5773C23.7089 38.138 22.997 38.138 22.5576 38.5773C22.1182 39.0167 22.1182 39.7287 22.5576 40.1681L24.1483 41.7585C24.368 41.9782 24.6561 42.0882 24.9438 42.0882C25.2316 42.0882 25.5194 41.9782 25.739 41.7585C26.1784 41.3194 26.1784 40.6075 25.739 40.1681Z" fill="#0ABDE9"/>
<path d="M33.6931 48.1219L32.1024 46.5312C31.663 46.0918 30.9511 46.0918 30.5117 46.5312C30.0723 46.9706 30.0723 47.6826 30.5117 48.1219L32.1024 49.7127C32.3221 49.9324 32.6102 50.0421 32.8979 50.0421C33.1857 50.0421 33.4735 49.9327 33.6931 49.7127C34.1325 49.2733 34.1325 48.5613 33.6931 48.1219Z" fill="#0ABDE9"/>
<path d="M25.739 46.5312C25.2997 46.0918 24.5877 46.0918 24.1483 46.5312L22.5576 48.1219C22.1182 48.561 22.1182 49.2733 22.5576 49.7127C22.7773 49.9324 23.065 50.0421 23.3528 50.0421C23.6406 50.0421 23.9283 49.9327 24.1483 49.7127L25.739 48.1219C26.1784 47.6826 26.1784 46.9706 25.739 46.5312Z" fill="#0ABDE9"/>
<path d="M33.6931 38.5773C33.2538 38.138 32.5418 38.138 32.1024 38.5773L30.5117 40.1681C30.0723 40.6075 30.0723 41.3192 30.5117 41.7585C30.7314 41.9782 31.0191 42.0882 31.3069 42.0882C31.5949 42.0882 31.8827 41.9782 32.1024 41.7585L33.6931 40.1681C34.1325 39.7287 34.1325 39.0167 33.6931 38.5773Z" fill="#0ABDE9"/>
<script xmlns=""/></svg>