<svg width="33" height="32" viewBox="0 0 33 32" fill="none" xmlns="http://www.w3.org/2000/svg">
<path d="M19.1667 2.66663H8.50001C7.79277 2.66663 7.11449 2.94758 6.61439 3.44767C6.11429 3.94777 5.83334 4.62605 5.83334 5.33329V26.6666C5.83334 27.3739 6.11429 28.0521 6.61439 28.5522C7.11449 29.0523 7.79277 29.3333 8.50001 29.3333H24.5C25.2073 29.3333 25.8855 29.0523 26.3856 28.5522C26.8857 28.0521 27.1667 27.3739 27.1667 26.6666V10.6666L19.1667 2.66663Z" stroke="white" stroke-width="2" stroke-linecap="round" stroke-linejoin="round"/>
<path d="M21.8333 22.6666H11.1667" stroke="white" stroke-width="2" stroke-linecap="round" stroke-linejoin="round"/>
<path d="M21.8333 17.3334H11.1667" stroke="white" stroke-width="2" stroke-linecap="round" stroke-linejoin="round"/>
<path d="M13.8333 12H12.5H11.1667" stroke="white" stroke-width="2" stroke-linecap="round" stroke-linejoin="round"/>
<path d="M19.1667 2.66663V10.6666H27.1667" stroke="white" stroke-width="2" stroke-linecap="round" stroke-linejoin="round"/>
</svg>
