<svg width="56" height="56" viewBox="0 0 56 56" fill="none" xmlns="http://www.w3.org/2000/svg">
<g clip-path="url(#clip0_25_272)">
<path fill-rule="evenodd" clip-rule="evenodd" d="M0 22.575C0 20.5454 1.64535 18.9 3.675 18.9H44.975C47.0046 18.9 48.65 20.5454 48.65 22.575V24.4125C48.65 24.8958 48.2582 25.2875 47.775 25.2875C47.2917 25.2875 46.9 24.8958 46.9 24.4125V22.575C46.9 21.5119 46.0381 20.65 44.975 20.65H3.675C2.61185 20.65 1.75 21.5119 1.75 22.575V39.2C1.75 40.2632 2.61185 41.125 3.675 41.125H33.1625C33.6457 41.125 34.0375 41.5168 34.0375 42C34.0375 42.4833 33.6457 42.875 33.1625 42.875H3.675C1.64535 42.875 0 41.2297 0 39.2V22.575Z" fill="#04549F"/>
<path fill-rule="evenodd" clip-rule="evenodd" d="M7.20665 8.85617C6.16977 8.62132 5.13882 9.2715 4.90397 10.3084L3.60784 16.0308C3.50109 16.5021 3.03248 16.7977 2.56117 16.6909C2.08986 16.5841 1.79432 16.1155 1.90107 15.6442L3.1972 9.9218C3.64556 7.94229 5.61373 6.70105 7.59323 7.14941L42.7183 15.1052C43.1896 15.212 43.4851 15.6806 43.3784 16.1519C43.2716 16.6232 42.803 16.9187 42.3317 16.812L7.20665 8.85617Z" fill="#04549F"/>
<path fill-rule="evenodd" clip-rule="evenodd" d="M16.9626 3.53008C15.9828 3.11755 14.854 3.57745 14.4415 4.5573L13.8464 5.97082C13.6589 6.4162 13.1458 6.62525 12.7004 6.43773C12.2551 6.25022 12.046 5.73715 12.2335 5.29177L12.8286 3.87825C13.6162 2.00763 15.7711 1.12963 17.6417 1.91719L38.052 10.5103C38.4974 10.6978 38.7064 11.2108 38.5189 11.6562C38.3314 12.1016 37.8184 12.3107 37.373 12.1231L16.9626 3.53008Z" fill="#04549F"/>
<path fill-rule="evenodd" clip-rule="evenodd" d="M9.61985 24.15C9.29496 24.15 8.98337 24.2791 8.75364 24.5088L5.60879 27.6537C5.37906 27.8834 5.25 28.195 5.25 28.5199V32.9052C5.25 33.2301 5.37906 33.5417 5.60879 33.7714L8.75364 36.9162C8.98337 37.146 9.29496 37.275 9.61985 37.275H15.75C16.2332 37.275 16.625 37.6668 16.625 38.15C16.625 38.6333 16.2332 39.025 15.75 39.025H9.61985C8.83083 39.025 8.07413 38.7116 7.51621 38.1537L4.37136 35.0088C3.81344 34.4509 3.5 33.6942 3.5 32.9052V28.5199C3.5 27.7309 3.81344 26.9742 4.37136 26.4162L7.51621 23.2714C8.07413 22.7135 8.83083 22.4 9.61985 22.4H15.75C16.2332 22.4 16.625 22.7918 16.625 23.275C16.625 23.7583 16.2332 24.15 15.75 24.15H9.61985Z" fill="#04549F"/>
<path fill-rule="evenodd" clip-rule="evenodd" d="M40.775 23.275C40.775 22.7918 40.3832 22.4 39.9 22.4H32.9C32.4167 22.4 32.025 22.7918 32.025 23.275C32.025 23.7583 32.4167 24.15 32.9 24.15H39.9C40.3832 24.15 40.775 23.7583 40.775 23.275Z" fill="#04549F"/>
<path fill-rule="evenodd" clip-rule="evenodd" d="M24.1818 36.5218C27.4824 36.5218 30.1581 33.8462 30.1581 30.5455C30.1581 27.2449 27.4824 24.5693 24.1818 24.5693C20.8812 24.5693 18.2055 27.2449 18.2055 30.5455C18.2055 33.8462 20.8812 36.5218 24.1818 36.5218ZM24.1818 38.1819C28.3993 38.1819 31.8182 34.763 31.8182 30.5455C31.8182 26.3281 28.3993 22.9092 24.1818 22.9092C19.9644 22.9092 16.5455 26.3281 16.5455 30.5455C16.5455 34.763 19.9644 38.1819 24.1818 38.1819Z" fill="#04549F"/>
<path d="M45.6412 26.075C40.6827 26.075 35.35 27.2463 35.35 29.8173V52.2708C35.35 54.8417 40.6827 56.013 45.6412 56.013C50.5997 56.013 55.9324 54.8417 55.9324 52.2708V29.8173C55.9324 27.2463 50.5997 26.075 45.6412 26.075ZM54.0613 52.2568C53.92 52.776 51.1142 54.1419 45.6412 54.1419C40.1681 54.1419 37.3624 52.776 37.2211 52.2708V50.8001C39.212 51.803 42.5005 52.2708 45.6412 52.2708C48.7819 52.2708 52.0713 51.7983 54.0613 50.7991V52.2568ZM54.0613 48.5145C53.92 49.0337 51.1142 50.3997 45.6412 50.3997C40.1681 50.3997 37.3624 49.0337 37.2211 48.5285V47.0578C39.212 48.0608 42.5005 48.5285 45.6412 48.5285C48.7819 48.5285 52.0713 48.0561 54.0613 47.0569V48.5145ZM54.0613 44.7723C53.92 45.2915 51.1142 46.6574 45.6412 46.6574C40.1681 46.6574 37.3624 45.2915 37.2211 44.7863V43.3156C39.212 44.3185 42.5005 44.7863 45.6412 44.7863C48.7819 44.7863 52.0713 44.3138 54.0613 43.3146V44.7723ZM54.0613 41.03C53.92 41.5492 51.1142 42.9152 45.6412 42.9152C40.1681 42.9152 37.3624 41.5492 37.2211 41.044V39.5733C39.212 40.5762 42.5005 41.044 45.6412 41.044C48.7819 41.044 52.0713 40.5716 54.0613 39.5724V41.03ZM54.0613 37.2877C53.92 37.807 51.1142 39.1729 45.6412 39.1729C40.1681 39.1729 37.3624 37.807 37.2211 37.3018V35.8311C39.212 36.8293 42.5005 37.3018 45.6412 37.3018C48.7819 37.3018 52.0713 36.8293 54.0613 35.8301V37.2877ZM54.0613 33.5455C53.92 34.0647 51.1142 35.4307 45.6412 35.4307C40.1681 35.4307 37.3624 34.0647 37.2211 33.5595V32.0888C39.212 33.0871 42.5005 33.5595 45.6412 33.5595C48.7819 33.5595 52.0713 33.0871 54.0613 32.0879V33.5455ZM45.6412 31.6884C40.1766 31.6884 37.3717 30.3262 37.2211 29.8341V29.8285C37.3717 29.3074 40.1766 27.9461 45.6412 27.9461C51.0675 27.9461 53.8741 29.2877 54.0613 29.8173C53.8741 30.3468 51.0675 31.6884 45.6412 31.6884Z" fill="#F9991C"/>
</g>
<defs>
<clipPath id="clip0_25_272">
<rect width="56" height="56" fill="white"/>
</clipPath>
</defs>
</svg>
