<svg xmlns="http://www.w3.org/2000/svg" xmlns:xlink="http://www.w3.org/1999/xlink" id="Layer_1" data-name="Layer 1" viewBox="0 0 344.07 344.07"><defs><style>      .cls-1 {        fill: #e29817;      }      .cls-2 {        fill: #cee0ea;      }      .cls-3 {        fill: #e6edf4;      }      .cls-4 {        fill: #85808e;      }      .cls-5 {        fill: #f5f8f9;      }      .cls-6 {        fill: #c8e6c9;      }      .cls-7 {        clip-path: url(#clippath-1);      }      .cls-8 {        fill: #102c52;      }      .cls-9 {        fill: #f5b42f;      }      .cls-10 {        clip-path: url(#clippath);      }      .cls-11 {        fill: none;      }      .cls-12 {        fill: #767482;      }      .cls-13 {        fill: #e8f5e9;      }      .cls-14 {        fill: #4caf50;      }      .cls-14, .cls-15 {        fill-rule: evenodd;      }      .cls-16 {        fill: #2a507a;      }      .cls-15 {        fill: #66bb6a;      }    </style><clipPath id="clippath"><circle class="cls-11" cx="-215.5" cy="-357" r="172"></circle></clipPath><clipPath id="clippath-1"><circle class="cls-11" cx="172" cy="-357" r="172"></circle></clipPath></defs><g class="cls-10"><rect class="cls-16" x="-432.5" y="-374" width="535" height="256" transform="translate(110.49 -137.15) rotate(-34.59)"></rect></g><g class="cls-7"><rect class="cls-16" x="-42.5" y="-374" width="535" height="256" transform="translate(179.43 84.25) rotate(-34.59)"></rect></g><circle class="cls-8" cx="172.5" cy="172" r="172"></circle><g><g><path class="cls-9" d="m257.28,294.01l-21.94,1.28H86.29c-2.83,0-5.13-2.3-5.13-5.14V74c0-2.84,2.3-5.14,5.13-5.14h11.81l76.04,8.12,76.03-8.12,5.68,3.05,1.43,222.09Z"></path><path class="cls-1" d="m267.11,74v216.15c0,2.83-2.3,5.14-5.14,5.14h-27.94c2.83,0,5.14-2.3,5.14-5.14V70.04l10.99-1.17h11.81c2.83,0,5.14,2.3,5.14,5.14Z"></path><path class="cls-5" d="m98.1,276.32V68.87h141.08l8.64,1.91.14,204.51-8.78,3.07H100.13c-1.12,0-2.03-.91-2.03-2.03h0Z"></path><path class="cls-3" d="m250.17,68.87v207.45c0,1.12-.91,2.03-2.03,2.03h-8.96V68.87h10.99Z"></path><path class="cls-12" d="m184.24,64.75h-20.2v-11.8c0-5.58,4.52-10.1,10.1-10.1s10.1,4.52,10.1,10.1v11.8Z"></path><path class="cls-4" d="m211.08,78.75l-12.98.9h-61.64c-.84,0-1.52-.68-1.52-1.52v-8.43c0-6.41,5.2-11.61,11.61-11.61h41.61l11.76,1.28c6.41,0,11.61,5.2,11.61,11.61l1.09,6.25c0,.84-.68,1.52-1.52,1.52Z"></path><path class="cls-12" d="m213.34,69.69v8.43c0,.84-.69,1.52-1.52,1.52h-13.71v-9.95c0-6.41-5.2-11.61-11.61-11.61h15.24c6.42,0,11.61,5.2,11.61,11.61Z"></path></g><g><path class="cls-2" d="m224.01,125.58h-80.05c-2.5,0-4.52-1.66-4.52-3.7s2.02-3.7,4.52-3.7h80.05c2.5,0,4.52,1.66,4.52,3.7s-2.02,3.7-4.52,3.7Z"></path><path class="cls-2" d="m124.89,125.58h-9.57c-2.5,0-4.52-1.66-4.52-3.7s2.02-3.7,4.52-3.7h9.57c2.5,0,4.52,1.66,4.52,3.7s-2.02,3.7-4.52,3.7Z"></path></g><g><path class="cls-2" d="m224.01,147.58h-80.05c-2.5,0-4.52-1.66-4.52-3.7s2.02-3.7,4.52-3.7h80.05c2.5,0,4.52,1.66,4.52,3.7s-2.02,3.7-4.52,3.7Z"></path><path class="cls-2" d="m124.89,147.58h-9.57c-2.5,0-4.52-1.66-4.52-3.7s2.02-3.7,4.52-3.7h9.57c2.5,0,4.52,1.66,4.52,3.7s-2.02,3.7-4.52,3.7Z"></path></g><g><path class="cls-2" d="m224.01,168.58h-80.05c-2.5,0-4.52-1.66-4.52-3.7s2.02-3.7,4.52-3.7h80.05c2.5,0,4.52,1.66,4.52,3.7s-2.02,3.7-4.52,3.7Z"></path><path class="cls-2" d="m124.89,168.58h-9.57c-2.5,0-4.52-1.66-4.52-3.7s2.02-3.7,4.52-3.7h9.57c2.5,0,4.52,1.66,4.52,3.7s-2.02,3.7-4.52,3.7Z"></path></g><g><path class="cls-2" d="m224.01,190.58h-80.05c-2.5,0-4.52-1.66-4.52-3.7s2.02-3.7,4.52-3.7h80.05c2.5,0,4.52,1.66,4.52,3.7s-2.02,3.7-4.52,3.7Z"></path><path class="cls-2" d="m124.89,190.58h-9.57c-2.5,0-4.52-1.66-4.52-3.7s2.02-3.7,4.52-3.7h9.57c2.5,0,4.52,1.66,4.52,3.7s-2.02,3.7-4.52,3.7Z"></path></g><g><path class="cls-2" d="m224.01,213.58h-80.05c-2.5,0-4.52-1.66-4.52-3.7s2.02-3.7,4.52-3.7h80.05c2.5,0,4.52,1.66,4.52,3.7s-2.02,3.7-4.52,3.7Z"></path><path class="cls-2" d="m124.89,213.58h-9.57c-2.5,0-4.52-1.66-4.52-3.7s2.02-3.7,4.52-3.7h9.57c2.5,0,4.52,1.66,4.52,3.7s-2.02,3.7-4.52,3.7Z"></path></g><g><path class="cls-2" d="m224.01,235.58h-80.05c-2.5,0-4.52-1.66-4.52-3.7s2.02-3.7,4.52-3.7h80.05c2.5,0,4.52,1.66,4.52,3.7s-2.02,3.7-4.52,3.7Z"></path><path class="cls-2" d="m124.89,235.58h-9.57c-2.5,0-4.52-1.66-4.52-3.7s2.02-3.7,4.52-3.7h9.57c2.5,0,4.52,1.66,4.52,3.7s-2.02,3.7-4.52,3.7Z"></path></g><g id="g4152"><path id="path4137" class="cls-15" d="m240.42,161c-29.52,0-53.5,23.98-53.5,53.5s23.98,53.5,53.5,53.5,53.5-23.98,53.5-53.5-23.98-53.5-53.5-53.5Z"></path><path id="path4140" class="cls-14" d="m240.42,161c-.77,0-1.54.03-2.3.06,28.45,1.21,51.2,24.69,51.2,53.44s-22.75,52.23-51.2,53.44c.76.03,1.53.06,2.3.06,29.52,0,53.5-23.98,53.5-53.5s-23.98-53.5-53.5-53.5Z"></path><path id="path4143" class="cls-13" d="m271.15,187.33c-1.97,0-3.86.78-5.25,2.18l-35.73,35.76-15.24-15.25s0,0,0,0c-2.88-2.88-7.62-2.88-10.5,0,0,0,0,0,0,0-2.88,2.88-2.88,7.62,0,10.5h0l17.93,17.94c4.27,4.28,11.34,4.28,15.62,0l38.42-38.45c2.88-2.88,2.88-7.62,0-10.5-1.39-1.39-3.28-2.18-5.25-2.18h0,0Z"></path><path id="path4146" class="cls-6" d="m271.15,187.33c-.79,0-1.56.13-2.3.37,1.1.36,2.12.97,2.95,1.8,2.88,2.88,2.88,7.62,0,10.5l-38.42,38.45c-1.56,1.56-3.48,2.54-5.51,2.96,3.54.74,7.39-.24,10.11-2.96l38.42-38.45c2.88-2.88,2.88-7.62,0-10.5-1.39-1.39-3.28-2.18-5.25-2.18h0Z"></path></g></g></svg>