<svg xmlns="http://www.w3.org/2000/svg" xmlns:xlink="http://www.w3.org/1999/xlink" id="Layer_1" data-name="Layer 1" viewBox="0 0 344.07 344.07"><defs><style>      .cls-1 {        fill: #e29817;      }      .cls-2 {        fill: #cee0ea;      }      .cls-3 {        fill: #f99be3;      }      .cls-4 {        clip-path: url(#clippath-2);      }      .cls-5 {        fill: #e6edf4;      }      .cls-6 {        fill: #90d1fc;      }      .cls-7 {        fill: #85808e;      }      .cls-8 {        fill: #f5f8f9;      }      .cls-9 {        clip-path: url(#clippath-1);      }      .cls-10 {        fill: #102c52;      }      .cls-11 {        fill: #656477;      }      .cls-12 {        fill: #f5b42f;      }      .cls-13 {        clip-path: url(#clippath);      }      .cls-14 {        fill: none;      }      .cls-15 {        fill: #66c1ff;      }      .cls-16 {        fill: #767482;      }      .cls-17 {        fill: #39b8ff;      }      .cls-18 {        fill: #2a507a;      }    </style><clipPath id="clippath"><circle class="cls-14" cx="172.5" cy="-357" r="172"></circle></clipPath><clipPath id="clippath-1"><circle class="cls-14" cx="560" cy="-357" r="172"></circle></clipPath><clipPath id="clippath-2"><circle class="cls-14" cx="172.5" cy="172" r="172"></circle></clipPath></defs><g class="cls-13"><rect class="cls-18" x="-44.5" y="-374" width="535" height="256" transform="translate(179.07 83.11) rotate(-34.59)"></rect></g><g class="cls-9"><rect class="cls-18" x="345.5" y="-374" width="535" height="256" transform="translate(248.01 304.51) rotate(-34.59)"></rect></g><circle class="cls-10" cx="172.5" cy="172" r="172"></circle><g class="cls-4"><g><g><path class="cls-12" d="m246.24,297.01l-21.94,1.28H75.26c-2.83,0-5.13-2.3-5.13-5.14V77c0-2.84,2.3-5.14,5.13-5.14h11.81l76.04,8.12,76.03-8.12,5.68,3.05,1.43,222.09Z"></path><path class="cls-1" d="m256.08,77v216.15c0,2.83-2.3,5.14-5.14,5.14h-27.94c2.83,0,5.14-2.3,5.14-5.14V73.04l10.99-1.17h11.81c2.83,0,5.14,2.3,5.14,5.14Z"></path><path class="cls-8" d="m87.07,279.32V71.87h141.08l8.64,1.91.14,204.51-8.78,3.07H89.1c-1.12,0-2.03-.91-2.03-2.03h0Z"></path><path class="cls-5" d="m239.13,71.87v207.45c0,1.12-.91,2.03-2.03,2.03h-8.96V71.87h10.99Z"></path><path class="cls-16" d="m173.2,67.75h-20.2v-11.8c0-5.58,4.52-10.1,10.1-10.1s10.1,4.52,10.1,10.1v11.8Z"></path><path class="cls-7" d="m200.05,81.75l-12.98.9h-61.64c-.84,0-1.52-.68-1.52-1.52v-8.43c0-6.41,5.2-11.61,11.61-11.61h41.61l11.76,1.28c6.41,0,11.61,5.2,11.61,11.61l1.09,6.25c0,.84-.68,1.52-1.52,1.52Z"></path><path class="cls-16" d="m202.31,72.69v8.43c0,.84-.69,1.52-1.52,1.52h-13.71v-9.95c0-6.41-5.2-11.61-11.61-11.61h15.24c6.42,0,11.61,5.2,11.61,11.61Z"></path></g><g><path class="cls-2" d="m198.33,168.58h-65.45c-2.04,0-3.7-1.66-3.7-3.7s1.66-3.7,3.7-3.7h65.45c2.04,0,3.7,1.66,3.7,3.7s-1.66,3.7-3.7,3.7Z"></path><path class="cls-2" d="m117.28,168.58h-7.83c-2.04,0-3.7-1.66-3.7-3.7s1.66-3.7,3.7-3.7h7.83c2.04,0,3.7,1.66,3.7,3.7s-1.66,3.7-3.7,3.7Z"></path></g><path class="cls-3" d="m126.48,124.8h73.25c1.42,0,2.58-1.15,2.58-2.58v-16.68c0-1.42-1.15-2.58-2.58-2.58h-73.25c-1.42,0-2.58,1.15-2.58,2.58v16.68c0,1.42,1.15,2.58,2.58,2.58h0Z"></path><path class="cls-3" d="m175.8,261h40.46c1.4,0,2.54-1.14,2.54-2.54v-16.76c0-1.4-1.14-2.54-2.54-2.54h-40.46c-1.4,0-2.54,1.14-2.54,2.54v16.76c0,1.4,1.14,2.54,2.54,2.54h0Z"></path><g><path class="cls-2" d="m156.21,264.81h-49.09c-2.1,0-3.81-1.71-3.81-3.81s1.71-3.81,3.81-3.81h49.09c2.1,0,3.81,1.71,3.81,3.81s-1.71,3.81-3.81,3.81Z"></path><g><path class="cls-2" d="m171.42,194.45h-40.17c-2.1,0-3.81-1.71-3.81-3.81s1.71-3.81,3.81-3.81h40.17c2.1,0,3.81,1.71,3.81,3.81,0,2.1-1.7,3.81-3.81,3.81Z"></path><path class="cls-2" d="m115.18,194.45h-8.06c-2.1,0-3.81-1.71-3.81-3.81s1.71-3.81,3.81-3.81h8.06c2.1,0,3.81,1.71,3.81,3.81s-1.71,3.81-3.81,3.81Z"></path></g><g><path class="cls-2" d="m208.35,220.43h-34.41c-2.1,0-3.81-1.71-3.81-3.81s1.71-3.81,3.81-3.81h34.41c2.1,0,3.81,1.71,3.81,3.81,0,2.1-1.7,3.81-3.81,3.81Z"></path><path class="cls-2" d="m149.91,220.43h-18.66c-2.1,0-3.81-1.71-3.81-3.81s1.71-3.81,3.81-3.81h18.66c2.1,0,3.81,1.71,3.81,3.81,0,2.1-1.71,3.81-3.81,3.81Z"></path><path class="cls-2" d="m115.18,220.43h-8.06c-2.1,0-3.81-1.71-3.81-3.81s1.71-3.81,3.81-3.81h8.06c2.1,0,3.81,1.71,3.81,3.81s-1.71,3.81-3.81,3.81Z"></path></g></g><g><path class="cls-16" d="m196.94,234.19l-6.42,3.61c-1.43.83-2.31.93-3.48-.24-1.09-1.09-1.65-2.35-1.41-3.76.04-.09.09-.19.14-.28l3.86-6.64,4.75,1.86,2.56,5.45Z"></path><path class="cls-7" d="m206.71,216.8l-8.77-3.9c-.51.66-.98,1.36-1.4,2.09l-6.9,11.9,5.67,5.67,14.82-8.78-3.42-6.98Z"></path><path class="cls-6" d="m251.09,159.51l-51.46,51.46c-.61.61-1.17,1.25-1.69,1.93l12.16,12.16,53.27-53.27-12.28-12.28Z"></path><path class="cls-2" d="m271.3,182.86c-.96-.96-.96-2.51,0-3.46l14.94-14.94c.68-.68.68-1.79,0-2.47l-8.08-8.08c-.96-.96-.96-2.51,0-3.46s2.51-.96,3.46,0l8.08,8.08c2.59,2.59,2.59,6.8,0,9.4l-14.94,14.94c-.96.96-2.51.96-3.46,0Z"></path><path class="cls-8" d="m283.08,151.9l-19.8,19.8-12.19-12.19,19.8-19.8,8.16,4.63,4.04,7.57Z"></path><path class="cls-11" d="m197.41,234.65l-6.64,3.86c-1.43.83-3.24.59-4.41-.58-1.09-1.09-1.37-2.75-.72-4.13.09-.05.18-.09.27-.15l6.64-3.86,4.21,1.48.64,3.37Z"></path><path class="cls-16" d="m211.4,226.35c-.66.51-1.36.98-2.09,1.4l-11.9,6.9-4.85-4.85,11.9-6.9c.73-.42,1.43-.89,2.09-1.4l3.37.64,1.48,4.21Z"></path><path class="cls-15" d="m264.78,173.2l-51.46,51.45c-.61.61-1.25,1.17-1.93,1.69l-4.85-4.85c.68-.52,1.32-1.08,1.93-1.69l51.46-51.46,4.85,4.85Z"></path><path class="cls-6" d="m290.68,146.38l-6.43,6.69-13.37-13.37,6.93-6.93c2.55-2.55,6.68-2.55,9.24,0l.4.4,3.23,3.97c2.55,2.55,2.55,6.68,0,9.24Z"></path><path class="cls-5" d="m284.58,153.4l-19.8,19.8-4.85-4.85,19.8-19.8,3.67,1.18,1.18,3.67Z"></path><path class="cls-15" d="m291.51,146.47l-6.93,6.93-4.85-4.85,6.93-6.93c2.49-2.49,2.55-6.47.19-9.03.07.06.13.12.2.19l4.46,4.46c2.55,2.55,2.55,6.68,0,9.24h0Z"></path><path class="cls-15" d="m260.95,178.01l-5.79-4.89-9.6-9.6c-.89-.89-.89-2.34,0-3.23l3.85-3.85c.89-.89,2.34-.89,3.23,0l9.6,9.6,4.84,5.77c.89.89.89,2.34,0,3.23l-2.9,2.97c-.89.89-2.34.89-3.23,0h0Z"></path><path class="cls-17" d="m267.84,174.88l-3.85,3.85c-.89.89-2.34.89-3.23,0l-5.6-5.6,7.08-7.08,5.6,5.6c.89.89.89,2.34,0,3.23Z"></path></g></g></g></svg>