<svg xmlns="http://www.w3.org/2000/svg" xmlns:xlink="http://www.w3.org/1999/xlink" id="Layer_1" data-name="Layer 1" viewBox="0 0 344.07 344.07"><defs><style>      .cls-1 {        fill: #fff;      }      .cls-2 {        fill: #ff7581;      }      .cls-3 {        fill: #e29817;      }      .cls-4 {        fill: #212123;      }      .cls-5 {        fill: #cee0ea;      }      .cls-6 {        fill: #8a8a8e;      }      .cls-7 {        fill: #98a2f5;      }      .cls-8 {        fill: #f2cf77;      }      .cls-9 {        fill: #34324c;      }      .cls-10 {        clip-path: url(#clippath-1);      }      .cls-11 {        fill: #102c52;      }      .cls-12 {        fill: #66bb6a;      }      .cls-13 {        fill: #fddf8c;      }      .cls-14 {        fill: #382f93;      }      .cls-15 {        fill: #fdc7b4;      }      .cls-16 {        fill: #f5b42f;      }      .cls-17 {        clip-path: url(#clippath);      }      .cls-18 {        fill: none;      }      .cls-19 {        opacity: .1;      }      .cls-20 {        fill: #efb5a3;      }      .cls-21 {        fill: #2a507a;      }      .cls-22 {        fill: #6675e9;      }    </style><clipPath id="clippath"><circle class="cls-18" cx="-209" cy="-357" r="172"></circle></clipPath><clipPath id="clippath-1"><circle class="cls-18" cx="172.5" cy="172" r="172"></circle></clipPath></defs><g class="cls-17"><rect class="cls-21" x="-423.5" y="-374" width="535" height="256" transform="translate(112.08 -132.04) rotate(-34.59)"></rect></g><circle class="cls-11" cx="172.5" cy="172" r="172"></circle><g class="cls-10"><g id="_75" data-name="75"><g><path class="cls-4" d="m169.1,97.03v224.39c0,7.62-6.18,13.81-13.8,13.81H42.22c-7.63,0-13.81-6.18-13.81-13.81V97.03c0-7.63,6.18-13.81,13.81-13.81h113.08c7.62,0,13.8,6.18,13.8,13.81Z"></path><path class="cls-1" d="m162.38,110.23v186.1c0,3.38-2.38,6.22-5.56,6.91-.49.11-1,.17-1.53.17H42.22c-3.31,0-6.09-2.28-6.87-5.35-.14-.55-.21-1.14-.21-1.73V110.23c0-3.91,3.18-7.09,7.08-7.09h113.08c.12,0,.25,0,.36,0,3.74.2,6.72,3.29,6.72,7.08h0Z"></path><path class="cls-1" d="m115.1,94.28c0,.43-.18.83-.46,1.12-.29.29-.69.47-1.13.47h-29.51c-.87,0-1.58-.72-1.58-1.59,0-.44.18-.83.46-1.13.29-.29.68-.46,1.12-.46h29.51c.88,0,1.59.71,1.59,1.59Z"></path><path class="cls-1" d="m109.3,318.66c0,1.39-.56,2.65-1.47,3.55-.91.91-2.17,1.47-3.55,1.47h-11.02c-2.78,0-5.03-2.25-5.03-5.02,0-1.39.56-2.65,1.47-3.55.91-.91,2.17-1.47,3.56-1.47h11.02c2.77,0,5.02,2.25,5.02,5.02Z"></path><path class="cls-13" d="m148.63,118.14v21.09c0,2.75-2.24,4.99-4.99,4.99H53.85c-2.72,0-4.96-2.24-4.96-4.96v-21.12c0-2.72,2.24-4.96,4.96-4.96h89.82c2.72,0,4.96,2.24,4.96,4.96Z"></path></g><g><path class="cls-22" d="m275.5,279.36l-6.15,56.83h-49.06v-56.83h55.21Z"></path><g class="cls-19"><path d="m274.79,279.37l-6.15,56.83h-23.44l-6.15-56.83h35.74Z"></path></g><g><g><path class="cls-15" d="m175.79,197.53c-10.59-3.75-24.06-8.9-30.56-11.42-2.14-.83-4.54.23-5.39,2.36-.85,2.14.18,4.58,2.32,5.44l10.3,4.16c-5.03,16.35,12.09,20.01,16.84,20.71l6.49-21.25Z"></path><g><path class="cls-7" d="m297.38,336.19v-56.83s-55.21,0-55.21,0l6.15,56.83h49.06Z"></path><path class="cls-16" d="m163.5,217.3l46.19,15.78c7.13,2.51,15.05-.06,19.36-6.29l7.83-67.22-14.95.61c-5.75.23-10.69,4.15-12.23,9.69l-8.9,31.96-31.6-6.68-5.7,22.14Z"></path><path class="cls-16" d="m299.2,175.77v103.08h-78.91v-101.5c0-9.81,7.94-17.74,17.74-17.74h44.95c8.98,0,16.21,7.2,16.21,16.16Z"></path><path class="cls-3" d="m299.2,212.1v66.75h-78.91v-42.32c7.11-.4,14.14-1.93,21.12-3.46,13.12-2.83,26.39-5.73,38.4-11.68,3.17-1.59,6.32-3.4,8.7-6.01,1.08-1.19,1.98-2.52,2.61-3.97.54-1.22.4-3.06,1.93-3,1.11.03,2.86,1.93,3.85,2.47.74.43,1.53.82,2.3,1.22Z"></path><path class="cls-8" d="m221.35,214.96h-2.13v-10.66c0-.91-.4-1.77-1.12-2.44-2.01-1.86-3.16-4.48-3.16-7.2s1.14-5.38,3.2-7.29c.72-.66,1.11-1.52,1.11-2.43v-8.59h2.13v8.59c0,1.49-.66,2.94-1.79,3.99-1.62,1.49-2.52,3.53-2.52,5.73s.88,4.16,2.48,5.63c1.15,1.05,1.8,2.52,1.8,4v10.66Z"></path><path d="m220.29,271.8h78.92v8.06h-78.92v-8.06Z"></path><path class="cls-1" d="m251.82,282.34h-15.7c-1.41,0-2.55-1.15-2.55-2.55v-7.64c0-1.41,1.15-2.55,2.55-2.55h15.7c1.41,0,2.55,1.14,2.55,2.55v7.64c0,1.41-1.15,2.55-2.55,2.55Zm-15.7-10.3l-.11,7.75,15.81.11c.06,0,.11-.05.11-.11v-7.64l-15.81-.11Z"></path></g><path class="cls-15" d="m233.09,233.68l9.33-1.26-2.71-18.53-6.13-.72-11.86-1.81,1.2,6.26,4.87,1.93"></path><path class="cls-16" d="m269.3,210.9s7.22-35.71,15.22-51.31h.06c8.86-.41,16.18,6.8,15.92,15.67l-1.28,28.2-5.15,18.65c-2.01,7.29-8.65,12.33-16.21,12.33l-40.03-.02v-22.1l31.49-1.42Z"></path><path class="cls-8" d="m237.86,213.38l-.1-2.13,30.69-1.38,6.04-25.08,2.07.5-6.41,26.63-32.28,1.46Z"></path><path class="cls-4" d="m196.73,242.69h32.44c3.08,0,5.2-3.08,4.11-5.96l-9.1-23.85c-.65-1.7-2.28-2.83-4.11-2.83h-32.44c-3.08,0-5.2,3.08-4.11,5.96l9.1,23.85c.65,1.7,2.28,2.83,4.11,2.83Z"></path><path class="cls-14" d="m183.24,214.46c.28-.06.56-.08.87-.08h32.44c1.83,0,3.47,1.13,4.12,2.85l9.1,23.85c.2.51.28,1.01.28,1.52,2.59-.54,4.2-3.27,3.21-5.86l-9.1-23.84c-.65-1.72-2.28-2.85-4.09-2.85h-32.44c-2.54,0-4.43,2.09-4.4,4.42Z"></path><path class="cls-15" d="m213.6,228.35c.99,3.48,4.17,5.83,7.75,5.83h.36l11.36-.6-6.19-16.59-6.99,1.26c-4.67.83-7.59,5.53-6.29,10.1Z"></path></g><g><g><path class="cls-6" d="m222.85,99.53c-.06.39-1.39,27.28-5,34.8-3.61,7.52,26.06,25.33,34.51,18.29,8.45-7.04,5.87-34.4,5.87-34.4l-8.16-11.55-27.23-7.14Z"></path><path class="cls-15" d="m245.27,129.85h24.51v29.75h-24.51v-29.75Z"></path><path class="cls-20" d="m245.27,124.8v22.85s10.83,5.6,24.51,3.5v-26.35h-24.51Z"></path><path class="cls-15" d="m226.9,113.46v14.75c0,11.83,9.57,21.43,21.43,21.43s21.43-9.6,21.43-21.43v-14.75c0-11.83-9.6-21.43-21.43-21.43-5.92,0-11.29,2.4-15.18,6.29-3.86,3.89-6.26,9.23-6.26,15.15Z"></path><ellipse class="cls-9" cx="249.36" cy="120.59" rx="2" ry="2.64"></ellipse><ellipse class="cls-9" cx="235.13" cy="120.59" rx="2" ry="2.64"></ellipse><path class="cls-1" d="m250.72,132.65c0,.12.04.23.04.35,0,4.49-3.64,8.13-8.13,8.13s-8.13-3.64-8.13-8.13c0-.12.03-.23.04-.35h16.19Z"></path><path class="cls-6" d="m291.8,143.49c-5.3,15.59-22.02,10.74-22.02,10.74v-36.57c-24.18-11.79-28.51-17.69-29.28-19.53,6.26-4.42,21.63-15.99,21.63-15.99,23.35-6.32,25.68,18.62,24.18,25.31-1.5,6.69,5.5,36.03,5.5,36.03Z"></path><ellipse class="cls-6" cx="243.79" cy="94.48" rx="26.85" ry="17.76"></ellipse></g><path class="cls-15" d="m269.78,117.64c3.94.02,7.13,3.22,7.13,7.16s-3.19,7.14-7.13,7.16v-14.33Z"></path></g><path class="cls-15" d="m245.28,159.61l-.66,15.85,25.14-15.85h-24.49Z"></path></g></g><path class="cls-12" d="m82.44,155.85v33.12c0,1.8-1.48,3.28-3.28,3.28h-33.12c-1.8,0-3.28-1.48-3.28-3.28v-33.12c0-1.8,1.48-3.28,3.28-3.28h33.12c1.8,0,3.28,1.48,3.28,3.28Z"></path><g><path class="cls-5" d="m154.61,161.88c0,1.45-1.19,2.64-2.64,2.64h-60.82c-1.45,0-2.64-1.19-2.64-2.64s1.19-2.64,2.64-2.64h60.82c1.45,0,2.64,1.19,2.64,2.64Z"></path><path class="cls-5" d="m154.61,172.4c0,1.45-1.19,2.64-2.64,2.64h-60.82c-1.45,0-2.64-1.19-2.64-2.64s1.19-2.64,2.64-2.64h60.82c1.45,0,2.64,1.19,2.64,2.64Z"></path><path class="cls-5" d="m129.77,182.93c0,1.45-1.19,2.64-2.64,2.64h-35.98c-1.45,0-2.64-1.19-2.64-2.64s1.19-2.64,2.64-2.64h35.98c1.45,0,2.64,1.19,2.64,2.64Z"></path></g><path class="cls-2" d="m82.44,204.86v33.12c0,1.8-1.48,3.28-3.28,3.28h-33.12c-1.8,0-3.28-1.48-3.28-3.28v-33.12c0-1.8,1.48-3.28,3.28-3.28h33.12c1.8,0,3.28,1.48,3.28,3.28Z"></path><g><path class="cls-5" d="m154.61,210.9c0,1.45-1.19,2.64-2.64,2.64h-60.82c-1.45,0-2.64-1.19-2.64-2.64s1.19-2.64,2.64-2.64h60.82c1.45,0,2.64,1.19,2.64,2.64Z"></path><path class="cls-5" d="m154.61,221.42c0,1.45-1.19,2.64-2.64,2.64h-60.82c-1.45,0-2.64-1.19-2.64-2.64s1.19-2.64,2.64-2.64h60.82c1.45,0,2.64,1.19,2.64,2.64Z"></path><path class="cls-5" d="m129.77,231.94c0,1.45-1.19,2.64-2.64,2.64h-35.98c-1.45,0-2.64-1.19-2.64-2.64s1.19-2.64,2.64-2.64h35.98c1.45,0,2.64,1.19,2.64,2.64Z"></path></g><path class="cls-12" d="m82.44,253.88v33.12c0,1.8-1.48,3.28-3.28,3.28h-33.12c-1.8,0-3.28-1.48-3.28-3.28v-33.12c0-1.8,1.48-3.28,3.28-3.28h33.12c1.8,0,3.28,1.48,3.28,3.28Z"></path><path class="cls-1" d="m57.87,278.71c-.47,0-.91-.19-1.24-.51l-3.77-3.77c-.69-.69-.69-1.8,0-2.48s1.8-.69,2.48,0l2.53,2.53,12.15-12.15c.69-.69,1.8-.69,2.48,0s.69,1.8,0,2.48l-13.39,13.39c-.33.33-.78.51-1.24.51Z"></path><path class="cls-1" d="m57.87,180.86c-.47,0-.91-.19-1.24-.51l-3.77-3.77c-.69-.69-.69-1.8,0-2.48.69-.69,1.8-.69,2.48,0l2.53,2.53,12.15-12.15c.69-.69,1.8-.69,2.48,0,.69.69.69,1.8,0,2.48l-13.39,13.39c-.33.33-.78.51-1.24.51Z"></path><g><path class="cls-5" d="m154.61,259.92c0,1.45-1.19,2.64-2.64,2.64h-60.82c-1.45,0-2.64-1.19-2.64-2.64s1.19-2.64,2.64-2.64h60.82c1.45,0,2.64,1.19,2.64,2.64Z"></path><path class="cls-5" d="m154.61,270.44c0,1.45-1.19,2.64-2.64,2.64h-60.82c-1.45,0-2.64-1.19-2.64-2.64s1.19-2.64,2.64-2.64h60.82c1.45,0,2.64,1.19,2.64,2.64Z"></path><path class="cls-5" d="m129.77,280.96c0,1.45-1.19,2.64-2.64,2.64h-35.98c-1.45,0-2.64-1.19-2.64-2.64s1.19-2.64,2.64-2.64h35.98c1.45,0,2.64,1.19,2.64,2.64Z"></path></g><path class="cls-1" d="m72.6,228.82c.71.73.71,1.88,0,2.59-.37.37-.83.54-1.29.54s-.93-.17-1.29-.54l-7.39-7.39-7.42,7.39c-.37.37-.83.54-1.29.54-.49,0-.95-.17-1.29-.54-.73-.71-.73-1.85,0-2.59l7.41-7.39-7.41-7.42c-.73-.71-.73-1.88,0-2.59.71-.71,1.85-.71,2.59,0l7.42,7.41,7.39-7.41c.71-.71,1.88-.71,2.59,0,.71.71.71,1.88,0,2.59l-7.39,7.42,7.39,7.39Z"></path></g></g></svg>