<svg xmlns="http://www.w3.org/2000/svg" id="Layer_1" data-name="Layer 1" viewBox="0 0 344.07 344.07"><defs><style>      .cls-1 {        fill: #f5ab76;      }      .cls-2 {        fill: #4398d1;      }      .cls-3 {        fill: #102c52;      }      .cls-4 {        fill: #dadddf;      }      .cls-5 {        fill: #ffb782;      }      .cls-6 {        fill: #257f25;      }      .cls-7 {        fill: #f2a46f;      }      .cls-8 {        fill: #66bb6a;      }      .cls-9 {        fill: #3c9e3f;      }      .cls-10 {        fill: #126099;      }      .cls-11 {        fill: #88b337;      }    </style></defs><circle class="cls-3" cx="172.5" cy="172" r="172"></circle><g id="surface1"><path class="cls-5" d="m252.7,221.29c-5.37-3.22-12.33-1.67-15.81,3.54l-17.39,26.1v-51.14c0-6.52-5.28-11.8-11.8-11.8s-11.8,5.28-11.8,11.8c0-6.52-5.28-11.8-11.8-11.8s-11.8,5.28-11.8,11.8c0-6.52-5.28-11.8-11.8-11.8s-11.8,5.28-11.8,11.8c0-6.52-5.28-11.8-11.8-11.8s-11.8,5.28-11.8,11.8v82.6c0,13.04,10.57,23.6,23.6,23.6h49.05c11.05,0,21.3-5.8,26.98-15.28l32-53.33c3.33-5.56,1.53-12.77-4.03-16.11Z"></path><path class="cls-7" d="m176.23,282.4h-7.87c.02-19.54,15.86-35.38,35.4-35.4h15.73v7.87h-15.73c-15.2.02-27.52,12.34-27.54,27.54Z"></path><path class="cls-1" d="m125.1,219.46h94.41v7.87h-94.41v-7.87Z"></path><path class="cls-7" d="m144.76,199.79h7.87v39.34h-7.87v-39.34Z"></path><path class="cls-7" d="m168.37,199.79h7.87v39.34h-7.87v-39.34Z"></path><path class="cls-7" d="m191.97,199.79h7.87v39.34h-7.87v-39.34Z"></path><path class="cls-2" d="m58.23,77.85h228.15v55.07H58.23v-55.07Z"></path><path class="cls-10" d="m258.84,93.59H85.76c-6.52,0-11.8,5.28-11.8,11.8s5.28,11.8,11.8,11.8h173.08c6.52,0,11.8-5.28,11.8-11.8s-5.28-11.8-11.8-11.8Z"></path><path class="cls-6" d="m89.69,125.06h165.21v94.41H89.69v-94.41Z"></path><path class="cls-9" d="m89.69,109.32h165.21v94.41H89.69v-94.41Z"></path><path class="cls-8" d="m89.69,93.59h165.21v94.41H89.69v-94.41Z"></path><path class="cls-9" d="m227.37,172.26h-110.14c0-6.52-5.28-11.8-11.8-11.8v-39.33c6.52,0,11.8-5.28,11.8-11.8h110.14c0,6.52,5.28,11.8,11.8,11.8v39.33c-6.52,0-11.8,5.28-11.8,11.8Z"></path><path class="cls-11" d="m121.16,136.86h7.87v7.87h-7.87v-7.87Z"></path><path class="cls-11" d="m215.57,136.86h7.87v7.87h-7.87v-7.87Z"></path><path class="cls-4" d="m89.69,247c-15.2-.02-27.52-12.34-27.54-27.54h7.87c.01,10.86,8.81,19.66,19.67,19.67v7.87Z"></path><path class="cls-8" d="m199.83,140.79c0-17.38-12.33-31.47-27.54-31.47s-27.54,14.09-27.54,31.47,12.33,31.47,27.54,31.47,27.54-14.09,27.54-31.47Z"></path><path class="cls-6" d="m89.69,93.59h165.21v15.73H89.69v-15.73Z"></path></g></svg>