<svg width="400" height="400" viewBox="0 0 400 400" fill="none" xmlns="http://www.w3.org/2000/svg">
<rect width="91.0616" height="38.1207" transform="matrix(0.91791 0.396789 -0.397761 0.917489 35.1631 295.893)" fill="#00417D"/>
<path d="M40.3861 279.041C44.12 286.032 41.9419 294.382 40.3861 297.683L112.73 329.724C113.313 328.559 114.713 325.297 115.647 321.568C116.814 316.908 126.732 313.412 130.816 311.665C134.9 309.917 144.818 301.761 157.653 285.449C167.921 272.399 167.766 244.281 166.404 231.852C171.461 223.308 183.557 202.957 191.491 189.907C201.409 173.595 203.743 163.692 195.575 156.701C189.041 151.108 181.184 157.089 178.073 160.779L187.407 145.632C190.13 140.195 193.592 128.155 185.657 123.494C177.723 118.834 169.516 122.718 166.404 125.242C168.738 121.941 173.755 114.173 175.156 109.513C176.906 103.687 174.572 94.3658 164.071 92.6181C155.669 91.2199 147.735 98.638 144.818 102.522C145.985 98.8323 146.451 90.1716 138.984 85.0449C131.516 79.9183 123.815 85.6275 120.898 89.1229L75.3912 152.041C75.5856 150.487 75.8579 146.215 75.3912 141.554C74.8077 135.729 70.1404 131.068 57.8886 132.233C45.6369 133.398 46.2203 153.206 46.8037 163.692C47.3871 174.178 40.3861 208.55 36.3022 225.444C32.2182 242.339 35.7187 270.302 40.3861 279.041Z" fill="#F0B290"/>
<mask id="mask0_683_5695" style="mask-type:alpha" maskUnits="userSpaceOnUse" x="34" y="83" width="167" height="247">
<path d="M40.3861 279.041C44.12 286.032 41.9419 294.382 40.3861 297.683L112.73 329.724C113.313 328.559 114.713 325.297 115.647 321.568C116.814 316.908 126.732 313.412 130.816 311.665C134.9 309.917 144.818 301.761 157.653 285.449C167.921 272.399 167.766 244.281 166.404 231.852C171.461 223.308 183.557 202.957 191.491 189.907C201.409 173.595 203.743 163.692 195.575 156.701C189.041 151.108 181.184 157.089 178.073 160.779L187.407 145.632C190.13 140.195 193.592 128.155 185.657 123.494C177.723 118.834 169.516 122.718 166.404 125.242C168.738 121.941 173.755 114.173 175.156 109.513C176.906 103.687 174.572 94.3658 164.071 92.6181C155.669 91.2199 147.735 98.638 144.818 102.522C145.985 98.8323 146.451 90.1716 138.984 85.0449C131.516 79.9183 123.815 85.6275 120.898 89.1229L75.3912 152.041C75.5856 150.487 75.8579 146.215 75.3912 141.554C74.8077 135.729 70.1404 131.068 57.8886 132.233C45.6369 133.398 46.2203 153.206 46.8037 163.692C47.3871 174.178 40.3861 208.55 36.3022 225.444C32.2182 242.339 35.7187 270.302 40.3861 279.041Z" fill="#F0B290"/>
</mask>
<g mask="url(#mask0_683_5695)">
<path d="M28.4229 296.435C30.0411 293.005 32.3066 284.33 28.4229 277.067C23.5682 267.988 19.9272 238.936 24.175 221.383C28.4229 203.831 35.7049 168.121 35.0981 157.226C34.4913 146.332 33.8844 125.753 46.628 124.543C59.3715 123.332 63.1158 118.49 63.7227 124.543C64.2082 129.385 74.4265 122.929 74.2242 124.543L112.166 79.7539C115.2 76.1224 123.211 70.1909 130.978 75.5171C138.746 80.8434 143.114 79.552 141.901 83.3852C144.935 79.3502 148.334 81.9326 157.072 83.3852C167.995 85.2009 181.345 88.8951 179.525 94.9477C178.133 99.5755 196.813 101.803 196.35 104.986C196.481 105.067 196.431 105.213 196.158 105.434C196.266 105.282 196.328 105.133 196.35 104.986C194.921 104.104 171.966 111.029 179.525 115.464C187.778 120.306 198.99 118.894 196.158 124.543V142.509C196.679 142.704 196.78 143.147 196.158 143.884V142.509C193.968 141.689 184.35 145.269 189.841 149.963C198.337 157.226 195.909 167.516 185.593 184.463C177.34 198.02 164.759 219.164 159.499 228.041C160.915 240.953 161.077 270.167 150.397 283.724C137.046 300.671 126.73 309.145 122.482 310.961C118.235 312.776 107.918 316.408 106.705 321.25C105.734 325.124 104.277 328.513 103.67 329.724L28.4229 296.435Z" fill="#FFD2B8"/>
</g>
<mask id="mask1_683_5695" style="mask-type:alpha" maskUnits="userSpaceOnUse" x="34" y="83" width="167" height="247">
<path d="M40.3861 279.041C44.12 286.032 41.9419 294.382 40.3861 297.683L112.73 329.724C113.313 328.559 114.713 325.297 115.647 321.568C116.814 316.908 126.732 313.412 130.816 311.665C134.9 309.917 144.818 301.761 157.653 285.449C167.921 272.399 167.766 244.281 166.404 231.852C171.461 223.308 183.557 202.957 191.491 189.907C201.409 173.595 203.743 163.692 195.575 156.701C189.041 151.108 181.184 157.089 178.073 160.779L187.407 145.632C190.13 140.195 193.592 128.155 185.657 123.494C177.723 118.834 169.516 122.718 166.404 125.242C168.738 121.941 173.755 114.173 175.156 109.513C176.906 103.687 174.572 94.3658 164.071 92.6181C155.669 91.2199 147.735 98.638 144.818 102.522C145.985 98.8323 146.451 90.1716 138.984 85.0449C131.516 79.9183 123.815 85.6275 120.898 89.1229L75.3912 152.041C75.5856 150.487 75.8579 146.215 75.3912 141.554C74.8077 135.729 70.1404 131.068 57.8886 132.233C45.6369 133.398 46.2203 153.206 46.8037 163.692C47.3871 174.178 40.3861 208.55 36.3022 225.444C32.2182 242.339 35.7187 270.302 40.3861 279.041Z" fill="#F0B290"/>
</mask>
<g mask="url(#mask1_683_5695)">
<path d="M85.8925 211.462C94.7605 218.453 94.6438 238.066 93.477 246.999C96.7441 246.999 97.1719 245.445 96.9774 244.668C97.3663 243.309 97.9109 237.328 96.9774 224.279C96.0439 211.229 82.5864 201.364 75.9744 198.063V145.632L75.3909 135.145L64.3061 126.989C54.1935 130.485 37.5856 136.893 52.0543 134.563C66.5231 132.232 72.085 137.476 73.0573 142.719V200.976C73.6408 201.558 77.0246 204.471 85.8925 211.462Z" fill="#F0B290"/>
</g>
<mask id="mask2_683_5695" style="mask-type:alpha" maskUnits="userSpaceOnUse" x="34" y="83" width="167" height="247">
<path d="M40.3861 279.041C44.12 286.032 41.9419 294.382 40.3861 297.683L112.73 329.724C113.313 328.559 114.713 325.297 115.647 321.568C116.814 316.908 126.732 313.412 130.816 311.665C134.9 309.917 144.818 301.761 157.653 285.449C167.921 272.399 167.766 244.281 166.404 231.852C171.461 223.308 183.557 202.957 191.491 189.907C201.409 173.595 203.743 163.692 195.575 156.701C189.041 151.108 181.184 157.089 178.073 160.779L187.407 145.632C190.13 140.195 193.592 128.155 185.657 123.494C177.723 118.834 169.516 122.718 166.404 125.242C168.738 121.941 173.755 114.173 175.156 109.513C176.906 103.687 174.572 94.3658 164.071 92.6181C155.669 91.2199 147.735 98.638 144.818 102.522C145.985 98.8323 146.451 90.1716 138.984 85.0449C131.516 79.9183 123.815 85.6275 120.898 89.1229L75.3912 152.041C75.5856 150.487 75.8579 146.215 75.3912 141.554C74.8077 135.729 70.1404 131.068 57.8886 132.233C45.6369 133.398 46.2203 153.206 46.8037 163.692C47.3871 174.178 40.3861 208.55 36.3022 225.444C32.2182 242.339 35.7187 270.302 40.3861 279.041Z" fill="#F0B290"/>
</mask>
<g mask="url(#mask2_683_5695)">
<path d="M100.478 168.354L99.3113 165.441C113.119 143.497 141.164 104.148 142.484 100.193C144.234 94.9507 136.067 82.9687 139.567 85.533C146.567 90.6608 146.179 99.222 144.818 102.523L100.478 168.354Z" fill="#F0B290"/>
<path d="M131.983 178.257L130.816 175.927C144.623 153.983 171.502 113.337 172.822 109.383C174.572 104.14 166.404 92.1578 169.905 94.722C176.905 99.8499 176.517 108.411 175.156 111.712L131.983 178.257Z" fill="#F0B290"/>
<path d="M148.318 207.385L147.152 205.055C160.959 183.112 187.244 140.413 187.991 136.312C189.158 129.904 182.74 121.286 186.24 123.851C193.241 128.978 191.102 138.836 189.741 142.138L148.318 207.385Z" fill="#F0B290"/>
</g>
<rect width="91.0616" height="38.1207" transform="matrix(-0.91791 0.396789 0.397761 0.917489 364.364 295.893)" fill="#00417D"/>
<path d="M359.141 279.041C355.407 286.032 357.585 294.382 359.141 297.683L286.797 329.724C286.214 328.559 284.813 325.297 283.88 321.568C282.713 316.908 272.795 313.412 268.711 311.665C264.627 309.917 254.709 301.761 241.874 285.449C231.606 272.399 231.761 244.281 233.123 231.852C228.066 223.308 215.97 202.957 208.036 189.907C198.118 173.595 195.784 163.692 203.952 156.701C210.486 151.108 218.343 157.089 221.454 160.779L212.12 145.632C209.397 140.195 205.935 128.155 213.87 123.494C221.804 118.834 230.011 122.718 233.123 125.242C230.789 121.941 225.772 114.173 224.371 109.513C222.621 103.687 224.955 94.3658 235.456 92.6181C243.857 91.2199 251.792 98.638 254.709 102.522C253.542 98.8323 253.075 90.1716 260.543 85.0449C268.011 79.9183 275.712 85.6275 278.629 89.1229L324.136 152.041C323.941 150.487 323.669 146.215 324.136 141.554C324.719 135.729 329.386 131.068 341.638 132.233C353.89 133.398 353.307 153.206 352.723 163.692C352.14 174.178 359.141 208.55 363.225 225.444C367.309 242.339 363.808 270.302 359.141 279.041Z" fill="#F0B290"/>
<mask id="mask3_683_5695" style="mask-type:alpha" maskUnits="userSpaceOnUse" x="199" y="83" width="167" height="247">
<path d="M359.141 279.041C355.407 286.032 357.585 294.382 359.141 297.683L286.797 329.724C286.214 328.559 284.813 325.297 283.88 321.568C282.713 316.908 272.795 313.412 268.711 311.665C264.627 309.917 254.709 301.761 241.874 285.449C231.606 272.399 231.761 244.281 233.123 231.852C228.066 223.308 215.97 202.957 208.036 189.907C198.118 173.595 195.784 163.692 203.952 156.701C210.486 151.108 218.343 157.089 221.454 160.779L212.12 145.632C209.397 140.195 205.935 128.155 213.87 123.494C221.804 118.834 230.011 122.718 233.123 125.242C230.789 121.941 225.772 114.173 224.371 109.513C222.621 103.687 224.955 94.3658 235.456 92.6181C243.857 91.2199 251.792 98.638 254.709 102.522C253.542 98.8323 253.075 90.1716 260.543 85.0449C268.011 79.9183 275.712 85.6275 278.629 89.1229L324.136 152.041C323.941 150.487 323.669 146.215 324.136 141.554C324.719 135.729 329.386 131.068 341.638 132.233C353.89 133.398 353.307 153.206 352.723 163.692C352.14 174.178 359.141 208.55 363.225 225.444C367.309 242.339 363.808 270.302 359.141 279.041Z" fill="#F0B290"/>
</mask>
<g mask="url(#mask3_683_5695)">
<path d="M371.104 296.435C369.486 293.005 367.22 284.33 371.104 277.067C375.959 267.988 379.6 238.936 375.352 221.383C371.104 203.831 363.822 168.121 364.429 157.226C365.036 146.332 365.642 125.753 352.899 124.543C340.155 123.332 336.411 118.49 335.804 124.543C335.319 129.385 325.1 122.929 325.303 124.543L287.361 79.7539C284.327 76.1224 276.316 70.1909 268.549 75.5171C260.781 80.8434 256.413 79.552 257.626 83.3852C254.592 79.3502 251.193 81.9326 242.455 83.3852C231.532 85.2009 218.181 88.8951 220.002 94.9477C221.394 99.5755 202.713 101.803 203.177 104.986C203.046 105.067 203.096 105.213 203.368 105.434C203.261 105.282 203.199 105.133 203.177 104.986C204.606 104.104 227.561 111.029 220.002 115.464C211.749 120.306 200.537 118.894 203.368 124.543V142.509C202.848 142.704 202.747 143.147 203.368 143.884V142.509C205.559 141.689 215.177 145.269 209.686 149.963C201.19 157.226 203.617 167.516 213.934 184.463C222.187 198.02 234.768 219.164 240.028 228.041C238.612 240.953 238.45 270.167 249.13 283.724C262.48 300.671 272.797 309.145 277.044 310.961C281.292 312.776 291.609 316.408 292.822 321.25C293.793 325.124 295.25 328.513 295.856 329.724L371.104 296.435Z" fill="#FFD2B8"/>
</g>
<mask id="mask4_683_5695" style="mask-type:alpha" maskUnits="userSpaceOnUse" x="199" y="83" width="167" height="247">
<path d="M359.141 279.041C355.407 286.032 357.585 294.382 359.141 297.683L286.797 329.724C286.214 328.559 284.813 325.297 283.88 321.568C282.713 316.908 272.795 313.412 268.711 311.665C264.627 309.917 254.709 301.761 241.874 285.449C231.606 272.399 231.761 244.281 233.123 231.852C228.066 223.308 215.97 202.957 208.036 189.907C198.118 173.595 195.784 163.692 203.952 156.701C210.486 151.108 218.343 157.089 221.454 160.779L212.12 145.632C209.397 140.195 205.935 128.155 213.87 123.494C221.804 118.834 230.011 122.718 233.123 125.242C230.789 121.941 225.772 114.173 224.371 109.513C222.621 103.687 224.955 94.3658 235.456 92.6181C243.857 91.2199 251.792 98.638 254.709 102.522C253.542 98.8323 253.075 90.1716 260.543 85.0449C268.011 79.9183 275.712 85.6275 278.629 89.1229L324.136 152.041C323.941 150.487 323.669 146.215 324.136 141.554C324.719 135.729 329.386 131.068 341.638 132.233C353.89 133.398 353.307 153.206 352.723 163.692C352.14 174.178 359.141 208.55 363.225 225.444C367.309 242.339 363.808 270.302 359.141 279.041Z" fill="#F0B290"/>
</mask>
<g mask="url(#mask4_683_5695)">
<path d="M313.634 211.462C304.766 218.453 304.883 238.066 306.05 246.999C302.783 246.999 302.355 245.445 302.549 244.668C302.161 243.309 301.616 237.328 302.549 224.279C303.483 211.229 316.94 201.364 323.552 198.063V145.632L324.136 135.145L335.221 126.989C345.333 130.485 361.941 136.893 347.473 134.563C333.004 132.232 327.442 137.476 326.47 142.719V200.976C325.886 201.558 322.502 204.471 313.634 211.462Z" fill="#F0B290"/>
</g>
<mask id="mask5_683_5695" style="mask-type:alpha" maskUnits="userSpaceOnUse" x="199" y="83" width="167" height="247">
<path d="M359.141 279.041C355.407 286.032 357.585 294.382 359.141 297.683L286.797 329.724C286.214 328.559 284.813 325.297 283.88 321.568C282.713 316.908 272.795 313.412 268.711 311.665C264.627 309.917 254.709 301.761 241.874 285.449C231.606 272.399 231.761 244.281 233.123 231.852C228.066 223.308 215.97 202.957 208.036 189.907C198.118 173.595 195.784 163.692 203.952 156.701C210.486 151.108 218.343 157.089 221.454 160.779L212.12 145.632C209.397 140.195 205.935 128.155 213.87 123.494C221.804 118.834 230.011 122.718 233.123 125.242C230.789 121.941 225.772 114.173 224.371 109.513C222.621 103.687 224.955 94.3658 235.456 92.6181C243.857 91.2199 251.792 98.638 254.709 102.522C253.542 98.8323 253.075 90.1716 260.543 85.0449C268.011 79.9183 275.712 85.6275 278.629 89.1229L324.136 152.041C323.941 150.487 323.669 146.215 324.136 141.554C324.719 135.729 329.386 131.068 341.638 132.233C353.89 133.398 353.307 153.206 352.723 163.692C352.14 174.178 359.141 208.55 363.225 225.444C367.309 242.339 363.808 270.302 359.141 279.041Z" fill="#F0B290"/>
</mask>
<g mask="url(#mask5_683_5695)">
<path d="M299.049 168.354L300.216 165.441C286.408 143.497 258.363 104.148 257.043 100.193C255.292 94.9507 263.46 82.9687 259.96 85.533C252.96 90.6608 253.348 99.222 254.709 102.523L299.049 168.354Z" fill="#F0B290"/>
<path d="M267.544 178.257L268.711 175.927C254.903 153.983 228.025 113.337 226.705 109.383C224.955 104.14 233.123 92.1578 229.622 94.722C222.622 99.8499 223.01 108.411 224.371 111.712L267.544 178.257Z" fill="#F0B290"/>
<path d="M251.209 207.385L252.375 205.055C238.568 183.112 212.283 140.413 211.536 136.312C210.369 129.904 216.787 121.286 213.286 123.851C206.286 128.978 208.425 138.836 209.786 142.138L251.209 207.385Z" fill="#F0B290"/>
</g>
<path d="M113.607 218H241.34C242.365 218 243.331 217.576 244.022 216.812C250.055 210.136 279.728 177.321 287.006 169.664C287.675 168.96 288.036 168.049 288.036 167.074V42.6765C288.036 40.646 286.405 39 284.393 39H155.962L111.077 82.7233C110.365 83.4161 109.964 84.3709 109.964 85.3684V214.324C109.964 216.354 111.595 218 113.607 218Z" fill="#F9AF4D"/>
<path fill-rule="evenodd" clip-rule="evenodd" d="M160.112 163.847C162.868 166.438 163.02 170.791 160.452 173.57L148.964 186.002C146.396 188.782 142.08 188.935 139.324 186.344C136.569 183.754 136.417 179.4 138.985 176.621L150.473 164.189C153.041 161.41 157.357 161.256 160.112 163.847ZM230.261 168.88C230.261 165.08 233.315 162 237.082 162H250.005C253.772 162 256.825 165.08 256.825 168.88C256.825 172.679 253.772 175.759 250.005 175.759H237.082C233.315 175.759 230.261 172.679 230.261 168.88ZM266.446 168.88C266.446 165.08 269.5 162 273.267 162H286.19C289.957 162 293.01 165.08 293.01 168.88C293.01 172.679 289.957 175.759 286.19 175.759H273.267C269.5 175.759 266.446 172.679 266.446 168.88ZM127.948 198.656C130.704 201.246 130.855 205.6 128.287 208.379L116.8 220.811C114.231 223.59 109.916 223.744 107.16 221.153C104.404 218.562 104.253 214.209 106.821 211.43L118.308 198.998C120.877 196.218 125.192 196.065 127.948 198.656Z" fill="#EE851B"/>
<path fill-rule="evenodd" clip-rule="evenodd" d="M238.962 148.279C238.713 148.099 238.43 147.97 238.129 147.901C237.829 147.832 237.518 147.824 237.215 147.878C236.911 147.931 236.622 148.044 236.364 148.212C236.105 148.379 235.883 148.596 235.711 148.85L233.586 151.749C232.837 151.432 232.062 151.178 231.271 150.987C230.463 150.797 229.698 150.628 228.87 150.501L228.232 146.692C228.119 146.093 227.785 145.557 227.297 145.19C227.045 145.011 226.757 144.887 226.454 144.825C226.15 144.763 225.837 144.765 225.534 144.83L220.753 145.676C220.153 145.791 219.615 146.123 219.245 146.607C219.052 146.852 218.916 147.137 218.846 147.44C218.776 147.744 218.774 148.059 218.841 148.364L219.478 151.918C218.741 152.243 218.031 152.625 217.354 153.061C216.655 153.47 215.988 153.93 215.357 154.436L212.106 152.32C211.867 152.137 211.592 152.007 211.299 151.937C211.006 151.868 210.702 151.861 210.406 151.918C210.101 151.97 209.81 152.083 209.551 152.25C209.292 152.417 209.069 152.636 208.897 152.892L206.135 156.806C205.942 157.051 205.806 157.336 205.736 157.639C205.667 157.943 205.665 158.258 205.732 158.562C205.777 158.865 205.888 159.154 206.057 159.41C206.226 159.665 206.448 159.881 206.709 160.043L209.62 162.159C209.295 162.903 209.039 163.675 208.855 164.465C208.634 165.211 208.45 165.966 208.303 166.729L204.478 167.385C204.178 167.434 203.89 167.542 203.631 167.701C203.372 167.861 203.147 168.07 202.97 168.316C202.787 168.562 202.66 168.845 202.598 169.144C202.535 169.444 202.539 169.753 202.608 170.051L203.458 174.833C203.566 175.435 203.9 175.972 204.393 176.336C204.643 176.52 204.929 176.652 205.233 176.721C205.536 176.79 205.851 176.796 206.157 176.738L209.641 176.124C209.959 176.862 210.343 177.571 210.788 178.24C211.201 178.975 211.663 179.682 212.17 180.356L209.917 183.551C209.739 183.795 209.611 184.073 209.541 184.367C209.472 184.661 209.463 184.967 209.514 185.265C209.633 185.867 209.983 186.398 210.491 186.746L214.485 189.539C214.734 189.718 215.017 189.845 215.317 189.91C215.616 189.976 215.927 189.979 216.228 189.92C216.844 189.815 217.398 189.482 217.779 188.989L219.903 186.026C220.658 186.35 221.44 186.605 222.241 186.788C223.023 187.001 223.817 187.164 224.62 187.275L225.279 191.083C225.382 191.686 225.718 192.225 226.214 192.586C226.461 192.768 226.744 192.894 227.045 192.956C227.346 193.018 227.657 193.014 227.956 192.945L232.758 192.099C233.362 191.992 233.901 191.659 234.266 191.168C234.456 190.925 234.591 190.645 234.66 190.345C234.73 190.045 234.733 189.734 234.67 189.433L234.011 185.773C234.75 185.459 235.461 185.084 236.136 184.651C236.837 184.228 237.517 183.741 238.261 183.276L241.469 185.392C241.713 185.581 241.995 185.715 242.296 185.784C242.597 185.854 242.909 185.857 243.211 185.794C243.516 185.743 243.808 185.631 244.067 185.463C244.327 185.296 244.549 185.077 244.72 184.82L247.524 180.842C247.707 180.596 247.834 180.314 247.896 180.014C247.959 179.715 247.955 179.405 247.886 179.107C247.784 178.492 247.45 177.939 246.951 177.563L243.976 175.553C244.308 174.802 244.571 174.023 244.762 173.225C244.966 172.444 245.129 171.653 245.251 170.855L249.075 170.2C249.677 170.087 250.215 169.755 250.584 169.269C250.767 169.023 250.893 168.74 250.956 168.441C251.018 168.141 251.015 167.832 250.945 167.534L250.095 162.752C249.98 162.153 249.647 161.618 249.16 161.249C248.91 161.065 248.625 160.933 248.321 160.864C248.017 160.795 247.703 160.789 247.397 160.847L243.912 161.44C243.57 160.714 243.187 160.007 242.765 159.324C242.359 158.625 241.897 157.96 241.384 157.335L243.509 154.098C243.696 153.862 243.831 153.589 243.905 153.297C243.978 153.005 243.988 152.701 243.934 152.405C243.813 151.798 243.464 151.26 242.956 150.903L239.004 148.152H238.877L238.962 148.279ZM196.256 109.304C196.909 109.699 197.474 110.225 197.913 110.849L202.162 116.773C202.596 117.38 202.913 118.061 203.097 118.783C203.256 119.523 203.256 120.287 203.097 121.026C202.977 121.776 202.71 122.495 202.311 123.142C201.91 123.774 201.373 124.309 200.739 124.708L197.212 127.268C197.202 127.381 197.202 127.494 197.212 127.607C197.382 128.22 197.509 128.855 197.658 129.469C197.803 130.125 197.91 130.789 197.977 131.458V131.69L201.674 132.304C202.424 132.415 203.143 132.679 203.787 133.08C204.43 133.48 204.984 134.008 205.413 134.631C205.858 135.229 206.169 135.914 206.327 136.641C206.475 137.375 206.475 138.13 206.327 138.863L205.137 146.163C205.032 146.916 204.772 147.639 204.373 148.287C203.975 148.935 203.446 149.494 202.821 149.929C202.185 150.383 201.462 150.7 200.696 150.86C199.953 151.008 199.187 151.008 198.444 150.86L194.195 150.162C194.195 150.268 194.046 150.395 194.003 150.479C193.663 151.051 193.302 151.601 192.92 152.172C192.537 152.743 192.155 153.315 191.772 153.801L191.624 153.992L193.748 156.996V157.123C194.191 157.756 194.489 158.479 194.62 159.239C194.769 159.972 194.769 160.728 194.62 161.461C194.507 162.209 194.247 162.928 193.855 163.577C193.472 164.224 192.967 164.792 192.367 165.248L186.376 169.48C185.738 169.94 185.016 170.271 184.251 170.453C183.496 170.624 182.712 170.624 181.956 170.453C181.207 170.321 180.487 170.056 179.832 169.671C179.189 169.259 178.639 168.719 178.217 168.084L175.71 164.592C175.598 164.615 175.482 164.615 175.37 164.592C174.754 164.741 174.095 164.91 173.415 165.037C172.735 165.164 172.098 165.27 171.418 165.375C171.327 165.396 171.233 165.396 171.142 165.375L170.547 169.036C170.438 169.792 170.162 170.515 169.739 171.152C169.35 171.79 168.829 172.338 168.21 172.76C167.602 173.19 166.917 173.499 166.191 173.67C165.454 173.807 164.697 173.807 163.96 173.67L156.63 172.464C155.875 172.363 155.15 172.108 154.499 171.714C153.848 171.321 153.286 170.798 152.848 170.178C152.392 169.545 152.074 168.825 151.913 168.062C151.764 167.322 151.764 166.56 151.913 165.82L152.636 161.588C152.522 161.537 152.415 161.473 152.317 161.397L150.617 160.339C150.022 159.916 149.47 159.557 148.981 159.176L148.79 159.028L145.773 161.144H145.645C145.01 161.585 144.284 161.881 143.521 162.011C142.784 162.16 142.026 162.16 141.29 162.011C140.539 161.896 139.817 161.637 139.165 161.249C138.531 160.863 137.97 160.368 137.508 159.789L133.258 153.738C132.812 153.099 132.495 152.381 132.323 151.622C132.164 150.883 132.164 150.118 132.323 149.379C132.446 148.63 132.713 147.912 133.11 147.263C133.546 146.642 134.085 146.098 134.703 145.655L138.209 143.18C138.189 143.061 138.189 142.939 138.209 142.82C138.06 142.206 137.89 141.55 137.763 140.873C137.635 140.196 137.486 139.561 137.423 138.905V139.223L133.747 138.63C132.993 138.514 132.271 138.248 131.622 137.848C130.99 137.44 130.442 136.916 130.008 136.303C129.549 135.674 129.237 134.951 129.094 134.187C128.969 133.487 128.969 132.771 129.094 132.071L130.284 124.771C130.392 124.02 130.654 123.298 131.052 122.651C131.45 122.003 131.977 121.443 132.6 121.005C133.235 120.551 133.959 120.234 134.724 120.074C135.468 119.926 136.233 119.926 136.977 120.074L141.226 120.772L141.417 120.455C141.757 119.884 142.118 119.333 142.501 118.762C142.883 118.191 143.266 117.62 143.669 117.133L143.797 116.942L141.97 113.832C141.502 113.203 141.176 112.482 141.013 111.716C140.875 111.018 140.875 110.299 141.013 109.6C141.129 108.846 141.405 108.125 141.821 107.484C142.217 106.833 142.745 106.271 143.372 105.834L149.321 101.602C149.966 101.165 150.686 100.849 151.446 100.671C152.188 100.512 152.956 100.512 153.698 100.671C154.45 100.794 155.171 101.06 155.823 101.454C156.447 101.865 156.982 102.398 157.395 103.02L159.966 106.553L160.136 106.194L162.069 105.728C162.728 105.58 163.386 105.495 164.066 105.39C164.066 105.39 164.236 105.39 164.343 105.39L164.938 101.729C165.046 100.973 165.322 100.25 165.745 99.6133C166.142 98.974 166.67 98.4259 167.296 98.0052C167.905 97.5783 168.59 97.2696 169.314 97.0954C170.053 96.9682 170.807 96.9682 171.545 97.0954L178.897 98.1745C179.646 98.2968 180.366 98.555 181.021 98.9362C181.674 99.3253 182.233 99.8527 182.657 100.481C183.122 101.111 183.448 101.832 183.614 102.597C183.75 103.345 183.75 104.112 183.614 104.861L182.912 109.092L183.231 109.262L184.91 110.341C185.505 110.743 186.057 111.124 186.567 111.505L186.737 111.632L189.796 109.516C190.425 109.05 191.152 108.732 191.921 108.585C192.665 108.437 193.43 108.437 194.173 108.585C194.931 108.699 195.655 108.974 196.298 109.389L196.256 109.304ZM172.459 124.115C171.675 123.822 170.864 123.609 170.037 123.481C169.215 123.351 168.383 123.294 167.551 123.311C166.787 123.352 166.027 123.451 165.277 123.608H165.129C164.339 123.798 163.57 124.068 162.834 124.412C162.086 124.714 161.373 125.097 160.709 125.554C160.071 126 159.486 126.519 158.967 127.099C158.403 127.691 157.898 128.336 157.459 129.024C157.034 129.695 156.671 130.404 156.375 131.14C155.787 132.7 155.52 134.363 155.589 136.028C155.627 136.796 155.726 137.56 155.886 138.313C155.889 138.362 155.889 138.412 155.886 138.461C156.082 139.254 156.352 140.026 156.694 140.767C157.004 141.476 157.389 142.15 157.841 142.778C158.289 143.414 158.81 143.996 159.392 144.513C159.981 145.074 160.63 145.57 161.326 145.994C161.995 146.425 162.707 146.786 163.45 147.073C165.019 147.652 166.686 147.925 168.358 147.877C169.162 147.877 169.965 147.813 170.759 147.686C170.759 147.686 170.759 147.686 170.887 147.686C172.408 147.295 173.848 146.636 175.136 145.74C175.77 145.287 176.354 144.77 176.878 144.195C177.437 143.604 177.935 142.959 178.366 142.27C178.798 141.603 179.162 140.894 179.449 140.154C179.753 139.377 179.967 138.567 180.087 137.742C180.311 136.842 180.418 135.918 180.405 134.991C180.364 134.28 180.271 133.573 180.129 132.875C180.129 132.875 180.129 132.875 180.129 132.727C179.921 131.916 179.629 131.129 179.258 130.378C178.939 129.641 178.555 128.933 178.111 128.263C177.651 127.636 177.131 127.055 176.56 126.527C175.959 125.979 175.312 125.483 174.626 125.046C173.948 124.631 173.237 124.27 172.501 123.967L172.459 124.115ZM168.21 114.53C172.387 114.526 176.472 115.755 179.949 118.061C183.426 120.367 186.139 123.647 187.746 127.488C189.352 131.328 189.78 135.557 188.975 139.639C188.171 143.721 186.169 147.475 183.224 150.425C180.279 153.376 176.522 155.392 172.428 156.218C168.333 157.044 164.085 156.643 160.219 155.066C156.353 153.49 153.043 150.808 150.706 147.359C148.369 143.91 147.111 139.85 147.09 135.689C147.068 132.921 147.594 130.175 148.638 127.61C149.683 125.044 151.225 122.709 153.177 120.738C155.129 118.767 157.452 117.198 160.013 116.122C162.574 115.046 165.323 114.483 168.103 114.467L168.21 114.53ZM225.024 159.535C226.272 159.282 227.558 159.282 228.806 159.535C230.001 159.805 231.134 160.301 232.142 160.995C233.143 161.697 233.995 162.589 234.649 163.619C235.351 164.669 235.808 165.862 235.987 167.11C236.231 168.354 236.231 169.633 235.987 170.877C235.701 172.092 235.197 173.246 234.5 174.283C233.776 175.271 232.876 176.117 231.844 176.78C230.796 177.476 229.606 177.931 228.36 178.113C227.112 178.367 225.825 178.367 224.578 178.113C223.385 177.845 222.254 177.357 221.242 176.674C220.244 175.954 219.387 175.058 218.714 174.029C218.036 172.975 217.581 171.794 217.375 170.559C217.175 169.286 217.218 167.987 217.502 166.729C217.779 165.541 218.276 164.414 218.969 163.408C219.684 162.414 220.577 161.56 221.603 160.89C222.668 160.212 223.861 159.758 225.109 159.557L225.024 159.535Z" fill="white"/>
<path fill-rule="evenodd" clip-rule="evenodd" d="M151.151 34.926C152.427 33.6905 154.13 33 155.903 33H284.511C290.304 33 295 37.713 295 43.5268V167.417C295 170.15 293.963 172.762 292.065 174.748C288.071 178.927 277.108 190.888 267.066 201.89C262.063 207.373 257.312 212.59 253.812 216.437C252.063 218.361 250.626 219.941 249.626 221.041C249.127 221.591 248.736 222.021 248.471 222.313L248.067 222.757L248.066 222.759C248.066 222.759 248.066 222.759 243.01 218.135L248.066 222.759C246.769 224.186 244.934 225 243.01 225H113.489C107.696 225 103 220.287 103 214.473V84.4899C103 82.6271 103.754 80.8443 105.09 79.5505L151.151 34.926ZM236.169 211.269H116.682V91.3552H236.169V211.269ZM249.85 87.2125V200.433C252.083 197.981 254.499 195.331 256.977 192.616C266.327 182.372 276.65 171.104 281.318 166.162V46.7306H162.743V60.6901C162.743 64.4817 159.681 67.5554 155.903 67.5554C152.125 67.5554 149.062 64.4817 149.062 60.6901V56.035L126.777 77.6246H240.054L256.27 60.3329C258.86 57.5718 263.189 57.4402 265.94 60.0388C268.691 62.6375 268.823 66.9823 266.233 69.7434L249.85 87.2125Z" fill="#EE851B"/>
</svg>
