<?xml version="1.0" encoding="UTF-8"?>
<svg width="825px" height="601px" viewBox="0 0 825 601" version="1.1" xmlns="http://www.w3.org/2000/svg" xmlns:xlink="http://www.w3.org/1999/xlink">
    <title>Artboard</title>
    <g id="Artboard" stroke="none" stroke-width="1" fill="none" fill-rule="evenodd">
        <g id="undraw_city_driver_re_0x5e" transform="translate(277.990372, 36.003353)" fill-rule="nonzero">
            <rect id="Rectangle" fill="#E4E4E4" x="103.56328" y="2.84217094e-14" width="17.9361417" height="44.8403657"></rect>
            <path d="M152.460064,41.3059444 L152.460064,492.652208 C129.655698,489.284815 107.172981,484.015709 85.2470789,476.900002 C80.997123,475.521589 76.7725912,474.074254 72.5734835,472.557999 C71.4401211,472.159791 70.3067587,471.738609 69.1809163,471.325046 C64.4482297,469.571398 59.751438,467.73096 55.0905413,465.803733 C51.1696281,464.187926 47.2717803,462.510856 43.396998,460.772523 C39.5833867,459.049506 35.7953423,457.270331 32.032865,455.434999 C25.8759197,452.41785 19.7852837,449.255169 13.7609571,445.946956 C9.11276727,443.373876 4.52578157,440.703838 0,437.936841 L0,41.3059444 L152.460064,41.3059444 Z" id="Path" fill="#828282"></path>
            <path d="M213.952488,41.3059444 L213.952488,497.178227 C206.692842,497.185658 199.433211,496.999317 192.173596,496.618977 C190.090864,496.511767 188.008012,496.389241 185.92504,496.2514 C174.951274,495.523903 164.01328,494.357357 153.111059,492.75176 C152.896432,492.721129 152.674699,492.690497 152.460064,492.652208 L152.460064,41.3059444 L213.952488,41.3059444 Z" id="Path" fill="#CACACA"></path>
            <rect id="Rectangle" fill="#FFFFFF" x="27.5457071" y="86.1449393" width="23.0607547" height="23.0607547"></rect>
            <rect id="Rectangle" fill="#FFFFFF" x="64.6991495" y="86.1449393" width="23.0607547" height="23.0607547"></rect>
            <rect id="Rectangle" fill="#FFFFFF" x="101.852599" y="86.1449393" width="23.0607547" height="23.0607547"></rect>
            <rect id="Rectangle" fill="#FFFFFF" x="28.1862866" y="138.672221" width="23.0607547" height="23.0607547"></rect>
            <rect id="Rectangle" fill="#FFFFFF" x="65.339729" y="138.672221" width="23.0607547" height="23.0607547"></rect>
            <rect id="Rectangle" fill="#FFFFFF" x="102.493171" y="138.672221" width="23.0607547" height="23.0607547"></rect>
            <rect id="Rectangle" fill="#FFFFFF" x="28.8268661" y="191.19951" width="23.0607547" height="23.0607547"></rect>
            <rect id="Rectangle" fill="#FFFFFF" x="65.9803085" y="191.19951" width="23.0607547" height="23.0607547"></rect>
            <rect id="Rectangle" fill="#FFFFFF" x="103.133751" y="191.19951" width="23.0607547" height="23.0607547"></rect>
            <rect id="Rectangle" fill="#FFFFFF" x="29.467438" y="243.726791" width="23.0607547" height="23.0607547"></rect>
            <rect id="Rectangle" fill="#FFFFFF" x="66.6208803" y="243.726791" width="23.0607547" height="23.0607547"></rect>
            <rect id="Rectangle" fill="#FFFFFF" x="103.774323" y="243.726791" width="23.0607547" height="23.0607547"></rect>
            <rect id="Rectangle" fill="#FFFFFF" x="30.1080175" y="296.254072" width="23.0607547" height="23.0607547"></rect>
            <rect id="Rectangle" fill="#FFFFFF" x="67.2614598" y="296.254072" width="23.0607547" height="23.0607547"></rect>
            <rect id="Rectangle" fill="#FFFFFF" x="104.414902" y="296.254072" width="23.0607547" height="23.0607547"></rect>
            <rect id="Rectangle" fill="#FFFFFF" x="30.7485893" y="348.781354" width="23.0607547" height="23.0607547"></rect>
            <rect id="Rectangle" fill="#FFFFFF" x="67.9020393" y="348.781354" width="23.0607547" height="23.0607547"></rect>
            <rect id="Rectangle" fill="#FFFFFF" x="105.055482" y="348.781354" width="23.0607547" height="23.0607547"></rect>
            <rect id="Rectangle" fill="#FFFFFF" x="31.3891688" y="401.308635" width="23.0607547" height="23.0607547"></rect>
            <rect id="Rectangle" fill="#FFFFFF" x="68.5426111" y="401.308635" width="23.0607547" height="23.0607547"></rect>
            <rect id="Rectangle" fill="#FFFFFF" x="105.696053" y="401.308635" width="23.0607547" height="23.0607547"></rect>
            <path d="M55.0905259,453.834553 L55.0905259,465.803779 C51.1696127,464.187972 47.271765,462.510902 43.3969827,460.772569 C39.5833714,459.049552 35.795327,457.270377 32.0328497,455.435045 L32.0328497,453.834553 L55.0905259,453.834553 Z" id="Path" fill="#FFFFFF"></path>
            <path d="M92.2464494,453.834515 L92.2464494,476.90001 L85.2470636,476.90001 C80.9971077,475.521596 76.7725759,474.074262 72.5734682,472.558007 C71.4401057,472.159798 70.3067433,471.738616 69.1809009,471.325054 L69.1809009,453.834515 L92.2464494,453.834515 Z" id="Path" fill="#FFFFFF"></path>
            <rect id="Rectangle" fill="#FFFFFF" x="106.336633" y="453.835916" width="23.0607547" height="23.0607547"></rect>
            <rect id="Rectangle" fill="#E4E4E4" x="312.602304" y="228.352952" width="17.9361417" height="26.5758782"></rect>
            <path d="M344.634067,252.647387 L344.634067,475.368416 C302.722631,490.002575 258.375891,497.155011 213.952488,497.178211 C206.692842,497.185643 199.433211,496.999301 192.173596,496.618961 L192.173596,252.647387 L344.634067,252.647387 Z" id="Path" fill="#545454"></path>
            <path d="M406.126482,252.647387 L406.126482,446.942462 C394.404959,453.991209 382.215917,460.231551 369.644366,465.619968 C361.420024,469.18087 353.083258,472.430353 344.634067,475.368416 L344.634067,252.647387 L406.126482,252.647387 Z" id="Path" fill="#CACACA"></path>
            <rect id="Rectangle" fill="#FFFFFF" x="222.281001" y="296.254072" width="23.0607547" height="23.0607547"></rect>
            <rect id="Rectangle" fill="#FFFFFF" x="259.434444" y="296.254072" width="23.0607547" height="23.0607547"></rect>
            <rect id="Rectangle" fill="#FFFFFF" x="296.587886" y="296.254072" width="23.0607547" height="23.0607547"></rect>
            <rect id="Rectangle" fill="#FFFFFF" x="222.921573" y="348.781354" width="23.0607547" height="23.0607547"></rect>
            <rect id="Rectangle" fill="#FFFFFF" x="260.075015" y="348.781354" width="23.0607547" height="23.0607547"></rect>
            <rect id="Rectangle" fill="#FFFFFF" x="297.228465" y="348.781354" width="23.0607547" height="23.0607547"></rect>
            <rect id="Rectangle" fill="#FFFFFF" x="223.562153" y="401.308635" width="23.0607547" height="23.0607547"></rect>
            <rect id="Rectangle" fill="#FFFFFF" x="260.715595" y="401.308635" width="23.0607547" height="23.0607547"></rect>
            <rect id="Rectangle" fill="#FFFFFF" x="297.869037" y="401.308635" width="23.0607547" height="23.0607547"></rect>
            <rect id="Rectangle" fill="#FFFFFF" x="224.202732" y="453.835916" width="23.0607547" height="23.0607547"></rect>
            <rect id="Rectangle" fill="#FFFFFF" x="261.356174" y="453.835916" width="23.0607547" height="23.0607547"></rect>
            <rect id="Rectangle" fill="#FFFFFF" x="298.509617" y="453.835916" width="23.0607547" height="23.0607547"></rect>
        </g>
        <g id="scooter" transform="translate(140.000000, 233.000000)" fill-rule="nonzero">
            <path d="M142,195 L53.9384002,195 L53.0048175,168.293511 C52.9230697,165.950586 53.885013,163.689736 55.6374417,162.106072 C57.3898704,160.522407 59.757212,159.77459 62.1163273,160.059466 L113.362259,166.248925 L113.368534,166.248925 C129.186383,166.290961 141.989639,178.945374 142,194.547539 L142,195 Z" id="Path" fill="#04559F"></path>
            <path d="M258.533616,115.111239 C257.667288,112.328406 255.606777,110.070358 252.906528,108.944695 C250.206279,107.819032 247.14367,107.941385 244.542792,109.278831 L159.735289,79 L156,100.08279 L240.537554,123.216508 C243.142204,127.509782 248.562096,129.185938 253.153363,127.118072 C257.744629,125.050206 260.056046,119.891936 258.533616,115.111239 L258.533616,115.111239 Z" id="Path" fill="#FFB8B8"></path>
            <path d="M258.533616,115.111239 C257.667288,112.328406 255.606777,110.070358 252.906528,108.944695 C250.206279,107.819032 247.14367,107.941385 244.542792,109.278831 L159.735289,79 L156,100.08279 L240.537554,123.216508 C243.142204,127.509782 248.562096,129.185938 253.153363,127.118072 C257.744629,125.050206 260.056046,119.891936 258.533616,115.111239 L258.533616,115.111239 Z" id="Path" fill="#000000" opacity="0.2"></path>
            <path d="M174.699466,82.4472329 L166.487593,103.176358 C166.014779,104.369812 165.027753,105.305307 163.783712,105.739073 C162.539671,106.17284 161.161837,106.061913 160.009245,105.435199 L140.051408,94.5814675 C133.56371,92.1404497 130.343427,85.0873716 132.851334,78.8118353 C135.35924,72.536299 142.649627,69.4047552 149.151553,71.8101698 L171.437866,76.5860682 C172.728968,76.8631479 173.831308,77.6695122 174.457636,78.7950368 C175.083964,79.9205614 175.172242,81.2537631 174.699466,82.4472329 L174.699466,82.4472329 Z" id="Path" fill="#E892BE"></path>
            <path d="M266.199994,136 L235,149.646617 L239.096266,164.485947 C247.006478,193.141728 249.105743,222.995546 245.279311,252.41551 L245.279311,252.41551 L268.090913,257 L287,210.601504 L280.381819,157.834586 L266.199994,136 Z" id="Path" fill="#04559F"></path>
            <path d="M324.5,204 C304.27866,204 287.799662,218.652 287,237 L362,237 C361.200328,218.651963 344.721331,204 324.5,204 Z" id="Path" fill="#3F3D56"></path>
            <path d="M309.846797,205.726971 C308.801311,124.728269 261.787561,132.179957 261.787561,132.179957 C261.787561,132.179957 262.667008,157.392126 263.089549,158.17621 C293.048479,213.794114 243.604916,278.998102 180.667737,267.002668 C179.481107,266.776504 178.341071,266.547068 177.24763,266.314358 C160.696573,262.92378 149.679373,247.49735 152.080737,231.075341 C158.280514,182.224677 127.444416,183.089152 127.444416,183.089152 L82.3547279,183.089152 L58.9388633,162.411018 C57.2606056,160.928978 54.9426018,160.359924 52.7507986,160.891891 C50.5589954,161.423859 48.7786587,162.987612 47.9980718,165.066433 L44.9855805,173.089177 C44.9855805,173.089177 0.513379437,177.63464 4.21939619,220.362 L17.9685701,220.362 C17.9353724,221.576015 17.984946,222.790848 18.116959,223.998372 L120.72815,223.179788 C126.742895,223.131806 132.052116,227.914052 132.0769,233.81591 C132.089332,236.71914 130.897174,239.502335 128.774713,241.525149 C126.652252,243.547963 123.782253,244.636211 120.825035,244.539514 L104.281876,243.998412 C99.1861033,266.271185 111.69391,281.271216 125.47566,290.703053 C138.451348,299.454593 153.848458,304.094699 169.593621,304 L214.535875,304 C272.905639,304 283.097185,255.816618 283.097185,255.816618 C313.671795,243.089274 309.846797,205.726971 309.846797,205.726971 Z" id="Path" fill="#3F3D56"></path>
            <ellipse id="Oval" fill="#3F3D56" cx="321.5" cy="280" rx="51.5" ry="51"></ellipse>
            <circle id="Oval" fill="#FFFFFF" cx="321" cy="281" r="13"></circle>
            <ellipse id="Oval" fill="#3F3D56" cx="59.5" cy="273" rx="59.5" ry="59"></ellipse>
            <circle id="Oval" fill="#FFFFFF" cx="60.5" cy="272.5" r="14.5"></circle>
            <path d="M235.655935,152 L224.770002,122.668388 C223.624218,119.581059 223.761672,116.168641 225.152125,113.181851 C226.542577,110.195062 229.072126,107.878574 232.184279,106.742005 L263.392982,95.3445712 C268.868758,93.3442144 274.921284,93.5837258 280.219048,96.0104145 C285.516812,98.4371033 289.62584,102.852184 291.642175,108.28437 C292.542379,110.698572 293.002158,113.252477 293,115.826554 C292.976356,122.445588 289.9499,128.702294 284.759767,132.86188 C282.908485,134.33521 280.827428,135.499228 278.598505,136.308118 L235.655935,152 Z" id="Path" fill="#3F3D56"></path>
            <path d="M292,114.903664 C291.994939,121.55051 289.085273,127.837049 284.087121,132 C276.424347,129.904544 270.038689,124.420461 266.626862,117.004909 C263.215034,109.589357 263.122521,100.993244 266.373906,93.5006165 C272.620435,92.0923206 279.14615,93.6907617 284.124212,97.8484646 C289.102273,102.006167 291.997725,108.276334 292,114.903664 L292,114.903664 Z" id="Path" fill="#04559F"></path>
            <ellipse id="Oval" fill="#04559F" cx="13" cy="211.5" rx="13" ry="15.5"></ellipse>
            <polygon id="Path" fill="#FFB8B8" points="184.001768 268 194.842332 268 200 239 184 239.000912"></polygon>
            <path d="M181,263.000944 L202.987064,263 L202.987975,263 C206.704188,263 210.268227,264.530322 212.896007,267.254597 C215.523788,269.978872 217,273.673821 217,277.526558 L217,277.998622 L181.000692,278 L181,263.000944 Z" id="Path" fill="#2F2E41"></path>
            <path d="M196.635837,254 C196.50198,254 196.367585,253.99374 196.232653,253.981221 L180.330871,252.850149 C179.027501,252.732012 177.854158,252.029378 177.155003,250.948338 C176.455847,249.867299 176.310137,248.530405 176.760612,247.329789 L198.042161,200.621354 C198.349543,199.779503 198.282846,198.850473 197.858189,198.058776 C197.434488,197.257333 196.680343,196.671012 195.785776,196.44755 C185.778597,193.892142 160.103055,187.087806 137.876916,179.126441 C128.35461,175.715341 122.357256,170.786003 120.051676,164.475234 C117.012046,156.15536 121.508798,148.567793 121.701692,148.249461 L121.852485,148 L142.766785,149.857107 L165.439783,151.741041 L215.126256,177.769153 C223.759902,182.330241 227.357506,192.606032 223.391429,201.376861 L200.484344,251.558125 C199.807322,253.042791 198.299594,254 196.635837,254 L196.635837,254 Z" id="Path" fill="#2F2E41"></path>
            <circle id="Oval" fill="#FFB8B8" cx="147.5" cy="36.5" r="22.5"></circle>
            <polygon id="Path" fill="#FFB8B8" points="177.001768 269 187.842332 269 193 240 177 240.000912"></polygon>
            <path d="M174,265.000944 L195.987064,265 L195.987975,265 C199.704188,265 203.268227,266.530322 205.896007,269.254597 C208.523788,271.978872 210,275.673821 210,279.526558 L210,279.998622 L174.000692,280 L174,265.000944 Z" id="Path" fill="#2F2E41"></path>
            <path d="M190.635837,258 C190.50198,258 190.367585,257.99374 190.232653,257.981221 L174.330871,256.850149 C173.027501,256.732012 171.854158,256.029378 171.155003,254.948338 C170.455847,253.867299 170.310137,252.530405 170.760612,251.329789 L192.042161,204.621354 C192.349543,203.779503 192.282846,202.850473 191.858189,202.058776 C191.434488,201.257333 190.680343,200.671012 189.785776,200.44755 C179.778597,197.892142 154.103055,191.087806 131.876916,183.126441 C122.35461,179.715341 116.357256,174.786003 114.051676,168.475234 C111.012046,160.15536 115.508798,152.567793 115.701692,152.249461 L115.852485,152 L136.766785,153.857107 L159.439783,155.741041 L209.126256,181.769153 C217.759902,186.330241 221.357506,196.606032 217.391429,205.376861 L194.484344,255.558125 C193.807322,257.042791 192.299594,258 190.635837,258 L190.635837,258 Z" id="Path" fill="#2F2E41"></path>
            <path d="M154.607124,72.2164215 L130.464267,64 C130.464267,64 115.308124,75.448214 122.589053,103.84833 C126.39014,118.503864 125.282941,133.973825 119.431826,147.961612 C118.727324,149.692262 117.915181,151.378655 117,153.011233 C117,153.011233 143.928571,184.963983 169,161.227655 L159.25,115.124401 C159.25,115.124401 174.57141,84.5410538 154.607124,72.2164215 Z" id="Path" fill="#E892BE"></path>
            <path d="M150.129775,58.7757707 C146.825362,54.0529606 144.217533,47.5041957 147.855712,43.0106161 C151.446976,38.5749759 158.53019,39.2284578 164.030318,37.2657194 C171.691035,34.5319683 176.134034,25.9384164 174.748365,18.2423348 C173.362696,10.5462532 166.892623,4.16643251 159.184886,1.55601599 C151.47715,-1.05440054 142.78544,-0.205437261 135.237469,2.80061754 C125.945815,6.50110634 117.97519,13.6594405 114.632881,22.727177 C111.290571,31.7949136 113.077294,42.682467 120.010971,49.6521256 C127.444636,57.1243564 139.111302,59.1157261 149.90399,58.9948918" id="Path" fill="#2F2E41"></path>
            <path d="M128.964193,19.1658376 C124.894274,22.4252868 118.684831,20.9775789 114.316018,18.117004 C109.947205,15.2564292 106.402191,11.1831516 101.675249,8.94034927 C93.3418035,4.98637406 83.2663598,7.61484338 75.1558668,11.9945712 C67.0453738,16.374299 59.8557784,22.425005 51.2886987,25.8619761 C42.721619,29.2989472 31.7894008,29.4688428 25.302324,22.9790769 C22.0316111,32.3014689 25.0561113,42.640471 32.8635424,48.8264729 C40.6709735,55.0124747 51.5836611,55.7162173 60.1451459,50.5858219 C69.5320784,44.9607594 74.717048,33.1665884 85.2455118,30.0618823 C91.0715747,28.3438558 97.3275771,29.7275903 103.215869,31.2263277 C109.104161,32.7250652 115.243892,34.3444684 121.18618,33.0685741 C127.128468,31.7926798 132.686775,26.5393316 131.930787,20.6022742 L128.964193,19.1658376 Z" id="Path" fill="#2F2E41"></path>
            <path d="M257.077944,115.500094 C255.856174,112.755819 253.498579,110.701329 250.639547,109.889451 C247.780515,109.077573 244.713736,109.591706 242.264427,111.293506 L153.108166,91 L152,113.097509 L239.986141,126.096905 C243.147256,130.169777 248.81252,131.201156 253.17309,128.497629 C257.533661,125.794103 259.21123,120.210213 257.077944,115.500094 Z" id="Path" fill="#FFB8B8"></path>
            <path d="M169.872316,92.9276802 L164.566052,114.63371 C164.260526,115.883418 163.431109,116.937028 162.293931,117.519988 C161.156752,118.102948 159.82445,118.157516 158.644199,117.669473 L138.207279,109.217114 C131.69323,107.560114 127.737906,100.894162 129.366058,94.3169069 C130.99421,87.7396515 137.591222,83.7339647 144.112166,85.3631119 L166.029049,87.460733 C167.298798,87.5826546 168.453076,88.2562915 169.1911,89.3061065 C169.929124,90.3559214 170.177792,91.6779308 169.872307,92.9276435 L169.872316,92.9276802 Z" id="Path" fill="#E892BE"></path>
            <circle id="Oval" fill="#04559F" cx="246.5" cy="125.5" r="6.5"></circle>
        </g>
    </g>
</svg>