<svg width="48" height="48" viewBox="0 0 48 48" fill="none" xmlns="http://www.w3.org/2000/svg">
<path fill-rule="evenodd" clip-rule="evenodd" d="M21.6682 11.8911C21.2711 11.494 20.6272 11.494 20.23 11.8911L17.3826 14.7386C17.0917 15.0294 17.0047 15.4668 17.1621 15.8468C17.3195 16.2268 17.6903 16.4746 18.1017 16.4746H30.5084C31.0701 16.4746 31.5254 16.0193 31.5254 15.4577C31.5254 14.896 31.0701 14.4407 30.5084 14.4407H20.5568L21.6682 13.3293C22.0654 12.9322 22.0654 12.2883 21.6682 11.8911Z" fill="#F9991C"/>
<path fill-rule="evenodd" clip-rule="evenodd" d="M26.9419 6.19629C27.339 5.79915 27.9829 5.79915 28.3801 6.19629L31.2275 9.04375C31.5184 9.3346 31.6054 9.77201 31.448 10.152C31.2906 10.532 30.9198 10.7798 30.5084 10.7798H18.1017C17.54 10.7798 17.0847 10.3245 17.0847 9.76284C17.0847 9.2012 17.54 8.74589 18.1017 8.74589H28.0533L26.9419 7.63448C26.5448 7.23733 26.5448 6.59344 26.9419 6.19629Z" fill="#F9991C"/>
<path fill-rule="evenodd" clip-rule="evenodd" d="M5.00642 23.5931C5.00642 23.0315 5.46172 22.5762 6.02337 22.5762H16.584C17.1456 22.5762 17.6009 23.0315 17.6009 23.5931V26.9644H20.3389C20.9005 26.9644 21.3558 27.4197 21.3558 27.9813V45.1524C21.3558 45.7141 20.9005 46.1694 20.3389 46.1694C19.7772 46.1694 19.3219 45.7141 19.3219 45.1524V28.9983H16.584C16.0223 28.9983 15.567 28.5429 15.567 27.9813V24.6101H7.04031V27.9813C7.04031 28.5429 6.58501 28.9983 6.02337 28.9983H2.03379C1.47215 28.9983 1.01685 28.5429 1.01685 27.9813C1.01685 27.4197 1.47215 26.9644 2.03379 26.9644H5.00642V23.5931Z" fill="#F9991C"/>
<path fill-rule="evenodd" clip-rule="evenodd" d="M42.9936 23.5931C42.9936 23.0315 42.5383 22.5762 41.9766 22.5762H31.416C30.8544 22.5762 30.3991 23.0315 30.3991 23.5931V26.9644H27.6611C27.0995 26.9644 26.6442 27.4197 26.6442 27.9813V45.1524C26.6442 45.7141 27.0995 46.1694 27.6611 46.1694C28.2228 46.1694 28.6781 45.7141 28.6781 45.1524V28.9983H31.416C31.9777 28.9983 32.433 28.5429 32.433 27.9813V24.6101H40.9597V27.9813C40.9597 28.5429 41.415 28.9983 41.9766 28.9983H45.9662C46.5279 28.9983 46.9832 28.5429 46.9832 27.9813C46.9832 27.4197 46.5279 26.9644 45.9662 26.9644H42.9936V23.5931Z" fill="#F9991C"/>
<path d="M13.0169 33.7629H9.35592V41.0849L7.32202 40.068V33.7629C7.32202 32.6396 8.23263 31.729 9.35592 31.729H13.0169C14.1402 31.729 15.0508 32.6396 15.0508 33.7629V45.1527L13.0169 43.9324V33.7629Z" fill="#F9991C"/>
<path d="M34.9831 33.7629H38.6441V41.0849L40.678 40.068V33.7629C40.678 32.6396 39.7674 31.729 38.6441 31.729H34.9831C33.8598 31.729 32.9492 32.6396 32.9492 33.7629V45.1527L34.9831 43.9324V33.7629Z" fill="#F9991C"/>
<path fill-rule="evenodd" clip-rule="evenodd" d="M24 46C36.1503 46 46 36.1503 46 24C46 11.8497 36.1503 2 24 2C11.8497 2 2 11.8497 2 24C2 36.1503 11.8497 46 24 46ZM24 48C37.2548 48 48 37.2548 48 24C48 10.7452 37.2548 0 24 0C10.7452 0 0 10.7452 0 24C0 37.2548 10.7452 48 24 48Z" fill="#04549F"/>
</svg>
