<svg width="400" height="400" viewBox="0 0 400 400" fill="none" xmlns="http://www.w3.org/2000/svg">
<rect width="91.0616" height="38.1207" transform="matrix(0.91791 0.396789 -0.397761 0.917489 35.1631 295.893)" fill="#00417D"/>
<path d="M40.3861 279.041C44.12 286.032 41.9419 294.382 40.3861 297.683L112.73 329.724C113.313 328.559 114.713 325.297 115.647 321.568C116.814 316.908 126.732 313.412 130.816 311.665C134.9 309.917 144.818 301.761 157.653 285.449C167.921 272.399 167.766 244.281 166.404 231.852C171.461 223.308 183.557 202.957 191.491 189.907C201.409 173.595 203.743 163.692 195.575 156.701C189.041 151.108 181.184 157.089 178.073 160.779L187.407 145.632C190.13 140.195 193.592 128.155 185.657 123.494C177.723 118.834 169.516 122.718 166.404 125.242C168.738 121.941 173.755 114.173 175.156 109.513C176.906 103.687 174.572 94.3658 164.071 92.6181C155.669 91.2199 147.735 98.638 144.818 102.522C145.985 98.8323 146.451 90.1716 138.984 85.0449C131.516 79.9183 123.815 85.6275 120.898 89.1229L75.3912 152.041C75.5856 150.487 75.8579 146.215 75.3912 141.554C74.8077 135.729 70.1404 131.068 57.8886 132.233C45.6369 133.398 46.2203 153.206 46.8037 163.692C47.3871 174.178 40.3861 208.55 36.3022 225.444C32.2182 242.339 35.7187 270.302 40.3861 279.041Z" fill="#F0B290"/>
<mask id="mask0_680_5897" style="mask-type:alpha" maskUnits="userSpaceOnUse" x="34" y="83" width="167" height="247">
<path d="M40.3861 279.041C44.12 286.032 41.9419 294.382 40.3861 297.683L112.73 329.724C113.313 328.559 114.713 325.297 115.647 321.568C116.814 316.908 126.732 313.412 130.816 311.665C134.9 309.917 144.818 301.761 157.653 285.449C167.921 272.399 167.766 244.281 166.404 231.852C171.461 223.308 183.557 202.957 191.491 189.907C201.409 173.595 203.743 163.692 195.575 156.701C189.041 151.108 181.184 157.089 178.073 160.779L187.407 145.632C190.13 140.195 193.592 128.155 185.657 123.494C177.723 118.834 169.516 122.718 166.404 125.242C168.738 121.941 173.755 114.173 175.156 109.513C176.906 103.687 174.572 94.3658 164.071 92.6181C155.669 91.2199 147.735 98.638 144.818 102.522C145.985 98.8323 146.451 90.1716 138.984 85.0449C131.516 79.9183 123.815 85.6275 120.898 89.1229L75.3912 152.041C75.5856 150.487 75.8579 146.215 75.3912 141.554C74.8077 135.729 70.1404 131.068 57.8886 132.233C45.6369 133.398 46.2203 153.206 46.8037 163.692C47.3871 174.178 40.3861 208.55 36.3022 225.444C32.2182 242.339 35.7187 270.302 40.3861 279.041Z" fill="#F0B290"/>
</mask>
<g mask="url(#mask0_680_5897)">
<path d="M28.4229 296.435C30.0411 293.005 32.3066 284.33 28.4229 277.067C23.5682 267.988 19.9272 238.936 24.175 221.383C28.4229 203.831 35.7049 168.121 35.0981 157.226C34.4913 146.332 33.8844 125.753 46.628 124.543C59.3715 123.332 63.1158 118.49 63.7227 124.543C64.2082 129.385 74.4265 122.929 74.2242 124.543L112.166 79.7539C115.2 76.1224 123.211 70.1909 130.978 75.5171C138.746 80.8434 143.114 79.552 141.901 83.3852C144.935 79.3502 148.334 81.9326 157.072 83.3852C167.995 85.2009 181.345 88.8951 179.525 94.9477C178.133 99.5755 196.813 101.803 196.35 104.986C196.481 105.067 196.431 105.213 196.158 105.434C196.266 105.282 196.328 105.133 196.35 104.986C194.921 104.104 171.966 111.029 179.525 115.464C187.778 120.306 198.99 118.894 196.158 124.543V142.509C196.679 142.704 196.78 143.147 196.158 143.884V142.509C193.968 141.689 184.35 145.269 189.841 149.963C198.337 157.226 195.909 167.516 185.593 184.463C177.34 198.02 164.759 219.164 159.499 228.041C160.915 240.953 161.077 270.167 150.397 283.724C137.046 300.671 126.73 309.145 122.482 310.961C118.235 312.776 107.918 316.408 106.705 321.25C105.734 325.124 104.277 328.513 103.67 329.724L28.4229 296.435Z" fill="#FFD2B8"/>
</g>
<mask id="mask1_680_5897" style="mask-type:alpha" maskUnits="userSpaceOnUse" x="34" y="83" width="167" height="247">
<path d="M40.3861 279.041C44.12 286.032 41.9419 294.382 40.3861 297.683L112.73 329.724C113.313 328.559 114.713 325.297 115.647 321.568C116.814 316.908 126.732 313.412 130.816 311.665C134.9 309.917 144.818 301.761 157.653 285.449C167.921 272.399 167.766 244.281 166.404 231.852C171.461 223.308 183.557 202.957 191.491 189.907C201.409 173.595 203.743 163.692 195.575 156.701C189.041 151.108 181.184 157.089 178.073 160.779L187.407 145.632C190.13 140.195 193.592 128.155 185.657 123.494C177.723 118.834 169.516 122.718 166.404 125.242C168.738 121.941 173.755 114.173 175.156 109.513C176.906 103.687 174.572 94.3658 164.071 92.6181C155.669 91.2199 147.735 98.638 144.818 102.522C145.985 98.8323 146.451 90.1716 138.984 85.0449C131.516 79.9183 123.815 85.6275 120.898 89.1229L75.3912 152.041C75.5856 150.487 75.8579 146.215 75.3912 141.554C74.8077 135.729 70.1404 131.068 57.8886 132.233C45.6369 133.398 46.2203 153.206 46.8037 163.692C47.3871 174.178 40.3861 208.55 36.3022 225.444C32.2182 242.339 35.7187 270.302 40.3861 279.041Z" fill="#F0B290"/>
</mask>
<g mask="url(#mask1_680_5897)">
<path d="M85.8925 211.462C94.7605 218.453 94.6438 238.066 93.477 246.999C96.7441 246.999 97.1719 245.445 96.9774 244.668C97.3663 243.309 97.9109 237.328 96.9774 224.279C96.0439 211.229 82.5864 201.364 75.9744 198.063V145.632L75.3909 135.145L64.3061 126.989C54.1935 130.485 37.5856 136.893 52.0543 134.563C66.5231 132.232 72.085 137.476 73.0573 142.719V200.976C73.6408 201.558 77.0246 204.471 85.8925 211.462Z" fill="#F0B290"/>
</g>
<mask id="mask2_680_5897" style="mask-type:alpha" maskUnits="userSpaceOnUse" x="34" y="83" width="167" height="247">
<path d="M40.3861 279.041C44.12 286.032 41.9419 294.382 40.3861 297.683L112.73 329.724C113.313 328.559 114.713 325.297 115.647 321.568C116.814 316.908 126.732 313.412 130.816 311.665C134.9 309.917 144.818 301.761 157.653 285.449C167.921 272.399 167.766 244.281 166.404 231.852C171.461 223.308 183.557 202.957 191.491 189.907C201.409 173.595 203.743 163.692 195.575 156.701C189.041 151.108 181.184 157.089 178.073 160.779L187.407 145.632C190.13 140.195 193.592 128.155 185.657 123.494C177.723 118.834 169.516 122.718 166.404 125.242C168.738 121.941 173.755 114.173 175.156 109.513C176.906 103.687 174.572 94.3658 164.071 92.6181C155.669 91.2199 147.735 98.638 144.818 102.522C145.985 98.8323 146.451 90.1716 138.984 85.0449C131.516 79.9183 123.815 85.6275 120.898 89.1229L75.3912 152.041C75.5856 150.487 75.8579 146.215 75.3912 141.554C74.8077 135.729 70.1404 131.068 57.8886 132.233C45.6369 133.398 46.2203 153.206 46.8037 163.692C47.3871 174.178 40.3861 208.55 36.3022 225.444C32.2182 242.339 35.7187 270.302 40.3861 279.041Z" fill="#F0B290"/>
</mask>
<g mask="url(#mask2_680_5897)">
<path d="M100.478 168.354L99.3113 165.441C113.119 143.497 141.164 104.148 142.484 100.193C144.234 94.9507 136.067 82.9687 139.567 85.533C146.567 90.6608 146.179 99.222 144.818 102.523L100.478 168.354Z" fill="#F0B290"/>
<path d="M131.983 178.257L130.816 175.927C144.623 153.983 171.502 113.337 172.822 109.383C174.572 104.14 166.404 92.1578 169.905 94.722C176.905 99.8499 176.517 108.411 175.156 111.712L131.983 178.257Z" fill="#F0B290"/>
<path d="M148.318 207.385L147.152 205.055C160.959 183.112 187.244 140.413 187.991 136.312C189.158 129.904 182.74 121.286 186.24 123.851C193.241 128.978 191.102 138.836 189.741 142.138L148.318 207.385Z" fill="#F0B290"/>
</g>
<rect width="91.0616" height="38.1207" transform="matrix(-0.91791 0.396789 0.397761 0.917489 364.364 295.893)" fill="#00417D"/>
<path d="M359.141 279.041C355.407 286.032 357.585 294.382 359.141 297.683L286.797 329.724C286.214 328.559 284.813 325.297 283.88 321.568C282.713 316.908 272.795 313.412 268.711 311.665C264.627 309.917 254.709 301.761 241.874 285.449C231.606 272.399 231.761 244.281 233.123 231.852C228.066 223.308 215.97 202.957 208.036 189.907C198.118 173.595 195.784 163.692 203.952 156.701C210.486 151.108 218.343 157.089 221.454 160.779L212.12 145.632C209.397 140.195 205.935 128.155 213.87 123.494C221.804 118.834 230.011 122.718 233.123 125.242C230.789 121.941 225.772 114.173 224.371 109.513C222.621 103.687 224.955 94.3658 235.456 92.6181C243.857 91.2199 251.792 98.638 254.709 102.522C253.542 98.8323 253.075 90.1716 260.543 85.0449C268.011 79.9183 275.712 85.6275 278.629 89.1229L324.136 152.041C323.941 150.487 323.669 146.215 324.136 141.554C324.719 135.729 329.386 131.068 341.638 132.233C353.89 133.398 353.307 153.206 352.723 163.692C352.14 174.178 359.141 208.55 363.225 225.444C367.309 242.339 363.808 270.302 359.141 279.041Z" fill="#F0B290"/>
<mask id="mask3_680_5897" style="mask-type:alpha" maskUnits="userSpaceOnUse" x="199" y="83" width="167" height="247">
<path d="M359.141 279.041C355.407 286.032 357.585 294.382 359.141 297.683L286.797 329.724C286.214 328.559 284.813 325.297 283.88 321.568C282.713 316.908 272.795 313.412 268.711 311.665C264.627 309.917 254.709 301.761 241.874 285.449C231.606 272.399 231.761 244.281 233.123 231.852C228.066 223.308 215.97 202.957 208.036 189.907C198.118 173.595 195.784 163.692 203.952 156.701C210.486 151.108 218.343 157.089 221.454 160.779L212.12 145.632C209.397 140.195 205.935 128.155 213.87 123.494C221.804 118.834 230.011 122.718 233.123 125.242C230.789 121.941 225.772 114.173 224.371 109.513C222.621 103.687 224.955 94.3658 235.456 92.6181C243.857 91.2199 251.792 98.638 254.709 102.522C253.542 98.8323 253.075 90.1716 260.543 85.0449C268.011 79.9183 275.712 85.6275 278.629 89.1229L324.136 152.041C323.941 150.487 323.669 146.215 324.136 141.554C324.719 135.729 329.386 131.068 341.638 132.233C353.89 133.398 353.307 153.206 352.723 163.692C352.14 174.178 359.141 208.55 363.225 225.444C367.309 242.339 363.808 270.302 359.141 279.041Z" fill="#F0B290"/>
</mask>
<g mask="url(#mask3_680_5897)">
<path d="M371.104 296.435C369.486 293.005 367.22 284.33 371.104 277.067C375.959 267.988 379.6 238.936 375.352 221.383C371.104 203.831 363.822 168.121 364.429 157.226C365.036 146.332 365.642 125.753 352.899 124.543C340.155 123.332 336.411 118.49 335.804 124.543C335.319 129.385 325.1 122.929 325.303 124.543L287.361 79.7539C284.327 76.1224 276.316 70.1909 268.549 75.5171C260.781 80.8434 256.413 79.552 257.626 83.3852C254.592 79.3502 251.193 81.9326 242.455 83.3852C231.532 85.2009 218.181 88.8951 220.002 94.9477C221.394 99.5755 202.713 101.803 203.177 104.986C203.046 105.067 203.096 105.213 203.368 105.434C203.261 105.282 203.199 105.133 203.177 104.986C204.606 104.104 227.561 111.029 220.002 115.464C211.749 120.306 200.537 118.894 203.368 124.543V142.509C202.848 142.704 202.747 143.147 203.368 143.884V142.509C205.559 141.689 215.177 145.269 209.686 149.963C201.19 157.226 203.617 167.516 213.934 184.463C222.187 198.02 234.768 219.164 240.028 228.041C238.612 240.953 238.45 270.167 249.13 283.724C262.48 300.671 272.797 309.145 277.044 310.961C281.292 312.776 291.609 316.408 292.822 321.25C293.793 325.124 295.25 328.513 295.856 329.724L371.104 296.435Z" fill="#FFD2B8"/>
</g>
<mask id="mask4_680_5897" style="mask-type:alpha" maskUnits="userSpaceOnUse" x="199" y="83" width="167" height="247">
<path d="M359.141 279.041C355.407 286.032 357.585 294.382 359.141 297.683L286.797 329.724C286.214 328.559 284.813 325.297 283.88 321.568C282.713 316.908 272.795 313.412 268.711 311.665C264.627 309.917 254.709 301.761 241.874 285.449C231.606 272.399 231.761 244.281 233.123 231.852C228.066 223.308 215.97 202.957 208.036 189.907C198.118 173.595 195.784 163.692 203.952 156.701C210.486 151.108 218.343 157.089 221.454 160.779L212.12 145.632C209.397 140.195 205.935 128.155 213.87 123.494C221.804 118.834 230.011 122.718 233.123 125.242C230.789 121.941 225.772 114.173 224.371 109.513C222.621 103.687 224.955 94.3658 235.456 92.6181C243.857 91.2199 251.792 98.638 254.709 102.522C253.542 98.8323 253.075 90.1716 260.543 85.0449C268.011 79.9183 275.712 85.6275 278.629 89.1229L324.136 152.041C323.941 150.487 323.669 146.215 324.136 141.554C324.719 135.729 329.386 131.068 341.638 132.233C353.89 133.398 353.307 153.206 352.723 163.692C352.14 174.178 359.141 208.55 363.225 225.444C367.309 242.339 363.808 270.302 359.141 279.041Z" fill="#F0B290"/>
</mask>
<g mask="url(#mask4_680_5897)">
<path d="M313.634 211.462C304.766 218.453 304.883 238.066 306.05 246.999C302.783 246.999 302.355 245.445 302.549 244.668C302.161 243.309 301.616 237.328 302.549 224.279C303.483 211.229 316.94 201.364 323.552 198.063V145.632L324.136 135.145L335.221 126.989C345.333 130.485 361.941 136.893 347.473 134.563C333.004 132.232 327.442 137.476 326.47 142.719V200.976C325.886 201.558 322.502 204.471 313.634 211.462Z" fill="#F0B290"/>
</g>
<mask id="mask5_680_5897" style="mask-type:alpha" maskUnits="userSpaceOnUse" x="199" y="83" width="167" height="247">
<path d="M359.141 279.041C355.407 286.032 357.585 294.382 359.141 297.683L286.797 329.724C286.214 328.559 284.813 325.297 283.88 321.568C282.713 316.908 272.795 313.412 268.711 311.665C264.627 309.917 254.709 301.761 241.874 285.449C231.606 272.399 231.761 244.281 233.123 231.852C228.066 223.308 215.97 202.957 208.036 189.907C198.118 173.595 195.784 163.692 203.952 156.701C210.486 151.108 218.343 157.089 221.454 160.779L212.12 145.632C209.397 140.195 205.935 128.155 213.87 123.494C221.804 118.834 230.011 122.718 233.123 125.242C230.789 121.941 225.772 114.173 224.371 109.513C222.621 103.687 224.955 94.3658 235.456 92.6181C243.857 91.2199 251.792 98.638 254.709 102.522C253.542 98.8323 253.075 90.1716 260.543 85.0449C268.011 79.9183 275.712 85.6275 278.629 89.1229L324.136 152.041C323.941 150.487 323.669 146.215 324.136 141.554C324.719 135.729 329.386 131.068 341.638 132.233C353.89 133.398 353.307 153.206 352.723 163.692C352.14 174.178 359.141 208.55 363.225 225.444C367.309 242.339 363.808 270.302 359.141 279.041Z" fill="#F0B290"/>
</mask>
<g mask="url(#mask5_680_5897)">
<path d="M299.049 168.354L300.216 165.441C286.408 143.497 258.363 104.148 257.043 100.193C255.292 94.9507 263.46 82.9687 259.96 85.533C252.96 90.6608 253.348 99.222 254.709 102.523L299.049 168.354Z" fill="#F0B290"/>
<path d="M267.544 178.257L268.711 175.927C254.903 153.983 228.025 113.337 226.705 109.383C224.955 104.14 233.123 92.1578 229.622 94.722C222.622 99.8499 223.01 108.411 224.371 111.712L267.544 178.257Z" fill="#F0B290"/>
<path d="M251.209 207.385L252.375 205.055C238.568 183.112 212.283 140.413 211.536 136.312C210.369 129.904 216.787 121.286 213.286 123.851C206.286 128.978 208.425 138.836 209.786 142.138L251.209 207.385Z" fill="#F0B290"/>
</g>
<rect x="126.333" y="47.6211" width="138" height="179.429" rx="8" fill="#E1EBF0"/>
<path d="M101 207.087V41C101 36.5817 104.582 33 109 33H200.641C201.723 33 202.758 33.4382 203.512 34.2145L241.667 73.5377V207.087C241.667 211.506 238.085 215.087 233.667 215.087H109C104.582 215.087 101 211.506 101 207.087Z" fill="#F1F6F7"/>
<rect x="131" y="44.2969" width="79.9999" height="16.6138" rx="8.30691" fill="#92C5F2"/>
<rect x="111" y="184.519" width="30.6666" height="23.9239" rx="4" fill="#E1EBF0"/>
<path d="M202.333 64.0319V35.4666C202.333 34.5685 203.425 34.1257 204.051 34.7703L240.059 71.8805C240.668 72.5089 240.233 73.5619 239.358 73.5767L212.502 74.0305C206.914 74.1249 202.333 69.6208 202.333 64.0319Z" fill="#D3E3EB"/>
<path d="M174.261 153.586V105.738H182.352V111.493H182.829C183.254 110.647 183.852 109.748 184.625 108.797C185.398 107.83 186.443 107.007 187.761 106.327C189.079 105.633 190.761 105.285 192.807 105.285C195.504 105.285 197.935 105.972 200.102 107.347C202.284 108.706 204.011 110.722 205.284 113.396C206.572 116.054 207.216 119.316 207.216 123.183C207.216 127.004 206.587 130.251 205.329 132.925C204.072 135.598 202.36 137.637 200.193 139.041C198.026 140.446 195.572 141.148 192.829 141.148C190.829 141.148 189.17 140.816 187.852 140.152C186.534 139.487 185.473 138.686 184.67 137.75C183.882 136.799 183.269 135.9 182.829 135.054H182.488V153.586H174.261ZM182.329 123.137C182.329 125.388 182.648 127.359 183.284 129.05C183.935 130.742 184.867 132.064 186.079 133.015C187.307 133.952 188.792 134.42 190.534 134.42C192.352 134.42 193.875 133.936 195.102 132.97C196.329 131.988 197.254 130.651 197.875 128.96C198.511 127.253 198.829 125.312 198.829 123.137C198.829 120.978 198.519 119.06 197.898 117.383C197.276 115.707 196.352 114.393 195.125 113.441C193.898 112.49 192.367 112.014 190.534 112.014C188.776 112.014 187.284 112.474 186.057 113.396C184.829 114.317 183.898 115.608 183.261 117.27C182.64 118.931 182.329 120.887 182.329 123.137Z" fill="#52CB58"/>
<path d="M134.333 140.537V94.1387H151.788C155.364 94.1387 158.364 94.7579 160.788 95.9964C163.227 97.2349 165.068 98.9718 166.311 101.207C167.568 103.427 168.197 106.018 168.197 108.978C168.197 111.953 167.561 114.536 166.288 116.726C165.03 118.901 163.174 120.585 160.72 121.778C158.265 122.956 155.25 123.545 151.674 123.545H139.242V116.567H150.538C152.629 116.567 154.341 116.28 155.674 115.706C157.007 115.117 157.992 114.264 158.629 113.146C159.28 112.014 159.606 110.624 159.606 108.978C159.606 107.332 159.28 105.927 158.629 104.764C157.977 103.586 156.985 102.695 155.651 102.091C154.318 101.471 152.598 101.162 150.492 101.162H142.765V140.537H134.333ZM158.379 119.513L169.901 140.537H160.492L149.174 119.513H158.379Z" fill="#52CB58"/>
<rect x="214.333" y="115.406" width="82.6666" height="127.594" rx="8" fill="#F8991D"/>
<mask id="mask6_680_5897" style="mask-type:alpha" maskUnits="userSpaceOnUse" x="214" y="115" width="83" height="128">
<rect x="214.333" y="115.405" width="82.6666" height="127.594" rx="8" fill="#F8991D"/>
</mask>
<g mask="url(#mask6_680_5897)">
<rect x="221.667" y="109.456" width="82.6666" height="127.594" rx="8" fill="#F9AF4D"/>
</g>
<path fill-rule="evenodd" clip-rule="evenodd" d="M255.666 161.925C246.093 161.925 238.333 169.661 238.333 179.203C238.333 188.746 246.093 196.482 255.666 196.482C265.239 196.482 273 188.746 273 179.203C273 169.661 265.239 161.925 255.666 161.925ZM233 179.203C233 166.724 243.148 156.608 255.666 156.608C268.185 156.608 278.333 166.724 278.333 179.203C278.333 191.682 268.185 201.798 255.666 201.798C243.148 201.798 233 191.682 233 179.203Z" fill="#D3211D"/>
<path fill-rule="evenodd" clip-rule="evenodd" d="M263.552 171.343C264.593 172.381 264.593 174.064 263.552 175.102L251.552 187.064C250.511 188.102 248.822 188.102 247.781 187.064C246.739 186.026 246.739 184.343 247.781 183.305L259.781 171.343C260.822 170.305 262.511 170.305 263.552 171.343Z" fill="#D3211D"/>
<path fill-rule="evenodd" clip-rule="evenodd" d="M247.781 171.343C248.822 170.305 250.511 170.305 251.552 171.343L263.552 183.305C264.593 184.343 264.593 186.026 263.552 187.064C262.511 188.102 260.822 188.102 259.781 187.064L247.781 175.102C246.739 174.064 246.739 172.381 247.781 171.343Z" fill="#D3211D"/>
</svg>
