<svg width="56" height="56" viewBox="0 0 56 56" fill="none" xmlns="http://www.w3.org/2000/svg">
<path fill-rule="evenodd" clip-rule="evenodd" d="M20.03 17.7765C18.7855 17.7765 17.7766 18.7854 17.7766 20.0299C17.7766 21.2744 18.7855 22.2832 20.03 22.2832C21.2745 22.2832 22.2833 21.2744 22.2833 20.0299C22.2833 18.7854 21.2745 17.7765 20.03 17.7765ZM15.2728 20.0299C15.2728 17.4026 17.4027 15.2727 20.03 15.2727C22.6572 15.2727 24.7871 17.4026 24.7871 20.0299C24.7871 22.6572 22.6572 24.787 20.03 24.787C17.4027 24.787 15.2728 22.6572 15.2728 20.0299Z" fill="#F9991C"/>
<path fill-rule="evenodd" clip-rule="evenodd" d="M35.3028 32.7991C34.0583 32.7991 33.0494 33.808 33.0494 35.0525C33.0494 36.297 34.0583 37.3059 35.3028 37.3059C36.5473 37.3059 37.5561 36.297 37.5561 35.0525C37.5561 33.808 36.5473 32.7991 35.3028 32.7991ZM30.5456 35.0525C30.5456 32.4252 32.6755 30.2954 35.3028 30.2954C37.93 30.2954 40.0599 32.4252 40.0599 35.0525C40.0599 37.6798 37.93 39.8096 35.3028 39.8096C32.6755 39.8096 30.5456 37.6798 30.5456 35.0525Z" fill="#F9991C"/>
<path fill-rule="evenodd" clip-rule="evenodd" d="M39.2062 16.3521C39.7713 16.8913 39.7713 17.7655 39.2062 18.3048L17.7904 38.7398C17.2253 39.279 16.3091 39.279 15.744 38.7398C15.1789 38.2005 15.1789 37.3263 15.744 36.7871L37.1598 16.3521C37.7249 15.8129 38.6411 15.8129 39.2062 16.3521Z" fill="#F9991C"/>
<path fill-rule="evenodd" clip-rule="evenodd" d="M27.5412 2.50375C13.7134 2.50375 2.50375 13.7134 2.50375 27.5412C2.50375 41.3691 13.7134 52.5787 27.5412 52.5787C31.2247 52.5787 34.7224 51.7833 37.8719 50.3548C38.29 51.1072 38.8108 51.7947 39.4153 52.3984C35.8199 54.119 31.7931 55.0825 27.5412 55.0825C12.3306 55.0825 0 42.7518 0 27.5412C0 12.3306 12.3306 0 27.5412 0C42.7518 0 55.0825 12.3306 55.0825 27.5412C55.0825 31.7931 54.119 35.8199 52.3984 39.4153C51.7947 38.8108 51.1072 38.29 50.3548 37.8719C51.7833 34.7224 52.5787 31.2247 52.5787 27.5412C52.5787 13.7134 41.3691 2.50375 27.5412 2.50375Z" fill="#04549F"/>
<path fill-rule="evenodd" clip-rule="evenodd" d="M27.5412 8.26248C16.8937 8.26248 8.2623 16.8939 8.2623 27.5413C8.2623 38.1888 16.8937 46.8202 27.5412 46.8202C30.9123 46.8202 34.0813 45.955 36.8383 44.4344C36.7615 44.9123 36.7216 45.4025 36.7216 45.9021C36.7216 46.3615 36.7554 46.813 36.8205 47.2543C34.0054 48.5818 30.86 49.324 27.5412 49.324C15.511 49.324 5.75856 39.5716 5.75856 27.5413C5.75856 15.5111 15.511 5.75874 27.5412 5.75874C39.5714 5.75874 49.3238 15.5111 49.3238 27.5413C49.3238 30.8601 48.5816 34.0054 47.2542 36.8205C46.8129 36.7554 46.3614 36.7216 45.9021 36.7216C45.4025 36.7216 44.9122 36.7615 44.4343 36.8383C45.9548 34.0814 46.82 30.9124 46.82 27.5413C46.82 16.8939 38.1886 8.26248 27.5412 8.26248Z" fill="#F9991C"/>
<path fill-rule="evenodd" clip-rule="evenodd" d="M45.9018 55.0825C50.972 55.0825 55.0822 50.9723 55.0822 45.9021C55.0822 40.8319 50.9723 36.7216 45.9021 36.7216C40.8319 36.7216 36.7216 40.8319 36.7216 45.9021C36.7216 50.9723 40.8316 55.0825 45.9018 55.0825ZM43.0624 41.7644C42.7039 41.4059 42.1226 41.4059 41.7641 41.7644C41.4056 42.1229 41.4056 42.7042 41.7641 43.0627L44.5576 45.8562L41.7641 48.6497C41.4056 49.0082 41.4056 49.5895 41.7641 49.948C42.1226 50.3065 42.7039 50.3065 43.0624 49.948L45.8559 47.1545L48.6494 49.948C49.0079 50.3065 49.5892 50.3065 49.9477 49.948C50.3062 49.5895 50.3062 49.0082 49.9477 48.6497L47.1542 45.8562L49.9477 43.0627C50.3062 42.7042 50.3062 42.1229 49.9477 41.7644C49.5892 41.4059 49.0079 41.4059 48.6494 41.7644L45.8559 44.5579L43.0624 41.7644Z" fill="#F04731"/>
<path fill-rule="evenodd" clip-rule="evenodd" d="M45.9015 37.6398C41.3384 37.6398 37.6392 41.339 37.6392 45.9022C37.6392 50.4653 41.3384 54.1645 45.9015 54.1645C50.4647 54.1645 54.1639 50.4653 54.1639 45.9022C54.1639 41.339 50.4647 37.6398 45.9015 37.6398ZM35.8031 45.9022C35.8031 40.3249 40.3243 35.8037 45.9015 35.8037C51.4788 35.8037 56 40.3249 56 45.9022C56 51.4794 51.4788 56.0006 45.9015 56.0006C40.3243 56.0006 35.8031 51.4794 35.8031 45.9022Z" fill="#04549F"/>
</svg>
