<svg width="56" height="56" viewBox="0 0 56 56" fill="none" xmlns="http://www.w3.org/2000/svg">
<path d="M0.636353 10.8275C0.636353 8.6726 2.38324 6.92571 4.53814 6.92571H10.0192V8.7837H4.53814C3.40939 8.7837 2.49435 9.69874 2.49435 10.8275V17.0518H49.6874V10.8275C49.6874 9.69874 48.7724 8.7837 47.6436 8.7837H42.2555V6.92571H47.6436C49.7985 6.92571 51.5454 8.6726 51.5454 10.8275V37.2273L49.6874 36.5909V18.9098H2.49435V45.7578C2.49435 46.8866 3.40939 47.8016 4.53814 47.8016H36.5921L37.8649 49.6596H4.53814C2.38324 49.6596 0.636353 47.9127 0.636353 45.7578V10.8275Z" fill="#04549F"/>
<path d="M23.7684 8.7837H15.1287V6.92571H23.7684V8.7837Z" fill="#04549F"/>
<path d="M37.146 8.7837H28.5992V6.92571H37.146V8.7837Z" fill="#04549F"/>
<path fill-rule="evenodd" clip-rule="evenodd" d="M9.18313 5.25351C9.18313 3.40645 10.6805 1.90912 12.5275 1.90912C14.3746 1.90912 15.8719 3.40645 15.8719 5.25351V10.4559C15.8719 12.303 14.3746 13.8003 12.5275 13.8003C10.6805 13.8003 9.18313 12.303 9.18313 10.4559V5.25351ZM12.5275 3.76711C11.7066 3.76711 11.0411 4.4326 11.0411 5.25351V10.4559C11.0411 11.2768 11.7066 11.9423 12.5275 11.9423C13.3484 11.9423 14.0139 11.2768 14.0139 10.4559V5.25351C14.0139 4.4326 13.3484 3.76711 12.5275 3.76711Z" fill="#04549F"/>
<path fill-rule="evenodd" clip-rule="evenodd" d="M22.7465 5.25351C22.7465 3.40645 24.2438 1.90912 26.0909 1.90912C27.938 1.90912 29.4353 3.40645 29.4353 5.25351V10.4559C29.4353 12.303 27.938 13.8003 26.0909 13.8003C24.2438 13.8003 22.7465 12.303 22.7465 10.4559V5.25351ZM26.0909 3.76711C25.27 3.76711 24.6045 4.4326 24.6045 5.25351V10.4559C24.6045 11.2768 25.27 11.9423 26.0909 11.9423C26.9118 11.9423 27.5773 11.2768 27.5773 10.4559V5.25351C27.5773 4.4326 26.9118 3.76711 26.0909 3.76711Z" fill="#04549F"/>
<path fill-rule="evenodd" clip-rule="evenodd" d="M36.3099 5.25351C36.3099 3.40645 37.8072 1.90912 39.6543 1.90912C41.5013 1.90912 42.9987 3.40645 42.9987 5.25351V10.4559C42.9987 12.303 41.5013 13.8003 39.6543 13.8003C37.8072 13.8003 36.3099 12.303 36.3099 10.4559V5.25351ZM39.6543 3.76711C38.8334 3.76711 38.1679 4.4326 38.1679 5.25351V10.4559C38.1679 11.2768 38.8334 11.9423 39.6543 11.9423C40.4752 11.9423 41.1407 11.2768 41.1407 10.4559V5.25351C41.1407 4.4326 40.4752 3.76711 39.6543 3.76711Z" fill="#04549F"/>
<path fill-rule="evenodd" clip-rule="evenodd" d="M6.58194 23.0903C6.58194 22.1667 7.33061 21.4181 8.25414 21.4181H12.7133C13.6369 21.4181 14.3855 22.1667 14.3855 23.0903V25.1341C14.3855 26.0576 13.6369 26.8063 12.7133 26.8063H8.25414C7.33061 26.8063 6.58194 26.0576 6.58194 25.1341V23.0903ZM8.43994 23.2761V24.9483H12.5275V23.2761H8.43994Z" fill="#04549F"/>
<path fill-rule="evenodd" clip-rule="evenodd" d="M16.9866 23.0902C16.9866 22.1667 17.7353 21.418 18.6588 21.418H23.118C24.0415 21.418 24.7902 22.1667 24.7902 23.0902V25.134C24.7902 26.0576 24.0415 26.8062 23.118 26.8062H18.6588C17.7353 26.8062 16.9866 26.0576 16.9866 25.134V23.0902ZM18.8446 23.276V24.9482H22.9322V23.276H18.8446Z" fill="#04549F"/>
<path fill-rule="evenodd" clip-rule="evenodd" d="M27.3914 23.0902C27.3914 22.1667 28.14 21.418 29.0636 21.418H33.5228C34.4463 21.418 35.195 22.1667 35.195 23.0902V25.134C35.195 26.0576 34.4463 26.8062 33.5228 26.8062H29.0636C28.14 26.8062 27.3914 26.0576 27.3914 25.134V23.0902ZM29.2494 23.276V24.9482H33.337V23.276H29.2494Z" fill="#04549F"/>
<path fill-rule="evenodd" clip-rule="evenodd" d="M37.7961 23.0902C37.7961 22.1667 38.5448 21.418 39.4683 21.418H43.9275C44.8511 21.418 45.5997 22.1667 45.5997 23.0902V25.134C45.5997 26.0576 44.8511 26.8062 43.9275 26.8062H39.4683C38.5448 26.8062 37.7961 26.0576 37.7961 25.134V23.0902ZM39.6541 23.276V24.9482H43.7417V23.276H39.6541Z" fill="#04549F"/>
<path fill-rule="evenodd" clip-rule="evenodd" d="M6.58194 31.0797C6.58194 30.1561 7.33061 29.4075 8.25414 29.4075H12.7133C13.6369 29.4075 14.3855 30.1561 14.3855 31.0797V33.1235C14.3855 34.047 13.6369 34.7956 12.7133 34.7956H8.25414C7.33061 34.7956 6.58194 34.047 6.58194 33.1235V31.0797ZM8.43994 31.2655V32.9376H12.5275V31.2655H8.43994Z" fill="#04549F"/>
<path fill-rule="evenodd" clip-rule="evenodd" d="M16.9866 31.0797C16.9866 30.1561 17.7353 29.4075 18.6588 29.4075H23.118C24.0415 29.4075 24.7902 30.1561 24.7902 31.0797V33.1235C24.7902 34.047 24.0415 34.7957 23.118 34.7957H18.6588C17.7353 34.7957 16.9866 34.047 16.9866 33.1235V31.0797ZM18.8446 31.2655V32.9377H22.9322V31.2655H18.8446Z" fill="#04549F"/>
<path fill-rule="evenodd" clip-rule="evenodd" d="M27.3914 31.0797C27.3914 30.1561 28.14 29.4075 29.0636 29.4075H33.5228C34.4463 29.4075 35.195 30.1561 35.195 31.0797V33.1235C35.195 34.047 34.4463 34.7957 33.5228 34.7957H29.0636C28.14 34.7957 27.3914 34.047 27.3914 33.1235V31.0797ZM29.2494 31.2655V32.9377H33.337V31.2655H29.2494Z" fill="#04549F"/>
<path fill-rule="evenodd" clip-rule="evenodd" d="M37.7961 31.0797C37.7961 30.1561 38.5448 29.4075 39.4683 29.4075H43.9275C44.8511 29.4075 45.5997 30.1561 45.5997 31.0797V33.1235C45.5997 34.047 44.8511 34.7957 43.9275 34.7957H39.4683C38.5448 34.7957 37.7961 34.047 37.7961 33.1235V31.0797ZM39.6541 31.2655V32.9377H43.7417V31.2655H39.6541Z" fill="#04549F"/>
<path fill-rule="evenodd" clip-rule="evenodd" d="M6.58194 39.069C6.58194 38.1455 7.33061 37.3968 8.25414 37.3968H12.7133C13.6369 37.3968 14.3855 38.1455 14.3855 39.069V41.1128C14.3855 42.0364 13.6369 42.785 12.7133 42.785H8.25414C7.33061 42.785 6.58194 42.0364 6.58194 41.1128V39.069ZM8.43994 39.2548V40.927H12.5275V39.2548H8.43994Z" fill="#04549F"/>
<path fill-rule="evenodd" clip-rule="evenodd" d="M16.9866 39.0691C16.9866 38.1456 17.7353 37.3969 18.6588 37.3969H23.118C24.0415 37.3969 24.7902 38.1456 24.7902 39.0691V41.1129C24.7902 42.0364 24.0415 42.7851 23.118 42.7851H18.6588C17.7353 42.7851 16.9866 42.0364 16.9866 41.1129V39.0691ZM18.8446 39.2549V40.9271H22.9322V39.2549H18.8446Z" fill="#04549F"/>
<path fill-rule="evenodd" clip-rule="evenodd" d="M27.3914 39.0691C27.3914 38.1456 28.14 37.3969 29.0636 37.3969H33.5228C34.4463 37.3969 35.195 38.1456 35.195 39.0691V41.1129C35.195 42.0364 34.4463 42.7851 33.5228 42.7851H29.0636C28.14 42.7851 27.3914 42.0364 27.3914 41.1129V39.0691ZM29.2494 39.2549V40.9271H33.337V39.2549H29.2494Z" fill="#04549F"/>
<path fill-rule="evenodd" clip-rule="evenodd" d="M45.3769 36.1679C40.7922 36.1679 37.1319 39.864 37.1319 44.3528C37.1319 48.8417 40.7922 52.5377 45.3769 52.5377C49.9616 52.5377 53.6218 48.8417 53.6218 44.3528C53.6218 39.864 49.9616 36.1679 45.3769 36.1679ZM35.1951 44.3528C35.1951 38.698 39.7847 34.171 45.3769 34.171C50.969 34.171 55.5587 38.698 55.5587 44.3528C55.5587 50.0076 50.969 54.5347 45.3769 54.5347C39.7847 54.5347 35.1951 50.0076 35.1951 44.3528Z" fill="#04549F"/>
<path fill-rule="evenodd" clip-rule="evenodd" d="M50.8246 41.053C51.185 41.4605 51.1567 42.092 50.7615 42.4636L44.5416 48.3105L44.5185 48.3297C44.3789 48.4455 44.2219 48.5743 44.071 48.6716C43.9265 48.7649 43.6623 48.9146 43.319 48.9146C42.9403 48.9146 42.6651 48.7366 42.5014 48.5989C42.3547 48.4756 42.2222 48.3192 42.1276 48.207L42.0875 48.1594L40.007 44.9511C39.7097 44.4927 39.8292 43.8726 40.2738 43.5661C40.7184 43.2596 41.3198 43.3828 41.6171 43.8412L43.4365 46.6469L49.4565 40.9879C49.8517 40.6164 50.4642 40.6456 50.8246 41.053Z" fill="#F9991C"/>
</svg>
