<svg width="56" height="56" viewBox="0 0 56 56" fill="none" xmlns="http://www.w3.org/2000/svg">
<path fill-rule="evenodd" clip-rule="evenodd" d="M6.65085 9.4159C5.64729 9.4159 4.83374 10.2295 4.83374 11.233V52.5309C4.83374 53.5345 5.64729 54.3481 6.65085 54.3481H35.0638C36.0674 54.3481 36.8809 53.5345 36.8809 52.5309V47.9056C36.8809 47.4494 37.2507 47.5753 37.7069 47.5753C38.1631 47.5753 38.5329 47.4494 38.5329 47.9056V52.5309C38.5329 54.4468 36.9797 56 35.0638 56H6.65085C4.73496 56 3.18182 54.4468 3.18182 52.5309V11.233C3.18182 9.31712 4.73496 7.76399 6.65085 7.76399H29.8603C30.0808 7.76399 30.2922 7.8522 30.4474 8.00897L38.294 15.9382C38.447 16.0928 38.5329 16.3016 38.5329 16.5191V20.5663C38.5329 21.0225 38.1631 21 37.7069 21C37.2507 21 36.8809 21.0225 36.8809 20.5663V17.3451H32.5034C30.5875 17.3451 29.0343 15.792 29.0343 13.8761V9.4159H6.65085ZM30.6862 10.5988L35.7275 15.6932H32.5034C31.4998 15.6932 30.6862 14.8796 30.6862 13.8761V10.5988Z" fill="#04549F"/>
<path fill-rule="evenodd" clip-rule="evenodd" d="M12.4327 3.46903C12.4327 1.55314 13.9858 0 15.9017 0H39.1111C39.3317 0 39.5431 0.0882119 39.6982 0.244983L47.5448 8.17419C47.6979 8.32883 47.7837 8.5376 47.7837 8.75516V12.8024C47.7837 13.2585 47.4139 13.6283 46.9577 13.6283C46.5016 13.6283 46.1318 13.2585 46.1318 12.8024V9.58112H41.7542C39.8383 9.58112 38.2852 8.02799 38.2852 6.11209V1.65192H15.9017C14.8981 1.65192 14.0846 2.46546 14.0846 3.46903V8.42478C14.0846 8.88094 13.7148 9.25074 13.2586 9.25074C12.8025 9.25074 12.4327 8.88094 12.4327 8.42478V3.46903ZM39.9371 2.83486L44.9784 7.9292H41.7542C40.7506 7.9292 39.9371 7.11566 39.9371 6.11209V2.83486ZM46.9577 16.5192C47.4139 16.5192 47.7837 16.889 47.7837 17.3451V20.5664C47.7837 21.0225 47.4139 21 46.9577 21C46.5016 21 46.1318 21.0225 46.1318 20.5664V17.3451C46.1318 16.889 46.5016 16.5192 46.9577 16.5192Z" fill="#04549F"/>
<path fill-rule="evenodd" clip-rule="evenodd" d="M14.4149 16.0236C14.4149 15.5674 14.7847 15.1976 15.2408 15.1976H26.4739C26.93 15.1976 27.2998 15.5674 27.2998 16.0236C27.2998 16.4797 26.93 16.8495 26.4739 16.8495H15.2408C14.7847 16.8495 14.4149 16.4797 14.4149 16.0236ZM19.3706 19.3274C19.3706 18.8712 19.7404 18.5014 20.1966 18.5014H21.5181C21.9743 18.5014 22.3441 18.8712 22.3441 19.3274C22.3441 19.7836 21.9743 20.1534 21.5181 20.1534H20.1966C19.7404 20.1534 19.3706 19.7836 19.3706 19.3274Z" fill="#04549F"/>
<path fill-rule="evenodd" clip-rule="evenodd" d="M7.80725 22.9617C7.80725 22.5055 8.17704 22.1357 8.63321 22.1357H19.2055C19.6616 22.1357 20.0314 22.5055 20.0314 22.9617C20.0314 23.4179 19.6616 23.7877 19.2055 23.7877H8.63321C8.17704 23.7877 7.80725 23.4179 7.80725 22.9617ZM21.6834 22.9617C21.6834 22.5055 22.0531 22.1357 22.5093 22.1357H29.117C29.5731 22.1357 29.5909 22.4529 29.5909 22.9091C29.5909 23.3653 29.5731 23.7877 29.117 23.7877H22.5093C22.0531 23.7877 21.6834 23.4179 21.6834 22.9617ZM7.80725 26.5959C7.80725 26.1398 8.17704 25.77 8.63321 25.77H19.2055C19.6616 25.77 20.0314 26.1398 20.0314 26.5959C20.0314 27.0521 19.6616 27.4219 19.2055 27.4219H8.63321C8.17704 27.4219 7.80725 27.0521 7.80725 26.5959ZM21.6834 26.5959C21.6834 26.1398 22.0531 25.77 22.5093 25.77H29.117C29.5731 25.77 29.5909 26.1398 29.5909 26.5959C29.5909 27.0521 29.5731 27.4219 29.117 27.4219H22.5093C22.0531 27.4219 21.6834 27.0521 21.6834 26.5959ZM7.80725 30.2301C7.80725 29.774 8.17704 29.4042 8.63321 29.4042H19.2055C19.6616 29.4042 20.0314 29.774 20.0314 30.2301C20.0314 30.6863 19.6616 31.0561 19.2055 31.0561H8.63321C8.17704 31.0561 7.80725 30.6863 7.80725 30.2301ZM21.6834 30.2301C21.6834 29.774 22.0531 29.4042 22.5093 29.4042H29.117C29.5731 29.4042 29.5909 29.774 29.5909 30.2301C29.5909 30.6863 29.5731 31.0561 29.117 31.0561H22.5093C22.0531 31.0561 21.6834 30.6863 21.6834 30.2301ZM7.80725 33.8644C7.80725 33.4082 8.17704 33.0384 8.63321 33.0384H19.2055C19.6616 33.0384 20.0314 33.4082 20.0314 33.8644C20.0314 34.3205 19.6616 34.6903 19.2055 34.6903H8.63321C8.17704 34.6903 7.80725 34.3205 7.80725 33.8644ZM21.6834 33.8644C21.6834 33.4082 22.0531 33.0384 22.5093 33.0384H29.117C29.5731 33.0384 29.5909 33.4082 29.5909 33.8644C29.5909 34.3205 29.5731 34.6903 29.117 34.6903H22.5093C22.0531 34.6903 21.6834 34.3205 21.6834 33.8644ZM7.80725 37.4986C7.80725 37.0424 8.17704 36.6726 8.63321 36.6726H19.2055C19.6616 36.6726 20.0314 37.0424 20.0314 37.4986C20.0314 37.9547 19.6616 38.3245 19.2055 38.3245H8.63321C8.17704 38.3245 7.80725 37.9547 7.80725 37.4986ZM21.6834 37.4986C21.6834 37.0424 22.0531 36.6726 22.5093 36.6726H29.117C29.5731 36.6726 29.9429 37.0424 29.9429 37.4986C29.9429 37.9547 29.5731 38.3245 29.117 38.3245H22.5093C22.0531 38.3245 21.6834 37.9547 21.6834 37.4986ZM7.80725 41.1328C7.80725 40.6766 8.17704 40.3068 8.63321 40.3068H19.2055C19.6616 40.3068 20.0314 40.6766 20.0314 41.1328C20.0314 41.589 19.6616 41.9588 19.2055 41.9588H8.63321C8.17704 41.9588 7.80725 41.589 7.80725 41.1328ZM21.6834 41.1328C21.6834 40.6766 22.0531 40.3068 22.5093 40.3068H30.1081C30.5643 40.3068 30.9341 40.6766 30.9341 41.1328C30.9341 41.589 30.5643 41.9588 30.1081 41.9588H22.5093C22.0531 41.9588 21.6834 41.589 21.6834 41.1328ZM7.80725 44.767C7.80725 44.3108 8.17704 43.9411 8.63321 43.9411H19.2055C19.6616 43.9411 20.0314 44.3108 20.0314 44.767C20.0314 45.2232 19.6616 45.593 19.2055 45.593H8.63321C8.17704 45.593 7.80725 45.2232 7.80725 44.767ZM21.6834 44.767C21.6834 44.3108 22.0531 43.9411 22.5093 43.9411H32.9164C33.3726 43.9411 33.7424 44.3108 33.7424 44.767C33.7424 45.2232 33.3726 45.593 32.9164 45.593H22.5093C22.0531 45.593 21.6834 45.2232 21.6834 44.767ZM7.80725 48.4012C7.80725 47.9451 8.17704 47.5753 8.63321 47.5753H19.2055C19.6616 47.5753 20.0314 47.9451 20.0314 48.4012C20.0314 48.8574 19.6616 49.2272 19.2055 49.2272H8.63321C8.17704 49.2272 7.80725 48.8574 7.80725 48.4012ZM21.6834 48.4012C21.6834 47.9451 22.0531 47.5753 22.5093 47.5753H33.0816C33.5377 47.5753 33.9075 47.9451 33.9075 48.4012C33.9075 48.8574 33.5377 49.2272 33.0816 49.2272H22.5093C22.0531 49.2272 21.6834 48.8574 21.6834 48.4012Z" fill="#04549F"/>
<path fill-rule="evenodd" clip-rule="evenodd" d="M48.4443 21.6401H32.2555C30.9782 21.6401 29.9428 22.6755 29.9428 23.9528V35.1032C29.9428 39.3828 32.0118 42.4979 34.4296 44.7036C36.7209 46.7938 39.2489 47.9883 40.3526 48.4473C41.4636 47.9916 44.0021 46.8167 46.3001 44.8187C48.7334 42.703 50.757 39.7968 50.757 35.9292V23.9528C50.757 22.6755 49.7215 21.6401 48.4443 21.6401ZM32.2555 19.9882H48.4443C50.6339 19.9882 52.4089 21.7632 52.4089 23.9528V35.9292C52.4089 44.9553 42.89 49.222 40.7665 50.0615C40.4937 50.1693 40.2061 50.1694 39.9337 50.0605C37.8111 49.2123 28.2909 44.8638 28.2909 35.1032V23.9528C28.2909 21.7632 30.0659 19.9882 32.2555 19.9882Z" fill="#04549F"/>
<path fill-rule="evenodd" clip-rule="evenodd" d="M47.7835 24.944H32.9163V34.6889C32.9163 37.706 34.3386 39.9226 36.0552 41.5269C37.6594 43.0263 39.455 43.9212 40.3531 44.3093C41.2587 43.9243 43.0644 43.0453 44.6747 41.6118C46.4051 40.0714 47.7835 38.0134 47.7835 35.3117V24.944ZM32.9163 23.2921H47.7835C48.6959 23.2921 49.4355 24.0317 49.4355 24.944V35.3117C49.4355 41.9765 42.5575 45.1998 40.7702 45.9248C40.4982 46.0352 40.2016 46.0352 39.9301 45.9237C38.1434 45.1898 31.2644 41.8962 31.2644 34.6889V24.944C31.2644 24.0317 32.004 23.2921 32.9163 23.2921Z" fill="#F9991C"/>
<path fill-rule="evenodd" clip-rule="evenodd" d="M42.5975 32.1675C42.5859 32.1809 42.5724 32.1963 42.5572 32.2138C42.4995 32.2801 42.4169 32.3745 42.3171 32.4878C42.1179 32.7141 41.8486 33.0169 41.5705 33.3207C41.2944 33.6224 41.0015 33.934 40.7573 34.1737C40.637 34.2918 40.515 34.4057 40.4057 34.4949C40.3525 34.5383 40.2847 34.5904 40.21 34.6359C40.1725 34.6587 40.1182 34.6893 40.0517 34.7162C39.9947 34.7393 39.8723 34.7834 39.7133 34.7834C39.541 34.7834 39.4055 34.7336 39.3367 34.7046C39.2583 34.6716 39.1916 34.6328 39.1417 34.6009C39.0419 34.5373 38.9464 34.4611 38.8656 34.392C38.701 34.2511 38.5227 34.075 38.3671 33.9142C38.2084 33.7504 38.0596 33.5882 37.9512 33.468C37.902 33.4133 37.8606 33.3668 37.8298 33.332C37.8129 33.3204 37.7914 33.3063 37.766 33.2908C37.6823 33.24 37.5723 33.1845 37.4536 33.1497C37.2419 33.0876 37.0481 33.0903 36.8317 33.3064C36.5335 33.6042 36.5234 33.8764 36.5718 34.1072C36.599 34.2371 36.6478 34.3539 36.6923 34.4401C36.7074 34.4695 36.7212 34.4936 36.732 34.5116L38.5019 36.3591L38.5067 36.3643L38.5075 36.3652C38.5099 36.3677 38.5151 36.3732 38.523 36.3812C38.5388 36.3972 38.565 36.4229 38.6002 36.4552C38.6716 36.5204 38.7755 36.6082 38.9019 36.695C39.1719 36.8803 39.4594 37.003 39.7133 37.003C39.9602 37.003 40.2224 36.8857 40.463 36.7095C40.5765 36.6264 40.6684 36.5423 40.7309 36.48C40.7617 36.4492 40.7842 36.4249 40.7974 36.4101C40.8039 36.4029 40.8081 36.3981 40.8098 36.3961V36.3961L40.8332 36.3675L43.8836 33.322L43.8847 33.3206C43.8997 33.3008 43.9236 33.2677 43.9512 33.224C44.0084 33.1336 44.0709 33.0142 44.1103 32.8841C44.1793 32.6563 44.1842 32.4219 43.915 32.1532C43.6033 31.842 43.3257 31.8482 43.068 31.9265C42.9225 31.9707 42.7902 32.0405 42.6907 32.1037C42.6514 32.1286 42.6198 32.1509 42.5975 32.1675ZM44.4986 33.8751C45.1223 34.4166 45.1228 34.416 45.1228 34.416L45.1234 34.4154L45.1245 34.4141L45.1271 34.4111L45.1334 34.4036C45.1381 34.398 45.1438 34.3911 45.1505 34.383C45.1637 34.3667 45.1807 34.3454 45.2005 34.3193C45.2399 34.2674 45.2914 34.1955 45.3476 34.1066C45.458 33.9319 45.5966 33.6755 45.6913 33.3628C45.8905 32.7051 45.8856 31.7863 45.0822 30.9842C44.2388 30.1422 43.2788 30.1359 42.5877 30.3459C42.2588 30.4459 41.989 30.5924 41.8048 30.7094C41.7113 30.7688 41.6357 30.8233 41.5812 30.8649C41.5539 30.8858 41.5316 30.9036 41.5146 30.9175C41.5062 30.9244 41.499 30.9304 41.4932 30.9353L41.4856 30.9418L41.4826 30.9445L41.4806 30.9461C41.4806 30.9461 41.4801 30.9467 42.0235 31.5687L41.4801 30.9467L41.4363 30.9849L41.3983 31.0289L41.3761 31.0545C41.3614 31.0715 41.3395 31.0967 41.3115 31.1289C41.2554 31.1932 41.1749 31.2854 41.0775 31.396C40.8823 31.6177 40.6204 31.9121 40.3519 32.2054C40.1188 32.4601 39.8866 32.7075 39.6911 32.9043C39.6467 32.8602 39.6007 32.8135 39.5539 32.7652C39.4134 32.6201 39.2787 32.4734 39.1782 32.3619C39.1282 32.3065 39.0873 32.2604 39.0592 32.2285C39.0451 32.2126 39.0342 32.2002 39.027 32.192L39.0191 32.1828L39.017 32.1805L38.9729 32.1296L38.9211 32.0866L38.3933 32.7219C38.9211 32.0866 38.9205 32.0861 38.9205 32.0861L38.9199 32.0856L38.9186 32.0845L38.9157 32.0821L38.9084 32.0762C38.903 32.0719 38.8963 32.0665 38.8885 32.0604C38.8728 32.0481 38.8522 32.0325 38.8273 32.0143C38.7775 31.9781 38.7088 31.9308 38.6242 31.8794C38.4579 31.7782 38.2143 31.6513 37.9186 31.5646C37.3012 31.3835 36.4225 31.3807 35.6646 32.1374C34.8903 32.9105 34.8178 33.7914 34.955 34.4461C35.0206 34.759 35.1317 35.018 35.2239 35.1969C35.2707 35.2876 35.3144 35.3613 35.3484 35.4151C35.3655 35.442 35.3803 35.4642 35.392 35.4813C35.3979 35.4899 35.403 35.4972 35.4073 35.5032L35.413 35.5112L35.4154 35.5145L35.4165 35.5159L35.417 35.5166C35.417 35.5166 35.4174 35.5173 36.0831 35.0283L35.4174 35.5173L35.4494 35.5608L37.2969 37.4892C37.3 37.4925 37.3037 37.4965 37.308 37.501C37.3182 37.5117 37.3316 37.5257 37.3482 37.5425C37.3814 37.5761 37.4274 37.6211 37.485 37.6738C37.5993 37.7784 37.7635 37.9172 37.9671 38.0569C38.3572 38.3247 38.9772 38.655 39.7133 38.655C40.4565 38.655 41.0606 38.3193 41.4388 38.0424C41.6347 37.899 41.7903 37.7565 41.898 37.649C41.9523 37.5948 41.9955 37.5484 42.0268 37.5135C42.0365 37.5027 42.0451 37.493 42.0525 37.4844L45.103 34.4388L45.1223 34.4166L44.4986 33.8751Z" fill="#F9991C"/>
</svg>
